#N canvas 959 401 468 203 12;
#X obj 19 13 inlet;
#X obj 19 37 spigot 1;
#X obj 19 61 t a b b;
#X obj 19 85 outlet;
#X obj 171 12 inlet;
#X msg 118 62 1;
#X msg 118 86 0;
#X text 18 143 weightless debounce https://forum.pdpatchrepo.info/topic/12092/debouncing-was-measure-time-between-two-bangs-events/2;
#X obj 118 38 delay 200;
#X connect 0 0 1 0;
#X connect 1 0 2 0;
#X connect 2 0 3 0;
#X connect 2 1 8 0;
#X connect 2 2 6 0;
#X connect 4 0 8 1;
#X connect 5 0 1 1;
#X connect 6 0 1 1;
#X connect 8 0 5 0;
