#N canvas -3045 307 669 540 12;
#X obj 191 73 keyup;
#X obj 7 73 key, f 6;
#X msg 148 295 0;
#X obj 124 393 tgl 50 0 empty empty empty 0 -10 0 12 #fcfcfc #000000 #000000 0 1;
#X obj 7 120 sel;
#X obj 197 147 sel;
#X obj 5 5 cnv 25 50 50 empty \$0-key q 20 12 0 12 #bcbcbc #404040 0;
#X msg 257 339 200, f 6;
#X floatatom 7 97 5 0 0 0 - - - 0;
#X msg 103 295 1;
#X msg 210 339 69;
#X obj 44 187 delay 10;
#X obj 24 254 spigot 1;
#X msg 52 219 0;
#X msg 92 219 1;
#X obj 197 171 t b b;
#X obj 7 144 t b b;
#X obj 124 482 outlet toggle;
#X obj 91 92 f \$1;
#X floatatom 91 116 5 0 0 0 - - - 0;
#X msg 210 363 color \$1 23;
#X obj 62 472 bng 19 250 50 0 empty empty empty 0 -10 0 12 #fcfcfc #000000 #000000;
#X msg 389 368 vis_size 50 50;
#X msg 512 374 pos 5 5;
#X obj 285 12 loadbang;
#X obj 313 313 list tosymbol;
#X obj 284 482 s \$0-key;
#X msg 314 368 label \$1;
#X obj 483 87 float \$0;
#X floatatom 493 112 5 0 0 0 - - - 0;
#X obj 483 59 bng 19 250 50 0 empty empty empty 17 7 0 10 #dfdfdf #000000 #000000;
#X connect 0 0 5 0;
#X connect 1 0 8 0;
#X connect 2 0 3 0;
#X connect 2 0 7 0;
#X connect 3 0 17 0;
#X connect 3 0 21 0;
#X connect 4 0 16 0;
#X connect 5 0 15 0;
#X connect 7 0 20 0;
#X connect 8 0 4 0;
#X connect 9 0 3 0;
#X connect 9 0 10 0;
#X connect 10 0 20 0;
#X connect 11 0 13 0;
#X connect 12 0 9 0;
#X connect 13 0 12 1;
#X connect 14 0 12 1;
#X connect 15 0 14 0;
#X connect 15 1 2 0;
#X connect 16 0 12 0;
#X connect 16 1 11 0;
#X connect 18 0 4 1;
#X connect 18 0 5 1;
#X connect 18 0 19 0;
#X connect 19 0 25 0;
#X connect 20 0 26 0;
#X connect 22 0 26 0;
#X connect 23 0 26 0;
#X connect 24 0 7 0;
#X connect 24 0 22 0;
#X connect 24 0 23 0;
#X connect 24 0 18 0;
#X connect 25 0 27 0;
#X connect 27 0 26 0;
#X connect 28 0 29 0;
#X connect 30 0 28 0;
#X coords 0 -1 1 1 60 60 2 0 0;
