#N canvas 1112 496 450 300 12;
#X obj 22 26 inlet notes;
#X obj 173 30 inlet toggle;
#X obj 22 64 unpack f f f f;
#X obj 318 199 midinoteout;
#X obj 323 34 inlet midichannel;
#X obj 226 199 midinoteout;
#X obj 138 199 midinoteout;
#X obj 52 199 midinoteout;
#X connect 0 0 2 0;
#X connect 1 0 3 1;
#X connect 1 0 5 1;
#X connect 1 0 6 1;
#X connect 1 0 7 1;
#X connect 2 0 7 0;
#X connect 2 1 6 0;
#X connect 2 2 5 0;
#X connect 2 3 3 0;
#X connect 4 0 3 2;
#X connect 4 0 5 2;
#X connect 4 0 6 2;
#X connect 4 0 7 2;
