#N canvas 221 434 557 406 12;
#X obj 102 269 pack f f f;
#X obj 173 363 midiout;
#X obj 71 208 + 143;
#X floatatom 71 229 5 0 0 0 - - - 0;
#X msg 102 324 \$1 \$2 \$3;
#X obj 77 26 inlet note;
#X obj 363 114 receive \$0-midi-channel;
#X obj 363 135 receive \$0-midi-velocity;
#X obj 131 114 bng 19 250 50 0 empty empty empty 0 -10 0 12 #fcfcfc #000000 #000000;
#X floatatom 38 170 5 0 0 0 - - - 0;
#X floatatom 244 208 5 0 0 0 - - - 0;
#X floatatom 135 208 5 0 0 0 - - - 0;
#X msg 211 208 0;
#X obj 187 208 bng 19 250 50 0 empty empty empty 0 -10 0 12 #fcfcfc #000000 #000000;
#X obj 363 156 receive \$0-midi-port;
#X floatatom 244 269 5 0 0 0 - - - 0;
#X obj 102 294 spigot;
#X obj 198 47 sel 1 0;
#X obj 198 26 inlet toggle;
#X obj 391 47 unpack f f f;
#X obj 391 26 inlet mididata;
#X obj 363 249 receive \$0-note-message;
#X obj 363 271 unpack f t;
#X connect 0 0 16 0;
#X connect 2 0 3 0;
#X connect 3 0 0 0;
#X connect 4 0 1 0;
#X connect 5 0 11 0;
#X connect 6 0 9 0;
#X connect 7 0 10 0;
#X connect 8 0 0 0;
#X connect 8 0 10 0;
#X connect 8 0 9 0;
#X connect 8 0 11 0;
#X connect 8 0 16 1;
#X connect 9 0 2 0;
#X connect 10 0 0 2;
#X connect 11 0 0 1;
#X connect 12 0 0 2;
#X connect 12 0 13 0;
#X connect 13 0 0 0;
#X connect 13 0 16 1;
#X connect 14 0 15 0;
#X connect 15 0 1 1;
#X connect 16 0 4 0;
#X connect 17 0 8 0;
#X connect 17 1 12 0;
#X connect 18 0 17 0;
#X connect 19 0 9 0;
#X connect 19 1 10 0;
#X connect 19 2 15 0;
#X connect 20 0 19 0;
#X connect 21 0 22 0;
#X connect 22 0 11 0;
#X connect 22 1 17 0;
