#N canvas 643 321 559 503 12;
#X obj 114 11 loadbang;
#X obj 112 129 nbx 5 17 1 8 0 0 empty empty -\ OCTAVE\ + -5 -15 0 12 #fcfcfc #000000 #000000 0 256;
#X obj 112 187 t f f f;
#X obj 11 22 key;
#X floatatom 10 50 5 0 0 0 Hunt\ for\ - - - 0;
#X obj 10 110 f;
#X obj 10 134 - 1;
#X obj 240 21 key;
#X floatatom 240 45 5 0 0 1 Hunt\ for\ + - - 0;
#X obj 240 112 f;
#X obj 240 136 + 1;
#X obj 380 156 cnv 19 126 76 empty empty empty 20 12 0 12 #c6feff #404040 0;
#X obj 89 256 outlet;
#X obj 9 205 nbx 5 17 0 8 0 0 empty empty empty 0 -10 0 12 #fcfcfc #000000 #000000 0 256;
#X obj 150 256 send \$0-midi-octave;
#X obj 114 34 f \$1;
#X obj 114 59 f 4;
#X obj 10 73 sel 45;
#X obj 240 68 sel 61;
#X obj 239 198 nbx 5 17 0 8 0 0 empty empty empty 0 -10 0 12 #fcfcfc #000000 #000000 0 256;
#X obj 274 136 < 8;
#X obj 47 134 > 0;
#X connect 0 0 15 0;
#X connect 1 0 2 0;
#X connect 2 0 5 1;
#X connect 2 1 12 0;
#X connect 2 1 14 0;
#X connect 2 2 9 1;
#X connect 3 0 4 0;
#X connect 4 0 17 0;
#X connect 5 0 6 0;
#X connect 6 0 13 0;
#X connect 6 0 21 0;
#X connect 7 0 8 0;
#X connect 8 0 18 0;
#X connect 9 0 10 0;
#X connect 10 0 19 0;
#X connect 10 0 20 0;
#X connect 13 0 1 0;
#X connect 15 0 16 0;
#X connect 16 0 1 0;
#X connect 17 0 5 0;
#X connect 18 0 9 0;
#X connect 19 0 1 0;
#X connect 20 0 10 1;
#X connect 21 0 6 1;
#X coords 0 -1 1 1 85 60 2 100 100;
