#N canvas 984 0 926 1076 12;
#X obj 152 52 inlet major;
#X obj 248 53 inlet minor;
#X obj 341 55 inlet seventh;
#X floatatom 157 82 5 0 0 0 - - - 0;
#X floatatom 248 81 5 0 0 0 - - - 0;
#X floatatom 341 81 5 0 0 0 - - - 0;
#X obj 431 366 tgl 19 0 empty empty Aug 0 -10 0 12 #fcfcfc #000000 #000000 0 1;
#X obj 382 366 tgl 19 0 empty empty Min\ 7 0 -10 0 12 #fcfcfc #000000 #000000 0 1;
#X obj 333 366 tgl 19 0 empty empty Maj\ 7 0 -10 0 12 #fcfcfc #000000 #000000 0 1;
#X obj 285 366 tgl 19 0 empty empty Dim 0 -10 0 12 #fcfcfc #000000 #000000 0 1;
#X obj 236 366 tgl 19 0 empty empty Dim\ 7 0 -10 0 12 #fcfcfc #000000 #000000 0 1;
#X obj 189 366 tgl 19 0 empty empty minor 0 -10 0 12 #fcfcfc #000000 #000000 0 1;
#X obj 139 366 tgl 19 0 empty empty major 0 -10 0 12 #fcfcfc #000000 #000000 0 1;
#X obj 34 361 tgl 19 0 empty empty empty 0 -10 0 12 #fcfcfc #000000 #000000 0 1;
#X text 495 309 dom 7th is a major triad with a minor 7th half-dim chords are dim with minor 7th, f 42;
#X text 523 84 0 0 0 - Off;
#X text 523 112 1 0 0 = Major;
#X text 523 140 0 1 0 - Minor;
#X text 525 167 0 0 1 - Dim 7;
#X text 525 195 1 1 0 - Dim;
#X text 525 223 1 0 1 - Maj 7;
#X text 525 251 0 1 1 - Min 7;
#X text 527 276 1 1 1 - Aug;
#X msg 138 536 0;
#X msg 189 536 1;
#X msg 236 536 25;
#X msg 285 536 13;
#X msg 333 536 4;
#X msg 382 536 5;
#X msg 431 536 12;
#X text 415 605 these outlsets are meant for devstermarts' chordulator;
#X obj 21 55 inlet note;
#X floatatom 21 94 5 0 0 0 - - - 0;
#X obj 145 681 ../lib/devstermarts/various/chordculator;
#X obj 21 117 s \$0-note;
#X obj 52 495 r \$0-note;
#X floatatom 52 536 5 0 0 0 - - - 0;
#X floatatom 373 610 5 0 0 0 - - - 0;
#X obj 123 830 print Chosen Chord:;
#X obj 128 124 bng 19 250 50 0 empty empty empty 0 -10 0 12 #fcfcfc #000000 #000000;
#X obj 139 395 sel 1;
#X obj 189 395 sel 1;
#X obj 236 395 sel 1;
#X obj 285 395 sel 1;
#X obj 333 395 sel 1;
#X obj 382 395 sel 1;
#X obj 431 395 sel 1;
#X obj 258 139 pack f f f;
#X obj 58 400 sel 1;
#X obj 58 424 s \$0-off;
#X obj 91 193 expr if(($f1 == 0 && $f2 == 0 && $f3 == 0) \, 1 \, 0) \; if(($f1 == 1 && $f2 == 0 && $f3 == 0) \, 1 \, 0) \; if(($f1 == 0 && $f2 == 1 && $f3 == 0) \, 1 \, 0) \; if(($f1 == 0 && $f2 == 0 && $f3 == 1) \, 1 \, 0) \; if(($f1 == 1 && $f2 == 1 && $f3 == 0) \, 1 \, 0) \; if(($f1 == 1 && $f2 == 0 && $f3 == 1) \, 1 \, 0) \; if(($f1 == 0 && $f2 == 1 && $f3 == 1) \, 1 \, 0) \; if(($f1 == 1 && $f2 == 1 && $f3 == 1) \, 1 \, 0) \;;
#X obj 331 830 s \$0-chord-notes;
#X obj 273 830 outlet;
#X obj 490 830 outlet;
#X connect 0 0 3 0;
#X connect 0 0 47 0;
#X connect 0 0 39 0;
#X connect 1 0 4 0;
#X connect 1 0 47 1;
#X connect 1 0 39 0;
#X connect 2 0 5 0;
#X connect 2 0 47 2;
#X connect 2 0 39 0;
#X connect 6 0 46 0;
#X connect 6 0 53 0;
#X connect 7 0 45 0;
#X connect 7 0 53 0;
#X connect 8 0 44 0;
#X connect 8 0 53 0;
#X connect 9 0 43 0;
#X connect 9 0 53 0;
#X connect 10 0 42 0;
#X connect 10 0 53 0;
#X connect 11 0 41 0;
#X connect 11 0 53 0;
#X connect 12 0 40 0;
#X connect 12 0 53 0;
#X connect 13 0 48 0;
#X connect 23 0 37 0;
#X connect 24 0 37 0;
#X connect 25 0 37 0;
#X connect 26 0 37 0;
#X connect 27 0 37 0;
#X connect 28 0 37 0;
#X connect 29 0 37 0;
#X connect 31 0 32 0;
#X connect 32 0 34 0;
#X connect 33 0 38 0;
#X connect 33 0 52 0;
#X connect 33 0 51 0;
#X connect 35 0 36 0;
#X connect 36 0 33 0;
#X connect 37 0 33 1;
#X connect 39 0 47 0;
#X connect 40 0 23 0;
#X connect 40 0 36 0;
#X connect 41 0 24 0;
#X connect 41 0 36 0;
#X connect 42 0 25 0;
#X connect 42 0 36 0;
#X connect 43 0 26 0;
#X connect 43 0 36 0;
#X connect 44 0 27 0;
#X connect 44 0 36 0;
#X connect 45 0 28 0;
#X connect 45 0 36 0;
#X connect 46 0 29 0;
#X connect 47 0 50 0;
#X connect 48 0 49 0;
#X connect 50 0 13 0;
#X connect 50 1 12 0;
#X connect 50 2 11 0;
#X connect 50 3 10 0;
#X connect 50 4 9 0;
#X connect 50 5 8 0;
#X connect 50 6 7 0;
#X connect 50 7 6 0;
