#N canvas 192 192 1068 570 12;
#X obj 617 19 keyup;
#X obj 18 11 key, f 6;
#X msg 200 264 0;
#X obj 183 314 tgl 50 0 \$0-key-space empty space 0 -10 0 12 #fcfcfc #000000 #000000 0 1;
#X obj 18 85 sel;
#X obj 623 105 sel;
#X obj 97 11 loadbang;
#X obj 106 105 cnv 50 300 50 empty \$0-key-space-color Space\ /\ Sharp 80 12 0 18 #bcbcbc #404040 0;
#X obj 670 323 tgl 19 0 empty empty empty 0 -10 0 12 #fcfcfc #000000 #000000 0 1;
#X msg 312 351 color \$1 23;
#X msg 331 299 200;
#X floatatom 18 35 5 0 0 0 - - - 0;
#X obj 126 399 outlet;
#X msg 155 264 1;
#X msg 293 299 69;
#X obj 35 144 delay 10;
#X obj 29 211 spigot 1;
#X msg 35 168 0;
#X msg 608 193 1;
#X obj 623 129 t b b;
#X obj 18 109 t b b;
#X obj 327 264 loadbang;
#X obj 206 394 bng 19 250 50 0 empty empty empty 0 -10 0 12 #fcfcfc #000000 #000000;
#X msg 98 47 32;
#X obj 312 374 s \$0-key-space-color;
#X obj 652 283 r \$0-key-space;
#X obj 777 394 * 12;
#X floatatom 755 451 5 0 0 0 - - - 0;
#X obj 755 426 +;
#X obj 739 393 f;
#X obj 830 426 bang;
#X floatatom 774 341 5 0 0 0 - - - 0;
#X obj 772 283 r \$0-midi-channel;
#X text 585 261 you can use it to shift the base midi note like this:;
#X connect 0 0 5 0;
#X connect 1 0 11 0;
#X connect 2 0 3 0;
#X connect 2 0 10 0;
#X connect 3 0 12 0;
#X connect 3 0 22 0;
#X connect 4 0 20 0;
#X connect 5 0 19 0;
#X connect 6 0 23 0;
#X connect 8 0 29 0;
#X connect 9 0 24 0;
#X connect 10 0 9 0;
#X connect 11 0 4 0;
#X connect 13 0 3 0;
#X connect 13 0 14 0;
#X connect 14 0 9 0;
#X connect 15 0 17 0;
#X connect 16 0 13 0;
#X connect 17 0 16 1;
#X connect 18 0 16 1;
#X connect 19 0 18 0;
#X connect 19 1 2 0;
#X connect 20 0 16 0;
#X connect 20 1 15 0;
#X connect 21 0 10 0;
#X connect 23 0 4 1;
#X connect 23 0 5 1;
#X connect 25 0 8 0;
#X connect 26 0 28 1;
#X connect 26 0 30 0;
#X connect 28 0 27 0;
#X connect 29 0 28 0;
#X connect 30 0 28 0;
#X connect 31 0 26 0;
#X connect 32 0 31 0;
