#N canvas 1272 218 542 665 12;
#X obj 91 32 key;
#X obj 122 31 keyup;
#X obj 33 295 tabwrite array1;
#N canvas 0 50 450 250 (subpatch) 0;
#X array array1 200 float 5;
#A 0 0 0 0 0 0 0 0 0 0 0 0 0 0 0 0 0 0 0 0 0 0 0 0 0 0 0 0 0 0 0 0 0 0 0 0 0 0 0 1 0 0 0 0 0 0 0 0 0 0 0 0 0 0 0 0 0 0 0 0 1 0 0 0 0 0 0 0 0 0 0 0 0 0 1 0 0 0 0 0 0 0 0 0 0 0 0 0 0 0 0 0 0 0 0 0 0 0 0 0 0 0 0 0 0 0 0 0 0 0 0 0 0 0 0 0 0 0 0 0 0 0 0 0 0 0 0 0 0 0 0 0 0 0 0 0 0 0 0 0 0 0 0 0 0 0 0 0 0 0 0 0 0 0 0 0 0 0 0 0 0 0 0 0 0 0 0 0 0 0 0 0 0 0 0 0 0 0 0 0 0 0 0 0 0 0 0 0 0 0 0 0 0 0 0 0 0 0 0 0 0;
#X coords 0 1 199 -1 200 140 1;
#X restore 311 42 graph;
#N canvas 370 509 876 509 triad 0;
#N canvas 128 128 450 300 major 0;
#X obj 99 50 inlet;
#X floatatom 100 127 5 0 0 0 - - - 0;
#X obj 151 93 + 4;
#X obj 209 94 + 7;
#X floatatom 153 127 5 0 0 0 - - - 0;
#X floatatom 207 128 5 0 0 0 - - - 0;
#X obj 100 171 outlet;
#X obj 153 170 outlet;
#X obj 207 170 outlet;
#X connect 0 0 1 0;
#X connect 0 0 2 0;
#X connect 0 0 3 0;
#X connect 1 0 6 0;
#X connect 2 0 4 0;
#X connect 3 0 5 0;
#X connect 4 0 7 0;
#X connect 5 0 8 0;
#X restore 507 30 pd major;
#N canvas 160 160 450 300 minor 0;
#X obj 122 61 inlet;
#X floatatom 123 138 5 0 0 0 - - - 0;
#X obj 232 105 + 7;
#X floatatom 176 138 5 0 0 0 - - - 0;
#X floatatom 230 139 5 0 0 0 - - - 0;
#X obj 123 182 outlet;
#X obj 176 181 outlet;
#X obj 230 181 outlet;
#X obj 174 104 + 3;
#X connect 0 0 1 0;
#X connect 0 0 2 0;
#X connect 0 0 8 0;
#X connect 1 0 5 0;
#X connect 2 0 4 0;
#X connect 3 0 6 0;
#X connect 4 0 7 0;
#X connect 8 0 3 0;
#X restore 495 92 pd minor;
#N canvas 192 192 450 300 maj7th 0;
#X obj 229 53 inlet;
#X floatatom 236 136 5 0 0 0 - - - 0;
#X obj 236 178 outlet;
#X obj 238 102 + 11;
#X connect 0 0 3 0;
#X connect 1 0 2 0;
#X connect 3 0 1 0;
#X restore 591 27 pd maj7th;
#N canvas 224 224 450 300 min7th 0;
#X obj 229 53 inlet;
#X floatatom 236 136 5 0 0 0 - - - 0;
#X obj 236 178 outlet;
#X obj 238 102 + 10;
#X connect 0 0 3 0;
#X connect 1 0 2 0;
#X connect 3 0 1 0;
#X restore 608 92 pd min7th;
#N canvas 256 256 450 300 dim7th 0;
#X obj 99 50 inlet;
#X floatatom 100 127 5 0 0 0 - - - 0;
#X floatatom 153 127 5 0 0 0 - - - 0;
#X floatatom 207 128 5 0 0 0 - - - 0;
#X obj 100 171 outlet;
#X obj 153 170 outlet;
#X obj 207 170 outlet;
#X floatatom 267 133 5 0 0 0 - - - 0;
#X obj 267 175 outlet;
#X obj 151 93 + 3;
#X obj 209 94 + 6;
#X obj 269 99 + 9;
#X connect 0 0 1 0;
#X connect 0 0 9 0;
#X connect 0 0 10 0;
#X connect 0 0 11 0;
#X connect 1 0 4 0;
#X connect 2 0 5 0;
#X connect 3 0 6 0;
#X connect 7 0 8 0;
#X connect 9 0 2 0;
#X connect 10 0 3 0;
#X connect 11 0 7 0;
#X restore 500 214 pd dim7th;
#N canvas 32 32 450 300 dim 0;
#X obj 122 61 inlet;
#X floatatom 123 138 5 0 0 0 - - - 0;
#X floatatom 176 138 5 0 0 0 - - - 0;
#X floatatom 230 139 5 0 0 0 - - - 0;
#X obj 123 182 outlet;
#X obj 176 181 outlet;
#X obj 230 181 outlet;
#X obj 174 104 + 3;
#X obj 232 105 + 6;
#X connect 0 0 1 0;
#X connect 0 0 7 0;
#X connect 0 0 8 0;
#X connect 1 0 4 0;
#X connect 2 0 5 0;
#X connect 3 0 6 0;
#X connect 7 0 2 0;
#X connect 8 0 3 0;
#X restore 518 162 pd dim;
#N canvas 32 32 450 300 aug 0;
#X obj 99 50 inlet;
#X floatatom 100 127 5 0 0 0 - - - 0;
#X floatatom 153 127 5 0 0 0 - - - 0;
#X floatatom 207 128 5 0 0 0 - - - 0;
#X obj 100 171 outlet;
#X obj 153 170 outlet;
#X obj 207 170 outlet;
#X obj 151 93 + 4;
#X obj 209 94 + 8;
#X connect 0 0 1 0;
#X connect 0 0 7 0;
#X connect 0 0 8 0;
#X connect 1 0 4 0;
#X connect 2 0 5 0;
#X connect 3 0 6 0;
#X connect 7 0 2 0;
#X connect 8 0 3 0;
#X restore 596 157 pd aug;
#X text 55 445 dom 7th is a major triad with a minor 7th half-dim chords are dim with minor 7th;
#X floatatom 26 80 5 0 0 0 Root\ Note - - 0;
#X obj 475 357 noteout;
#X obj 25 23 inlet note;
#X obj 133 24 inlet major;
#X obj 224 23 inlet minor;
#X obj 317 23 inlet seventh;
#X obj 176 65 &&;
#X obj 279 67 &&;
#X obj 151 114 ||;
#X obj 246 109 ||;
#X obj 158 209 key;
#X floatatom 102 235 5 0 0 0 - - - 0;
#X obj 158 233 sel 113 97 112;
#X obj 172 290 &&;
#X obj 216 290 &&;
#X obj 155 334 pack f f f f f;
#X listbox 155 374 20 0 0 0 - - - 0;
#X connect 10 0 8 0;
#X connect 11 0 14 0;
#X connect 11 0 16 0;
#X connect 12 0 14 1;
#X connect 12 0 15 0;
#X connect 12 0 17 0;
#X connect 13 0 15 1;
#X connect 14 0 16 1;
#X connect 15 0 17 1;
#X connect 18 0 19 0;
#X connect 18 0 20 0;
#X connect 20 0 21 0;
#X connect 20 0 23 0;
#X connect 20 1 21 1;
#X connect 20 1 22 0;
#X connect 20 1 23 2;
#X connect 20 2 22 1;
#X connect 20 2 23 4;
#X connect 21 0 23 1;
#X connect 22 0 23 3;
#X connect 23 0 24 0;
#X restore 44 398 pd triad;
#X listbox 73 205 20 0 0 0 - - - 0;
#X obj 30 120 tgl 19 0 empty empty empty 0 -10 0 12 #fcfcfc #000000 #000000 0 1;
#X obj 25 33 keyname;
#X obj 72 163 pack symbol float float;
#N canvas 667 298 1006 508 keyboard 0;
#N canvas 1387 199 450 458 key 1;
#X obj 202 11 keyup;
#X obj 18 11 key, f 6;
#X msg 200 264 0;
#X obj 183 314 tgl 50 0 \$0-key-q empty q 0 -10 0 12 #fcfcfc #000000 #000000 0 1;
#X msg 98 47 113;
#X obj 18 85 sel;
#X obj 208 97 sel;
#X obj 97 11 loadbang;
#X obj 118 109 cnv 50 50 50 empty \$0-key-q-color q 20 12 0 12 #bcbcbc #404040 0;
#X obj 312 375 s \$0-key-q-color;
#X obj 26 371 tgl 19 0 empty empty empty 0 -10 0 12 #fcfcfc #000000 #000000 0 1;
#X obj 19 339 r \$0-key-q;
#X msg 312 351 color \$1 23;
#X msg 331 299 200;
#X floatatom 18 35 5 0 0 0 - - - 0;
#X obj 126 399 outlet;
#X msg 155 264 1;
#X msg 293 299 69;
#X obj 35 144 delay 10;
#X obj 29 211 spigot 1;
#X msg 35 168 0;
#X msg 193 185 1;
#X obj 208 121 t b b;
#X obj 18 109 t b b;
#X obj 327 264 loadbang;
#X obj 206 394 bng 19 250 50 0 empty empty empty 0 -10 0 12 #fcfcfc #000000 #000000;
#X connect 0 0 6 0;
#X connect 1 0 14 0;
#X connect 2 0 3 0;
#X connect 2 0 13 0;
#X connect 3 0 15 0;
#X connect 3 0 25 0;
#X connect 4 0 5 1;
#X connect 4 0 6 1;
#X connect 5 0 23 0;
#X connect 6 0 22 0;
#X connect 7 0 4 0;
#X connect 11 0 10 0;
#X connect 12 0 9 0;
#X connect 13 0 12 0;
#X connect 14 0 5 0;
#X connect 16 0 3 0;
#X connect 16 0 17 0;
#X connect 17 0 12 0;
#X connect 18 0 20 0;
#X connect 19 0 16 0;
#X connect 20 0 19 1;
#X connect 21 0 19 1;
#X connect 22 0 21 0;
#X connect 22 1 2 0;
#X connect 23 0 19 0;
#X connect 23 1 18 0;
#X connect 24 0 13 0;
#X coords 0 -1 1 1 85 60 2 100 100;
#X restore 100 103 pd key;
#X obj 479 87 r \$0-octave;
#X floatatom 479 111 5 0 0 0 - - - 0;
#X obj 479 134 * 12;
#X floatatom 479 158 5 0 0 0 - - - 0;
#N canvas 1092 498 450 300 key 0;
#X obj 278 35 keyup;
#X obj 195 34 key, f 6;
#X msg 262 131 0;
#X obj 108 194 tgl 50 0 \$0-key-a empty a 0 -10 0 12 #fcfcfc #000000 #000000 0 1;
#X obj 195 81 sel;
#X obj 278 82 sel;
#X obj 244 10 loadbang;
#X obj 118 107 cnv 50 50 50 empty \$0-key-a-color a 20 12 0 12 #bcbcbc #404040 0;
#X obj 8 234 tgl 19 0 empty empty empty 0 -10 0 12 #fcfcfc #000000 #000000 0 1;
#X msg 240 182 color \$1 23;
#X msg 315 147 200;
#X floatatom 137 61 5 0 0 0 - - - 0;
#X floatatom 341 67 5 0 0 0 - - - 0;
#X msg 244 57 97;
#X obj 11 203 r \$0-key-a;
#X obj 240 206 s \$0-key-a-color;
#X obj 108 260 outlet;
#X msg 217 131 1;
#X msg 184 187 69;
#X obj 210 106 change;
#X connect 0 0 5 0;
#X connect 0 0 12 0;
#X connect 1 0 4 0;
#X connect 1 0 11 0;
#X connect 1 0 13 0;
#X connect 2 0 3 0;
#X connect 2 0 10 0;
#X connect 3 0 16 0;
#X connect 4 0 19 0;
#X connect 5 0 2 0;
#X connect 6 0 13 0;
#X connect 6 0 10 0;
#X connect 9 0 15 0;
#X connect 10 0 9 0;
#X connect 13 0 4 1;
#X connect 13 0 5 1;
#X connect 14 0 8 0;
#X connect 17 0 3 0;
#X connect 17 0 9 0;
#X connect 17 0 18 0;
#X connect 18 0 9 0;
#X connect 19 0 17 0;
#X coords 0 -1 1 1 85 60 2 100 100;
#X restore 130 169 pd key;
#N canvas 1387 357 450 300 key 0;
#X obj 278 35 keyup;
#X obj 195 34 key, f 6;
#X msg 262 131 0;
#X obj 108 194 tgl 50 0 \$0-key-z empty z 0 -10 0 12 #fcfcfc #000000 #000000 0 1;
#X obj 195 81 sel;
#X obj 278 82 sel;
#X obj 244 10 loadbang;
#X obj 118 107 cnv 50 50 50 empty \$0-key-z-color z 20 12 0 12 #bcbcbc #404040 0;
#X obj 8 234 tgl 19 0 empty empty empty 0 -10 0 12 #fcfcfc #000000 #000000 0 1;
#X msg 240 182 color \$1 23;
#X msg 315 147 200;
#X obj 11 203 r \$0-key-z;
#X obj 240 206 s \$0-key-z-color;
#X floatatom 145 61 5 0 0 0 - - - 0;
#X msg 244 57 122;
#X obj 108 260 outlet;
#X msg 217 131 1;
#X msg 183 184 69;
#X obj 195 105 change;
#X connect 0 0 5 0;
#X connect 1 0 4 0;
#X connect 1 0 13 0;
#X connect 1 0 14 0;
#X connect 2 0 3 0;
#X connect 2 0 10 0;
#X connect 3 0 15 0;
#X connect 4 0 18 0;
#X connect 5 0 2 0;
#X connect 6 0 14 0;
#X connect 6 0 10 0;
#X connect 9 0 12 0;
#X connect 10 0 9 0;
#X connect 11 0 8 0;
#X connect 14 0 4 1;
#X connect 14 0 5 1;
#X connect 16 0 3 0;
#X connect 16 0 9 0;
#X connect 16 0 17 0;
#X connect 17 0 9 0;
#X connect 18 0 16 0;
#X coords 0 -1 1 1 85 60 2 100 100;
#X restore 163 238 pd key;
#X obj 76 67 cnv 300 200 300 empty empty empty 20 12 0 12 #e0e0e0 #404040 0;
#X obj 21 300 bng 19 250 50 0 empty empty empty 0 -10 0 12 #fcfcfc #000000 #000000;
#N canvas 32 32 883 562 triad 0;
#N canvas 128 128 450 300 major 0;
#X obj 99 50 inlet;
#X floatatom 100 127 5 0 0 0 - - - 0;
#X obj 151 93 + 4;
#X obj 209 94 + 7;
#X floatatom 153 127 5 0 0 0 - - - 0;
#X floatatom 207 128 5 0 0 0 - - - 0;
#X obj 100 171 outlet;
#X obj 153 170 outlet;
#X obj 207 170 outlet;
#X connect 0 0 1 0;
#X connect 0 0 2 0;
#X connect 0 0 3 0;
#X connect 1 0 6 0;
#X connect 2 0 4 0;
#X connect 3 0 5 0;
#X connect 4 0 7 0;
#X connect 5 0 8 0;
#X restore 580 33 pd major;
#N canvas 160 160 450 300 minor 0;
#X obj 122 61 inlet;
#X floatatom 123 138 5 0 0 0 - - - 0;
#X obj 232 105 + 7;
#X floatatom 176 138 5 0 0 0 - - - 0;
#X floatatom 230 139 5 0 0 0 - - - 0;
#X obj 123 182 outlet;
#X obj 176 181 outlet;
#X obj 230 181 outlet;
#X obj 174 104 + 3;
#X connect 0 0 1 0;
#X connect 0 0 2 0;
#X connect 0 0 8 0;
#X connect 1 0 5 0;
#X connect 2 0 4 0;
#X connect 3 0 6 0;
#X connect 4 0 7 0;
#X connect 8 0 3 0;
#X restore 568 95 pd minor;
#N canvas 192 192 450 300 maj7th 0;
#X obj 229 53 inlet;
#X floatatom 236 136 5 0 0 0 - - - 0;
#X obj 236 178 outlet;
#X obj 238 102 + 11;
#X connect 0 0 3 0;
#X connect 1 0 2 0;
#X connect 3 0 1 0;
#X restore 664 30 pd maj7th;
#N canvas 224 224 450 300 min7th 0;
#X obj 229 53 inlet;
#X floatatom 236 136 5 0 0 0 - - - 0;
#X obj 236 178 outlet;
#X obj 238 102 + 10;
#X connect 0 0 3 0;
#X connect 1 0 2 0;
#X connect 3 0 1 0;
#X restore 681 95 pd min7th;
#N canvas 256 256 450 300 dim7th 0;
#X obj 99 50 inlet;
#X floatatom 100 127 5 0 0 0 - - - 0;
#X floatatom 153 127 5 0 0 0 - - - 0;
#X floatatom 207 128 5 0 0 0 - - - 0;
#X obj 100 171 outlet;
#X obj 153 170 outlet;
#X obj 207 170 outlet;
#X floatatom 267 133 5 0 0 0 - - - 0;
#X obj 267 175 outlet;
#X obj 151 93 + 3;
#X obj 209 94 + 6;
#X obj 269 99 + 9;
#X connect 0 0 1 0;
#X connect 0 0 9 0;
#X connect 0 0 10 0;
#X connect 0 0 11 0;
#X connect 1 0 4 0;
#X connect 2 0 5 0;
#X connect 3 0 6 0;
#X connect 7 0 8 0;
#X connect 9 0 2 0;
#X connect 10 0 3 0;
#X connect 11 0 7 0;
#X restore 573 217 pd dim7th;
#N canvas 32 32 450 300 dim 0;
#X obj 122 61 inlet;
#X floatatom 123 138 5 0 0 0 - - - 0;
#X floatatom 176 138 5 0 0 0 - - - 0;
#X floatatom 230 139 5 0 0 0 - - - 0;
#X obj 123 182 outlet;
#X obj 176 181 outlet;
#X obj 230 181 outlet;
#X obj 174 104 + 3;
#X obj 232 105 + 6;
#X connect 0 0 1 0;
#X connect 0 0 7 0;
#X connect 0 0 8 0;
#X connect 1 0 4 0;
#X connect 2 0 5 0;
#X connect 3 0 6 0;
#X connect 7 0 2 0;
#X connect 8 0 3 0;
#X restore 591 165 pd dim;
#N canvas 32 32 450 300 aug 0;
#X obj 99 50 inlet;
#X floatatom 100 127 5 0 0 0 - - - 0;
#X floatatom 153 127 5 0 0 0 - - - 0;
#X floatatom 207 128 5 0 0 0 - - - 0;
#X obj 100 171 outlet;
#X obj 153 170 outlet;
#X obj 207 170 outlet;
#X obj 151 93 + 4;
#X obj 209 94 + 8;
#X connect 0 0 1 0;
#X connect 0 0 7 0;
#X connect 0 0 8 0;
#X connect 1 0 4 0;
#X connect 2 0 5 0;
#X connect 3 0 6 0;
#X connect 7 0 2 0;
#X connect 8 0 3 0;
#X restore 669 160 pd aug;
#X floatatom 73 74 5 0 0 3 Root\ Note - - 0;
#X obj 566 404 noteout;
#X obj 73 28 inlet note;
#X obj 206 28 inlet major;
#X obj 297 28 inlet minor;
#X obj 390 28 inlet seventh;
#X text 691 219 0 0 0 - Off 1 0 0 = Major 0 1 0 - Minor 0 0 1 - Dim 7 1 1 0 - Dim 1 0 1 - Maj 7 0 1 1 - Min 7 1 1 1 - Aug;
#X obj 215 70 bng 19 250 50 0 empty empty empty 0 -10 0 12 #fcfcfc #000000 #000000;
#X floatatom 248 70 5 0 0 0 - - - 0;
#X floatatom 339 70 5 0 0 0 - - - 0;
#X floatatom 432 70 5 0 0 0 - - - 0;
#X obj 169 282 bng 19 250 50 0 empty empty Off 0 30 0 12 #fcfcfc #000000 #000000;
#X obj 217 282 bng 19 250 50 0 empty empty Major 0 30 0 12 #fcfcfc #000000 #000000;
#X obj 267 282 bng 19 250 50 0 empty empty Minor 0 30 0 12 #fcfcfc #000000 #000000;
#X obj 314 281 bng 19 250 50 0 empty empty Dim\ 7 0 30 0 12 #fcfcfc #000000 #000000;
#X obj 363 281 bng 19 250 50 0 empty empty Dim 0 30 0 12 #fcfcfc #000000 #000000;
#X obj 411 281 bng 19 250 50 0 empty empty Maj\ 7 0 30 0 12 #fcfcfc #000000 #000000;
#X obj 460 280 bng 19 250 50 0 empty empty Min\ 7 0 30 0 12 #fcfcfc #000000 #000000;
#X obj 509 280 bng 19 250 50 0 empty empty Aug 0 30 0 12 #fcfcfc #000000 #000000;
#X text 553 344 dom 7th is a major triad with a minor 7th half-dim chords are dim with minor 7th;
#X obj 169 133 expr if(($i1 == 0 && $i2 == 0 && $i3 == 0) \, 1 \, 0) \; if(($i1 == 1 && $i2 == 0 && $i3 == 0) \, 1 \, 0) \; if(($i1 == 0 && $i2 == 1 && $i3 == 0) \, 1 \, 0) \; if(($i1 == 0 && $i2 == 0 && $i3 == 1) \, 1 \, 0) \; if(($i1 == 1 && $i2 == 1 && $i3 == 0) \, 1 \, 0) \; if(($i1 == 1 && $i2 == 0 && $i3 == 1) \, 1 \, 0) \; if(($i1 == 0 && $i2 == 1 && $i3 == 1) \, 1 \, 0) \; if(($i1 == 1 && $i2 == 1 && $i3 == 1) \, 1 \, 0) \;;
#X obj 248 93 change;
#X obj 339 93 change;
#X obj 432 93 change;
#X connect 9 0 7 0;
#X connect 10 0 15 0;
#X connect 10 0 14 0;
#X connect 11 0 16 0;
#X connect 11 0 14 0;
#X connect 12 0 17 0;
#X connect 12 0 14 0;
#X connect 14 0 27 0;
#X connect 15 0 28 0;
#X connect 16 0 29 0;
#X connect 17 0 30 0;
#X connect 27 0 18 0;
#X connect 27 1 19 0;
#X connect 27 2 20 0;
#X connect 27 3 21 0;
#X connect 27 4 22 0;
#X connect 27 5 23 0;
#X connect 27 6 24 0;
#X connect 27 7 25 0;
#X connect 28 0 27 0;
#X connect 29 0 27 1;
#X connect 30 0 27 2;
#X restore 80 487 pd triad;
#X floatatom 25 400 5 0 0 2 QAZ\ Note - - 0;
#N canvas 6 203 552 424 oct-select 0;
#X obj 213 134 loadbang;
#X msg 213 158 4;
#X obj 213 223 nbx 5 17 -1e+37 1e+37 0 0 empty empty OCTAVE 0 -10 0 12 #fcfcfc #000000 #000000 0 256;
#X obj 213 280 t f f f;
#X obj 236 342 s \$0-octave;
#X obj 86 74 key;
#X floatatom 85 102 5 0 0 0 Hunt\ for\ O - - 0;
#X obj 85 162 f;
#X obj 85 186 - 1;
#X floatatom 85 229 5 0 0 0 - - - 0;
#X obj 342 59 key;
#X floatatom 342 83 5 0 0 1 Hunt\ for\ P - - 0;
#X obj 342 150 f;
#X obj 342 174 + 1;
#X floatatom 342 215 5 0 0 0 - - - 0;
#X obj 85 125 sel 111;
#X obj 342 106 sel 112;
#X obj 339 272 cnv 19 126 76 empty empty empty 20 12 0 12 #e0e0e0 #404040 0;
#X text 213 239 o- p+;
#X connect 0 0 1 0;
#X connect 1 0 2 0;
#X connect 2 0 3 0;
#X connect 3 0 7 1;
#X connect 3 1 4 0;
#X connect 3 2 12 1;
#X connect 5 0 6 0;
#X connect 6 0 15 0;
#X connect 7 0 8 0;
#X connect 8 0 9 0;
#X connect 9 0 2 0;
#X connect 10 0 11 0;
#X connect 11 0 16 0;
#X connect 12 0 13 0;
#X connect 13 0 14 0;
#X connect 14 0 2 0;
#X connect 15 0 7 0;
#X connect 16 0 12 0;
#X coords 0 -1 1 1 85 60 2 200 200;
#X restore 683 154 pd oct-select;
#X connect 0 0 8 0;
#X connect 0 0 9 1;
#X connect 1 0 2 0;
#X connect 2 0 3 0;
#X connect 3 0 4 0;
#X connect 5 0 8 0;
#X connect 5 0 9 2;
#X connect 6 0 8 0;
#X connect 6 0 9 3;
#X connect 8 0 10 0;
#X connect 10 0 9 0;
#X coords 0 -1 1 1 150 200 2 100 100;
#X restore 328 250 pd keyboard;
#X obj 158 296 array get array1;
#X listbox 157 329 20 0 0 0 - - - 0;
#X connect 0 0 2 1;
#X connect 0 0 8 2;
#X connect 1 0 2 1;
#X connect 6 0 2 0;
#X connect 6 0 10 0;
#X connect 7 0 6 0;
#X connect 7 0 8 1;
#X connect 7 1 8 0;
#X connect 8 0 5 0;
#X connect 10 0 11 0;
