#N canvas 526 460 712 299 12;
#N canvas 117 0 1155 1076 keyboard 1;
#N canvas 409 163 507 902 key 0;
#X obj 202 11 keyup;
#X obj 18 11 key, f 6;
#X msg 200 264 0;
#X obj 183 314 tgl 50 0 \$0-key-q empty q 0 -10 0 12 #fcfcfc #000000 #000000 0 1;
#X msg 98 47 113;
#X obj 18 85 sel;
#X obj 208 97 sel;
#X obj 97 11 loadbang;
#X obj 106 105 cnv 50 50 50 empty \$0-key-q-color q 20 12 0 12 #bcbcbc #404040 0;
#X obj 312 375 s \$0-key-q-color;
#X obj 26 371 tgl 19 0 empty empty empty 0 -10 0 12 #fcfcfc #000000 #000000 0 1;
#X obj 19 339 r \$0-key-q;
#X msg 312 351 color \$1 23;
#X msg 331 299 200;
#X floatatom 18 35 5 0 0 0 - - - 0;
#X msg 155 264 1;
#X msg 293 299 69;
#X obj 35 144 delay 10;
#X obj 29 211 spigot 1;
#X msg 35 168 0;
#X msg 193 185 1;
#X obj 208 121 t b b;
#X obj 18 109 t b b;
#X obj 327 264 loadbang;
#X obj 143 719 pack f f f;
#X obj 174 774 midiout;
#X obj 112 658 + 143;
#X floatatom 112 685 5 0 0 0 - - - 0;
#X msg 143 743 \$1 \$2 \$3;
#X obj 118 476 inlet note;
#X obj 46 559 receive \$0-midi-channel;
#X obj 285 638 receive \$0-midi-velocity;
#X obj 226 566 bng 19 250 50 0 empty empty empty 0 -10 0 12 #fcfcfc #000000 #000000;
#X floatatom 79 620 5 0 0 0 - - - 0;
#X floatatom 285 662 5 0 0 0 - - - 0;
#X floatatom 176 643 5 0 0 0 - - - 0;
#X obj 244 476 sel 1 0;
#X msg 228 645 0;
#X obj 228 669 bng 19 250 50 0 empty empty empty 0 -10 0 12 #fcfcfc #000000 #000000;
#X obj 284 710 receive \$0-midi-port;
#X floatatom 284 734 5 0 0 0 - - - 0;
#X connect 0 0 6 0;
#X connect 1 0 14 0;
#X connect 2 0 3 0;
#X connect 2 0 13 0;
#X connect 3 0 36 0;
#X connect 4 0 5 1;
#X connect 4 0 6 1;
#X connect 5 0 22 0;
#X connect 6 0 21 0;
#X connect 7 0 4 0;
#X connect 11 0 10 0;
#X connect 12 0 9 0;
#X connect 13 0 12 0;
#X connect 14 0 5 0;
#X connect 15 0 3 0;
#X connect 15 0 16 0;
#X connect 16 0 12 0;
#X connect 17 0 19 0;
#X connect 18 0 15 0;
#X connect 19 0 18 1;
#X connect 20 0 18 1;
#X connect 21 0 20 0;
#X connect 21 1 2 0;
#X connect 22 0 18 0;
#X connect 22 1 17 0;
#X connect 23 0 13 0;
#X connect 24 0 28 0;
#X connect 26 0 27 0;
#X connect 27 0 24 0;
#X connect 28 0 25 0;
#X connect 29 0 32 0;
#X connect 29 0 35 0;
#X connect 30 0 33 0;
#X connect 31 0 34 0;
#X connect 32 0 24 0;
#X connect 32 0 34 0;
#X connect 32 0 33 0;
#X connect 32 0 35 0;
#X connect 33 0 26 0;
#X connect 34 0 24 2;
#X connect 35 0 24 1;
#X connect 36 0 32 0;
#X connect 36 1 37 0;
#X connect 37 0 24 2;
#X connect 37 0 38 0;
#X connect 38 0 24 0;
#X connect 39 0 40 0;
#X connect 40 0 25 1;
#X coords 0 -1 1 1 60 60 2 100 100;
#X restore 125 465 pd key;
#X obj 71 857 cnv 300 800 300 empty empty empty 20 12 0 12 #e0e0e0 #404040 0;
#N canvas 0 423 552 424 oct-select 0;
#X obj 213 134 loadbang;
#X msg 213 158 4;
#X obj 213 223 nbx 5 17 1 8 0 0 empty empty OCTAVE 0 -10 0 12 #fcfcfc #000000 #000000 0 256;
#X obj 212 288 t f f f;
#X obj 86 74 key;
#X floatatom 85 102 5 0 0 0 Hunt\ for\ O - - 0;
#X obj 85 162 f;
#X obj 85 186 - 1;
#X obj 342 59 key;
#X floatatom 342 83 5 0 0 1 Hunt\ for\ P - - 0;
#X obj 342 150 f;
#X obj 342 174 + 1;
#X obj 85 125 sel 111;
#X obj 342 106 sel 112;
#X obj 177 31 cnv 19 126 76 empty empty empty 20 12 0 12 #e0e0e0 #404040 0;
#X obj 228 384 outlet;
#X text 211 239 o-;
#X text 257 240 +p;
#X obj 342 215 nbx 5 17 0 16 0 0 empty empty empty 0 -10 0 12 #fcfcfc #000000 #000000 0 256;
#X obj 85 229 nbx 5 17 0 16 0 0 empty empty empty 0 -10 0 12 #fcfcfc #000000 #000000 0 256;
#X connect 0 0 1 0;
#X connect 1 0 2 0;
#X connect 2 0 3 0;
#X connect 3 0 6 1;
#X connect 3 1 15 0;
#X connect 3 2 10 1;
#X connect 4 0 5 0;
#X connect 5 0 12 0;
#X connect 6 0 7 0;
#X connect 7 0 19 0;
#X connect 8 0 9 0;
#X connect 9 0 13 0;
#X connect 10 0 11 0;
#X connect 11 0 18 0;
#X connect 12 0 6 0;
#X connect 13 0 10 0;
#X connect 18 0 2 0;
#X connect 19 0 2 0;
#X coords 0 -1 1 1 85 60 2 200 200;
#X restore 615 453 pd oct-select;
#N canvas 0 64 1920 1086 key 0;
#X obj 202 11 keyup;
#X obj 18 11 key, f 6;
#X msg 200 264 0;
#X obj 183 314 tgl 50 0 \$0-key-z empty z 0 -10 0 12 #fcfcfc #000000 #000000 0 1;
#X obj 18 85 sel;
#X obj 208 97 sel;
#X obj 97 11 loadbang;
#X obj 105 105 cnv 50 50 50 empty \$0-key-z-color z 20 12 0 12 #bcbcbc #404040 0;
#X obj 26 371 tgl 19 0 empty empty empty 0 -10 0 12 #fcfcfc #000000 #000000 0 1;
#X msg 312 351 color \$1 23;
#X msg 331 299 200;
#X floatatom 18 35 5 0 0 0 - - - 0;
#X msg 155 264 1;
#X msg 293 299 69;
#X obj 35 144 delay 10;
#X obj 29 211 spigot 1;
#X msg 35 168 0;
#X msg 193 185 1;
#X obj 208 121 t b b;
#X obj 18 109 t b b;
#X obj 327 264 loadbang;
#X obj 19 339 r \$0-key-z;
#X obj 312 375 s \$0-key-z-color;
#X msg 98 47 122;
#X obj 143 719 pack f f f;
#X obj 174 774 midiout;
#X obj 112 658 + 143;
#X floatatom 112 685 5 0 0 0 - - - 0;
#X msg 143 743 \$1 \$2 \$3;
#X obj 118 476 inlet note;
#X obj 46 559 receive \$0-midi-channel;
#X obj 285 638 receive \$0-midi-velocity;
#X obj 226 566 bng 19 250 50 0 empty empty empty 0 -10 0 12 #fcfcfc #000000 #000000;
#X floatatom 79 620 5 0 0 0 - - - 0;
#X floatatom 285 662 5 0 0 0 - - - 0;
#X floatatom 176 643 5 0 0 0 - - - 0;
#X obj 244 476 sel 1 0;
#X msg 228 645 0;
#X obj 228 669 bng 19 250 50 0 empty empty empty 0 -10 0 12 #fcfcfc #000000 #000000;
#X obj 284 710 receive \$0-midi-port;
#X floatatom 284 734 5 0 0 0 - - - 0;
#X connect 0 0 5 0;
#X connect 1 0 11 0;
#X connect 2 0 3 0;
#X connect 2 0 10 0;
#X connect 3 0 36 0;
#X connect 4 0 19 0;
#X connect 5 0 18 0;
#X connect 6 0 23 0;
#X connect 9 0 22 0;
#X connect 10 0 9 0;
#X connect 11 0 4 0;
#X connect 12 0 3 0;
#X connect 12 0 13 0;
#X connect 13 0 9 0;
#X connect 14 0 16 0;
#X connect 15 0 12 0;
#X connect 16 0 15 1;
#X connect 17 0 15 1;
#X connect 18 0 17 0;
#X connect 18 1 2 0;
#X connect 19 0 15 0;
#X connect 19 1 14 0;
#X connect 20 0 10 0;
#X connect 21 0 8 0;
#X connect 23 0 4 1;
#X connect 23 0 5 1;
#X connect 24 0 28 0;
#X connect 26 0 27 0;
#X connect 27 0 24 0;
#X connect 28 0 25 0;
#X connect 29 0 32 0;
#X connect 29 0 35 0;
#X connect 30 0 33 0;
#X connect 31 0 34 0;
#X connect 32 0 24 0;
#X connect 32 0 34 0;
#X connect 32 0 33 0;
#X connect 32 0 35 0;
#X connect 33 0 26 0;
#X connect 34 0 24 2;
#X connect 35 0 24 1;
#X connect 36 0 32 0;
#X connect 36 1 37 0;
#X connect 37 0 24 2;
#X connect 37 0 38 0;
#X connect 38 0 24 0;
#X connect 39 0 40 0;
#X connect 40 0 25 1;
#X coords 0 -1 1 1 60 60 2 100 100;
#X restore 188 587 pd key;
#N canvas 0 0 450 1076 key 0;
#X obj 202 11 keyup;
#X obj 18 11 key, f 6;
#X msg 200 264 0;
#X obj 183 314 tgl 50 0 \$0-key-w empty w 0 -10 0 12 #fcfcfc #000000 #000000 0 1;
#X obj 18 85 sel;
#X obj 208 97 sel;
#X obj 97 11 loadbang;
#X obj 105 105 cnv 50 50 50 empty \$0-key-w-color w 20 12 0 12 #bcbcbc #404040 0;
#X obj 26 371 tgl 19 0 empty empty empty 0 -10 0 12 #fcfcfc #000000 #000000 0 1;
#X msg 312 351 color \$1 23;
#X msg 331 299 200;
#X floatatom 18 35 5 0 0 0 - - - 0;
#X msg 155 264 1;
#X msg 293 299 69;
#X obj 35 144 delay 10;
#X obj 29 211 spigot 1;
#X msg 35 168 0;
#X msg 193 185 1;
#X obj 208 121 t b b;
#X obj 18 109 t b b;
#X obj 327 264 loadbang;
#X obj 312 375 s \$0-key-w-color;
#X obj 19 339 r \$0-key-w;
#X msg 98 47 119;
#X obj 143 719 pack f f f;
#X obj 174 774 midiout;
#X obj 112 658 + 143;
#X floatatom 112 685 5 0 0 0 - - - 0;
#X msg 143 743 \$1 \$2 \$3;
#X obj 118 476 inlet note;
#X obj 46 559 receive \$0-midi-channel;
#X obj 285 638 receive \$0-midi-velocity;
#X obj 226 566 bng 19 250 50 0 empty empty empty 0 -10 0 12 #fcfcfc #000000 #000000;
#X floatatom 79 620 5 0 0 0 - - - 0;
#X floatatom 285 662 5 0 0 0 - - - 0;
#X floatatom 176 643 5 0 0 0 - - - 0;
#X obj 244 476 sel 1 0;
#X msg 228 645 0;
#X obj 228 669 bng 19 250 50 0 empty empty empty 0 -10 0 12 #fcfcfc #000000 #000000;
#X obj 284 710 receive \$0-midi-port;
#X floatatom 284 734 5 0 0 0 - - - 0;
#X connect 0 0 5 0;
#X connect 1 0 11 0;
#X connect 2 0 3 0;
#X connect 2 0 10 0;
#X connect 3 0 36 0;
#X connect 4 0 19 0;
#X connect 5 0 18 0;
#X connect 6 0 23 0;
#X connect 9 0 21 0;
#X connect 10 0 9 0;
#X connect 11 0 4 0;
#X connect 12 0 3 0;
#X connect 12 0 13 0;
#X connect 13 0 9 0;
#X connect 14 0 16 0;
#X connect 15 0 12 0;
#X connect 16 0 15 1;
#X connect 17 0 15 1;
#X connect 18 0 17 0;
#X connect 18 1 2 0;
#X connect 19 0 15 0;
#X connect 19 1 14 0;
#X connect 20 0 10 0;
#X connect 22 0 8 0;
#X connect 23 0 4 1;
#X connect 23 0 5 1;
#X connect 24 0 28 0;
#X connect 26 0 27 0;
#X connect 27 0 24 0;
#X connect 28 0 25 0;
#X connect 29 0 32 0;
#X connect 29 0 35 0;
#X connect 30 0 33 0;
#X connect 31 0 34 0;
#X connect 32 0 24 0;
#X connect 32 0 34 0;
#X connect 32 0 33 0;
#X connect 32 0 35 0;
#X connect 33 0 26 0;
#X connect 34 0 24 2;
#X connect 35 0 24 1;
#X connect 36 0 32 0;
#X connect 36 1 37 0;
#X connect 37 0 24 2;
#X connect 37 0 38 0;
#X connect 38 0 24 0;
#X connect 39 0 40 0;
#X connect 40 0 25 1;
#X coords 0 -1 1 1 60 60 2 100 100;
#X restore 186 465 pd key;
#N canvas 0 64 1920 1086 key 0;
#X obj 202 11 keyup;
#X obj 18 11 key, f 6;
#X msg 200 264 0;
#X obj 183 314 tgl 50 0 \$0-key-s empty s 0 -10 0 12 #fcfcfc #000000 #000000 0 1;
#X obj 18 85 sel;
#X obj 208 97 sel;
#X obj 97 11 loadbang;
#X obj 105 105 cnv 50 50 50 empty \$0-key-s-color s 20 12 0 12 #bcbcbc #404040 0;
#X obj 26 371 tgl 19 0 empty empty empty 0 -10 0 12 #fcfcfc #000000 #000000 0 1;
#X msg 312 351 color \$1 23;
#X msg 331 299 200;
#X floatatom 18 35 5 0 0 0 - - - 0;
#X msg 155 264 1;
#X msg 293 299 69;
#X obj 35 144 delay 10;
#X obj 29 211 spigot 1;
#X msg 35 168 0;
#X msg 193 185 1;
#X obj 208 121 t b b;
#X obj 18 109 t b b;
#X obj 327 264 loadbang;
#X obj 312 375 s \$0-key-s-color;
#X obj 19 339 r \$0-key-s;
#X msg 98 47 115;
#X obj 143 719 pack f f f;
#X obj 174 774 midiout;
#X obj 112 658 + 143;
#X floatatom 112 685 5 0 0 0 - - - 0;
#X msg 143 743 \$1 \$2 \$3;
#X obj 118 476 inlet note;
#X obj 46 559 receive \$0-midi-channel;
#X obj 285 638 receive \$0-midi-velocity;
#X obj 226 566 bng 19 250 50 0 empty empty empty 0 -10 0 12 #fcfcfc #000000 #000000;
#X floatatom 79 620 5 0 0 0 - - - 0;
#X floatatom 285 662 5 0 0 0 - - - 0;
#X floatatom 176 643 5 0 0 0 - - - 0;
#X obj 244 476 sel 1 0;
#X msg 228 645 0;
#X obj 228 669 bng 19 250 50 0 empty empty empty 0 -10 0 12 #fcfcfc #000000 #000000;
#X obj 284 710 receive \$0-midi-port;
#X floatatom 284 734 5 0 0 0 - - - 0;
#X connect 0 0 5 0;
#X connect 1 0 11 0;
#X connect 2 0 3 0;
#X connect 2 0 10 0;
#X connect 3 0 36 0;
#X connect 4 0 19 0;
#X connect 5 0 18 0;
#X connect 6 0 23 0;
#X connect 9 0 21 0;
#X connect 10 0 9 0;
#X connect 11 0 4 0;
#X connect 12 0 3 0;
#X connect 12 0 13 0;
#X connect 13 0 9 0;
#X connect 14 0 16 0;
#X connect 15 0 12 0;
#X connect 16 0 15 1;
#X connect 17 0 15 1;
#X connect 18 0 17 0;
#X connect 18 1 2 0;
#X connect 19 0 15 0;
#X connect 19 1 14 0;
#X connect 20 0 10 0;
#X connect 22 0 8 0;
#X connect 23 0 4 1;
#X connect 23 0 5 1;
#X connect 24 0 28 0;
#X connect 26 0 27 0;
#X connect 27 0 24 0;
#X connect 28 0 25 0;
#X connect 29 0 32 0;
#X connect 29 0 35 0;
#X connect 30 0 33 0;
#X connect 31 0 34 0;
#X connect 32 0 24 0;
#X connect 32 0 34 0;
#X connect 32 0 33 0;
#X connect 32 0 35 0;
#X connect 33 0 26 0;
#X connect 34 0 24 2;
#X connect 35 0 24 1;
#X connect 36 0 32 0;
#X connect 36 1 37 0;
#X connect 37 0 24 2;
#X connect 37 0 38 0;
#X connect 38 0 24 0;
#X connect 39 0 40 0;
#X connect 40 0 25 1;
#X coords 0 -1 1 1 60 60 2 100 100;
#X restore 215 526 pd key;
#N canvas 4 64 1920 1086 key 0;
#X obj 202 11 keyup;
#X obj 18 11 key, f 6;
#X msg 200 264 0;
#X obj 183 314 tgl 50 0 \$0-key-x empty x 0 -10 0 12 #fcfcfc #000000 #000000 0 1;
#X obj 18 85 sel;
#X obj 208 97 sel;
#X obj 97 11 loadbang;
#X obj 105 105 cnv 50 50 50 empty \$0-key-x-color x 20 12 0 12 #bcbcbc #404040 0;
#X obj 26 371 tgl 19 0 empty empty empty 0 -10 0 12 #fcfcfc #000000 #000000 0 1;
#X msg 312 351 color \$1 23;
#X msg 331 299 200;
#X floatatom 18 35 5 0 0 0 - - - 0;
#X msg 155 264 1;
#X msg 293 299 69;
#X obj 35 144 delay 10;
#X obj 29 211 spigot 1;
#X msg 35 168 0;
#X msg 193 185 1;
#X obj 208 121 t b b;
#X obj 18 109 t b b;
#X obj 327 264 loadbang;
#X msg 98 47 120;
#X obj 312 375 s \$0-key-x-color;
#X obj 19 339 r \$0-key-x;
#X obj 143 719 pack f f f;
#X obj 174 774 midiout;
#X obj 112 658 + 143;
#X floatatom 112 685 5 0 0 0 - - - 0;
#X msg 143 743 \$1 \$2 \$3;
#X obj 118 476 inlet note;
#X obj 46 559 receive \$0-midi-channel;
#X obj 285 638 receive \$0-midi-velocity;
#X obj 226 566 bng 19 250 50 0 empty empty empty 0 -10 0 12 #fcfcfc #000000 #000000;
#X floatatom 79 620 5 0 0 0 - - - 0;
#X floatatom 285 662 5 0 0 0 - - - 0;
#X floatatom 176 643 5 0 0 0 - - - 0;
#X obj 244 476 sel 1 0;
#X msg 228 645 0;
#X obj 228 669 bng 19 250 50 0 empty empty empty 0 -10 0 12 #fcfcfc #000000 #000000;
#X obj 284 710 receive \$0-midi-port;
#X floatatom 284 734 5 0 0 0 - - - 0;
#X connect 0 0 5 0;
#X connect 1 0 11 0;
#X connect 2 0 3 0;
#X connect 2 0 10 0;
#X connect 3 0 36 0;
#X connect 4 0 19 0;
#X connect 5 0 18 0;
#X connect 6 0 21 0;
#X connect 9 0 22 0;
#X connect 10 0 9 0;
#X connect 11 0 4 0;
#X connect 12 0 3 0;
#X connect 12 0 13 0;
#X connect 13 0 9 0;
#X connect 14 0 16 0;
#X connect 15 0 12 0;
#X connect 16 0 15 1;
#X connect 17 0 15 1;
#X connect 18 0 17 0;
#X connect 18 1 2 0;
#X connect 19 0 15 0;
#X connect 19 1 14 0;
#X connect 20 0 10 0;
#X connect 21 0 4 1;
#X connect 21 0 5 1;
#X connect 23 0 8 0;
#X connect 24 0 28 0;
#X connect 26 0 27 0;
#X connect 27 0 24 0;
#X connect 28 0 25 0;
#X connect 29 0 32 0;
#X connect 29 0 35 0;
#X connect 30 0 33 0;
#X connect 31 0 34 0;
#X connect 32 0 24 0;
#X connect 32 0 34 0;
#X connect 32 0 33 0;
#X connect 32 0 35 0;
#X connect 33 0 26 0;
#X connect 34 0 24 2;
#X connect 35 0 24 1;
#X connect 36 0 32 0;
#X connect 36 1 37 0;
#X connect 37 0 24 2;
#X connect 37 0 38 0;
#X connect 38 0 24 0;
#X connect 39 0 40 0;
#X connect 40 0 25 1;
#X coords 0 -1 1 1 60 60 2 100 100;
#X restore 249 587 pd key;
#N canvas 4 64 1920 1086 key 0;
#X obj 202 11 keyup;
#X obj 18 11 key, f 6;
#X msg 200 264 0;
#X obj 183 314 tgl 50 0 \$0-key-e empty e 0 -10 0 12 #fcfcfc #000000 #000000 0 1;
#X obj 18 85 sel;
#X obj 208 97 sel;
#X obj 97 11 loadbang;
#X obj 105 105 cnv 50 50 50 empty \$0-key-e-color e 20 12 0 12 #bcbcbc #404040 0;
#X obj 26 371 tgl 19 0 empty empty empty 0 -10 0 12 #fcfcfc #000000 #000000 0 1;
#X msg 312 351 color \$1 23;
#X msg 331 299 200;
#X floatatom 18 35 5 0 0 0 - - - 0;
#X msg 155 264 1;
#X msg 293 299 69;
#X obj 35 144 delay 10;
#X obj 29 211 spigot 1;
#X msg 35 168 0;
#X msg 193 185 1;
#X obj 208 121 t b b;
#X obj 18 109 t b b;
#X obj 327 264 loadbang;
#X msg 98 47 101;
#X obj 312 375 s \$0-key-e-color;
#X obj 19 339 r \$0-key-e;
#X obj 143 719 pack f f f;
#X obj 174 774 midiout;
#X obj 112 658 + 143;
#X floatatom 112 685 5 0 0 0 - - - 0;
#X msg 143 743 \$1 \$2 \$3;
#X obj 118 476 inlet note;
#X obj 46 559 receive \$0-midi-channel;
#X obj 285 638 receive \$0-midi-velocity;
#X obj 226 566 bng 19 250 50 0 empty empty empty 0 -10 0 12 #fcfcfc #000000 #000000;
#X floatatom 79 620 5 0 0 0 - - - 0;
#X floatatom 285 662 5 0 0 0 - - - 0;
#X floatatom 176 643 5 0 0 0 - - - 0;
#X obj 244 476 sel 1 0;
#X msg 228 645 0;
#X obj 228 669 bng 19 250 50 0 empty empty empty 0 -10 0 12 #fcfcfc #000000 #000000;
#X obj 284 710 receive \$0-midi-port;
#X floatatom 284 734 5 0 0 0 - - - 0;
#X connect 0 0 5 0;
#X connect 1 0 11 0;
#X connect 2 0 3 0;
#X connect 2 0 10 0;
#X connect 3 0 36 0;
#X connect 4 0 19 0;
#X connect 5 0 18 0;
#X connect 6 0 21 0;
#X connect 9 0 22 0;
#X connect 10 0 9 0;
#X connect 11 0 4 0;
#X connect 12 0 3 0;
#X connect 12 0 13 0;
#X connect 13 0 9 0;
#X connect 14 0 16 0;
#X connect 15 0 12 0;
#X connect 16 0 15 1;
#X connect 17 0 15 1;
#X connect 18 0 17 0;
#X connect 18 1 2 0;
#X connect 19 0 15 0;
#X connect 19 1 14 0;
#X connect 20 0 10 0;
#X connect 21 0 4 1;
#X connect 21 0 5 1;
#X connect 23 0 8 0;
#X connect 24 0 28 0;
#X connect 26 0 27 0;
#X connect 27 0 24 0;
#X connect 28 0 25 0;
#X connect 29 0 32 0;
#X connect 29 0 35 0;
#X connect 30 0 33 0;
#X connect 31 0 34 0;
#X connect 32 0 24 0;
#X connect 32 0 34 0;
#X connect 32 0 33 0;
#X connect 32 0 35 0;
#X connect 33 0 26 0;
#X connect 34 0 24 2;
#X connect 35 0 24 1;
#X connect 36 0 32 0;
#X connect 36 1 37 0;
#X connect 37 0 24 2;
#X connect 37 0 38 0;
#X connect 38 0 24 0;
#X connect 39 0 40 0;
#X connect 40 0 25 1;
#X coords 0 -1 1 1 60 60 2 100 100;
#X restore 247 465 pd key;
#N canvas 4 64 1920 1086 key 0;
#X obj 202 11 keyup;
#X obj 18 11 key, f 6;
#X msg 200 264 0;
#X obj 183 314 tgl 50 0 \$0-key-d empty d 0 -10 0 12 #fcfcfc #000000 #000000 0 1;
#X obj 18 85 sel;
#X obj 208 97 sel;
#X obj 97 11 loadbang;
#X obj 105 105 cnv 50 50 50 empty \$0-key-d-color d 20 12 0 12 #bcbcbc #404040 0;
#X obj 26 371 tgl 19 0 empty empty empty 0 -10 0 12 #fcfcfc #000000 #000000 0 1;
#X msg 312 351 color \$1 23;
#X msg 331 299 200;
#X floatatom 18 35 5 0 0 0 - - - 0;
#X msg 155 264 1;
#X msg 293 299 69;
#X obj 35 144 delay 10;
#X obj 29 211 spigot 1;
#X msg 35 168 0;
#X msg 193 185 1;
#X obj 208 121 t b b;
#X obj 18 109 t b b;
#X obj 327 264 loadbang;
#X obj 19 339 r \$0-key-d;
#X obj 312 375 s \$0-key-d-color;
#X msg 98 47 100;
#X obj 143 719 pack f f f;
#X obj 174 774 midiout;
#X obj 112 658 + 143;
#X floatatom 112 685 5 0 0 0 - - - 0;
#X msg 143 743 \$1 \$2 \$3;
#X obj 118 476 inlet note;
#X obj 46 559 receive \$0-midi-channel;
#X obj 285 638 receive \$0-midi-velocity;
#X obj 226 566 bng 19 250 50 0 empty empty empty 0 -10 0 12 #fcfcfc #000000 #000000;
#X floatatom 79 620 5 0 0 0 - - - 0;
#X floatatom 285 662 5 0 0 0 - - - 0;
#X floatatom 176 643 5 0 0 0 - - - 0;
#X obj 244 476 sel 1 0;
#X msg 228 645 0;
#X obj 228 669 bng 19 250 50 0 empty empty empty 0 -10 0 12 #fcfcfc #000000 #000000;
#X obj 284 710 receive \$0-midi-port;
#X floatatom 284 734 5 0 0 0 - - - 0;
#X connect 0 0 5 0;
#X connect 1 0 11 0;
#X connect 2 0 3 0;
#X connect 2 0 10 0;
#X connect 3 0 36 0;
#X connect 4 0 19 0;
#X connect 5 0 18 0;
#X connect 6 0 23 0;
#X connect 9 0 22 0;
#X connect 10 0 9 0;
#X connect 11 0 4 0;
#X connect 12 0 3 0;
#X connect 12 0 13 0;
#X connect 13 0 9 0;
#X connect 14 0 16 0;
#X connect 15 0 12 0;
#X connect 16 0 15 1;
#X connect 17 0 15 1;
#X connect 18 0 17 0;
#X connect 18 1 2 0;
#X connect 19 0 15 0;
#X connect 19 1 14 0;
#X connect 20 0 10 0;
#X connect 21 0 8 0;
#X connect 23 0 4 1;
#X connect 23 0 5 1;
#X connect 24 0 28 0;
#X connect 26 0 27 0;
#X connect 27 0 24 0;
#X connect 28 0 25 0;
#X connect 29 0 32 0;
#X connect 29 0 35 0;
#X connect 30 0 33 0;
#X connect 31 0 34 0;
#X connect 32 0 24 0;
#X connect 32 0 34 0;
#X connect 32 0 33 0;
#X connect 32 0 35 0;
#X connect 33 0 26 0;
#X connect 34 0 24 2;
#X connect 35 0 24 1;
#X connect 36 0 32 0;
#X connect 36 1 37 0;
#X connect 37 0 24 2;
#X connect 37 0 38 0;
#X connect 38 0 24 0;
#X connect 39 0 40 0;
#X connect 40 0 25 1;
#X coords 0 -1 1 1 60 60 2 100 100;
#X restore 276 526 pd key;
#N canvas 4 64 1920 1086 key 0;
#X obj 202 11 keyup;
#X obj 18 11 key, f 6;
#X msg 200 264 0;
#X obj 183 314 tgl 50 0 \$0-key-c empty c 0 -10 0 12 #fcfcfc #000000 #000000 0 1;
#X obj 18 85 sel;
#X obj 208 97 sel;
#X obj 97 11 loadbang;
#X obj 106 105 cnv 50 50 50 empty \$0-key-c-color c 20 12 0 12 #bcbcbc #404040 0;
#X obj 26 371 tgl 19 0 empty empty empty 0 -10 0 12 #fcfcfc #000000 #000000 0 1;
#X msg 312 351 color \$1 23;
#X msg 331 299 200;
#X floatatom 18 35 5 0 0 0 - - - 0;
#X msg 155 264 1;
#X msg 293 299 69;
#X obj 35 144 delay 10;
#X obj 29 211 spigot 1;
#X msg 35 168 0;
#X msg 193 185 1;
#X obj 208 121 t b b;
#X obj 18 109 t b b;
#X obj 327 264 loadbang;
#X obj 312 375 s \$0-key-c-color;
#X obj 19 339 r \$0-key-c;
#X msg 98 47 99;
#X obj 143 719 pack f f f;
#X obj 174 774 midiout;
#X obj 112 658 + 143;
#X floatatom 112 685 5 0 0 0 - - - 0;
#X msg 143 743 \$1 \$2 \$3;
#X obj 118 476 inlet note;
#X obj 46 559 receive \$0-midi-channel;
#X obj 285 638 receive \$0-midi-velocity;
#X obj 226 566 bng 19 250 50 0 empty empty empty 0 -10 0 12 #fcfcfc #000000 #000000;
#X floatatom 79 620 5 0 0 0 - - - 0;
#X floatatom 285 662 5 0 0 0 - - - 0;
#X floatatom 176 643 5 0 0 0 - - - 0;
#X obj 244 476 sel 1 0;
#X msg 228 645 0;
#X obj 228 669 bng 19 250 50 0 empty empty empty 0 -10 0 12 #fcfcfc #000000 #000000;
#X obj 284 710 receive \$0-midi-port;
#X floatatom 284 734 5 0 0 0 - - - 0;
#X connect 0 0 5 0;
#X connect 1 0 11 0;
#X connect 2 0 3 0;
#X connect 2 0 10 0;
#X connect 3 0 36 0;
#X connect 4 0 19 0;
#X connect 5 0 18 0;
#X connect 6 0 23 0;
#X connect 9 0 21 0;
#X connect 10 0 9 0;
#X connect 11 0 4 0;
#X connect 12 0 3 0;
#X connect 12 0 13 0;
#X connect 13 0 9 0;
#X connect 14 0 16 0;
#X connect 15 0 12 0;
#X connect 16 0 15 1;
#X connect 17 0 15 1;
#X connect 18 0 17 0;
#X connect 18 1 2 0;
#X connect 19 0 15 0;
#X connect 19 1 14 0;
#X connect 20 0 10 0;
#X connect 22 0 8 0;
#X connect 23 0 4 1;
#X connect 23 0 5 1;
#X connect 24 0 28 0;
#X connect 26 0 27 0;
#X connect 27 0 24 0;
#X connect 28 0 25 0;
#X connect 29 0 32 0;
#X connect 29 0 35 0;
#X connect 30 0 33 0;
#X connect 31 0 34 0;
#X connect 32 0 24 0;
#X connect 32 0 34 0;
#X connect 32 0 33 0;
#X connect 32 0 35 0;
#X connect 33 0 26 0;
#X connect 34 0 24 2;
#X connect 35 0 24 1;
#X connect 36 0 32 0;
#X connect 36 1 37 0;
#X connect 37 0 24 2;
#X connect 37 0 38 0;
#X connect 38 0 24 0;
#X connect 39 0 40 0;
#X connect 40 0 25 1;
#X coords 0 -1 1 1 60 60 2 100 100;
#X restore 310 587 pd key;
#N canvas 4 64 1920 1086 key 0;
#X obj 202 11 keyup;
#X obj 18 11 key, f 6;
#X msg 200 264 0;
#X obj 183 314 tgl 50 0 \$0-key-r empty r 0 -10 0 12 #fcfcfc #000000 #000000 0 1;
#X obj 18 85 sel;
#X obj 208 97 sel;
#X obj 97 11 loadbang;
#X obj 105 105 cnv 50 50 50 empty \$0-key-r-color r 20 12 0 12 #bcbcbc #404040 0;
#X obj 26 371 tgl 19 0 empty empty empty 0 -10 0 12 #fcfcfc #000000 #000000 0 1;
#X msg 312 351 color \$1 23;
#X msg 331 299 200;
#X floatatom 18 35 5 0 0 0 - - - 0;
#X msg 155 264 1;
#X msg 293 299 69;
#X obj 35 144 delay 10;
#X obj 29 211 spigot 1;
#X msg 35 168 0;
#X msg 193 185 1;
#X obj 208 121 t b b;
#X obj 18 109 t b b;
#X obj 327 264 loadbang;
#X obj 312 375 s \$0-key-r-color;
#X msg 98 47 114;
#X obj 19 339 r \$0-key-r;
#X obj 143 719 pack f f f;
#X obj 174 774 midiout;
#X obj 112 658 + 143;
#X floatatom 112 685 5 0 0 0 - - - 0;
#X msg 143 743 \$1 \$2 \$3;
#X obj 118 476 inlet note;
#X obj 46 559 receive \$0-midi-channel;
#X obj 285 638 receive \$0-midi-velocity;
#X obj 226 566 bng 19 250 50 0 empty empty empty 0 -10 0 12 #fcfcfc #000000 #000000;
#X floatatom 79 620 5 0 0 0 - - - 0;
#X floatatom 285 662 5 0 0 0 - - - 0;
#X floatatom 176 643 5 0 0 0 - - - 0;
#X obj 244 476 sel 1 0;
#X msg 228 645 0;
#X obj 228 669 bng 19 250 50 0 empty empty empty 0 -10 0 12 #fcfcfc #000000 #000000;
#X obj 284 710 receive \$0-midi-port;
#X floatatom 284 734 5 0 0 0 - - - 0;
#X connect 0 0 5 0;
#X connect 1 0 11 0;
#X connect 2 0 3 0;
#X connect 2 0 10 0;
#X connect 3 0 36 0;
#X connect 4 0 19 0;
#X connect 5 0 18 0;
#X connect 6 0 22 0;
#X connect 9 0 21 0;
#X connect 10 0 9 0;
#X connect 11 0 4 0;
#X connect 12 0 3 0;
#X connect 12 0 13 0;
#X connect 13 0 9 0;
#X connect 14 0 16 0;
#X connect 15 0 12 0;
#X connect 16 0 15 1;
#X connect 17 0 15 1;
#X connect 18 0 17 0;
#X connect 18 1 2 0;
#X connect 19 0 15 0;
#X connect 19 1 14 0;
#X connect 20 0 10 0;
#X connect 22 0 4 1;
#X connect 22 0 5 1;
#X connect 23 0 8 0;
#X connect 24 0 28 0;
#X connect 26 0 27 0;
#X connect 27 0 24 0;
#X connect 28 0 25 0;
#X connect 29 0 32 0;
#X connect 29 0 35 0;
#X connect 30 0 33 0;
#X connect 31 0 34 0;
#X connect 32 0 24 0;
#X connect 32 0 34 0;
#X connect 32 0 33 0;
#X connect 32 0 35 0;
#X connect 33 0 26 0;
#X connect 34 0 24 2;
#X connect 35 0 24 1;
#X connect 36 0 32 0;
#X connect 36 1 37 0;
#X connect 37 0 24 2;
#X connect 37 0 38 0;
#X connect 38 0 24 0;
#X connect 39 0 40 0;
#X connect 40 0 25 1;
#X coords 0 -1 1 1 60 60 2 100 100;
#X restore 308 465 pd key;
#N canvas 4 64 1920 1086 key 0;
#X obj 202 11 keyup;
#X obj 18 11 key, f 6;
#X msg 200 264 0;
#X obj 183 314 tgl 50 0 \$0-key-v empty v 0 -10 0 12 #fcfcfc #000000 #000000 0 1;
#X obj 18 85 sel;
#X obj 208 97 sel;
#X obj 97 11 loadbang;
#X obj 105 105 cnv 50 50 50 empty \$0-key-v-color v 20 12 0 12 #bcbcbc #404040 0;
#X obj 26 371 tgl 19 0 empty empty empty 0 -10 0 12 #fcfcfc #000000 #000000 0 1;
#X msg 312 351 color \$1 23;
#X msg 331 299 200;
#X floatatom 18 35 5 0 0 0 - - - 0;
#X msg 155 264 1;
#X msg 293 299 69;
#X obj 35 144 delay 10;
#X obj 29 211 spigot 1;
#X msg 35 168 0;
#X msg 193 185 1;
#X obj 208 121 t b b;
#X obj 18 109 t b b;
#X obj 327 264 loadbang;
#X obj 19 339 r \$0-key-v;
#X obj 312 375 s \$0-key-v-color;
#X msg 98 47 118;
#X obj 143 719 pack f f f;
#X obj 174 774 midiout;
#X obj 112 658 + 143;
#X floatatom 112 685 5 0 0 0 - - - 0;
#X msg 143 743 \$1 \$2 \$3;
#X obj 118 476 inlet note;
#X obj 46 559 receive \$0-midi-channel;
#X obj 285 638 receive \$0-midi-velocity;
#X obj 226 566 bng 19 250 50 0 empty empty empty 0 -10 0 12 #fcfcfc #000000 #000000;
#X floatatom 79 620 5 0 0 0 - - - 0;
#X floatatom 285 662 5 0 0 0 - - - 0;
#X floatatom 176 643 5 0 0 0 - - - 0;
#X obj 244 476 sel 1 0;
#X msg 228 645 0;
#X obj 228 669 bng 19 250 50 0 empty empty empty 0 -10 0 12 #fcfcfc #000000 #000000;
#X obj 284 710 receive \$0-midi-port;
#X floatatom 284 734 5 0 0 0 - - - 0;
#X connect 0 0 5 0;
#X connect 1 0 11 0;
#X connect 2 0 3 0;
#X connect 2 0 10 0;
#X connect 3 0 36 0;
#X connect 4 0 19 0;
#X connect 5 0 18 0;
#X connect 6 0 23 0;
#X connect 9 0 22 0;
#X connect 10 0 9 0;
#X connect 11 0 4 0;
#X connect 12 0 3 0;
#X connect 12 0 13 0;
#X connect 13 0 9 0;
#X connect 14 0 16 0;
#X connect 15 0 12 0;
#X connect 16 0 15 1;
#X connect 17 0 15 1;
#X connect 18 0 17 0;
#X connect 18 1 2 0;
#X connect 19 0 15 0;
#X connect 19 1 14 0;
#X connect 20 0 10 0;
#X connect 21 0 8 0;
#X connect 23 0 4 1;
#X connect 23 0 5 1;
#X connect 24 0 28 0;
#X connect 26 0 27 0;
#X connect 27 0 24 0;
#X connect 28 0 25 0;
#X connect 29 0 32 0;
#X connect 29 0 35 0;
#X connect 30 0 33 0;
#X connect 31 0 34 0;
#X connect 32 0 24 0;
#X connect 32 0 34 0;
#X connect 32 0 33 0;
#X connect 32 0 35 0;
#X connect 33 0 26 0;
#X connect 34 0 24 2;
#X connect 35 0 24 1;
#X connect 36 0 32 0;
#X connect 36 1 37 0;
#X connect 37 0 24 2;
#X connect 37 0 38 0;
#X connect 38 0 24 0;
#X connect 39 0 40 0;
#X connect 40 0 25 1;
#X coords 0 -1 1 1 60 60 2 100 100;
#X restore 371 587 pd key;
#N canvas 1387 0 450 1076 key 0;
#X obj 202 11 keyup;
#X obj 18 11 key, f 6;
#X msg 200 264 0;
#X obj 183 314 tgl 50 0 \$0-key-t empty t 0 -10 0 12 #fcfcfc #000000 #000000 0 1;
#X obj 18 85 sel;
#X obj 208 97 sel;
#X obj 97 11 loadbang;
#X obj 105 105 cnv 50 50 50 empty \$0-key-t-color t 20 12 0 12 #bcbcbc #404040 0;
#X obj 26 371 tgl 19 0 empty empty empty 0 -10 0 12 #fcfcfc #000000 #000000 0 1;
#X msg 312 351 color \$1 23;
#X msg 331 299 200;
#X floatatom 18 35 5 0 0 0 - - - 0;
#X msg 155 264 1;
#X msg 293 299 69;
#X obj 35 144 delay 10;
#X obj 29 211 spigot 1;
#X msg 35 168 0;
#X msg 193 185 1;
#X obj 208 121 t b b;
#X obj 18 109 t b b;
#X obj 327 264 loadbang;
#X obj 312 375 s \$0-key-t-color;
#X obj 19 339 r \$0-key-t;
#X msg 98 47 116;
#X obj 143 719 pack f f f;
#X obj 174 774 midiout;
#X obj 112 658 + 143;
#X floatatom 112 685 5 0 0 0 - - - 0;
#X msg 143 743 \$1 \$2 \$3;
#X obj 118 476 inlet note;
#X obj 46 559 receive \$0-midi-channel;
#X obj 285 638 receive \$0-midi-velocity;
#X obj 226 566 bng 19 250 50 0 empty empty empty 0 -10 0 12 #fcfcfc #000000 #000000;
#X floatatom 79 620 5 0 0 0 - - - 0;
#X floatatom 285 662 5 0 0 0 - - - 0;
#X floatatom 176 643 5 0 0 0 - - - 0;
#X obj 244 476 sel 1 0;
#X msg 228 645 0;
#X obj 228 669 bng 19 250 50 0 empty empty empty 0 -10 0 12 #fcfcfc #000000 #000000;
#X obj 284 710 receive \$0-midi-port;
#X floatatom 284 734 5 0 0 0 - - - 0;
#X connect 0 0 5 0;
#X connect 1 0 11 0;
#X connect 2 0 3 0;
#X connect 2 0 10 0;
#X connect 3 0 36 0;
#X connect 4 0 19 0;
#X connect 5 0 18 0;
#X connect 6 0 23 0;
#X connect 9 0 21 0;
#X connect 10 0 9 0;
#X connect 11 0 4 0;
#X connect 12 0 3 0;
#X connect 12 0 13 0;
#X connect 13 0 9 0;
#X connect 14 0 16 0;
#X connect 15 0 12 0;
#X connect 16 0 15 1;
#X connect 17 0 15 1;
#X connect 18 0 17 0;
#X connect 18 1 2 0;
#X connect 19 0 15 0;
#X connect 19 1 14 0;
#X connect 20 0 10 0;
#X connect 22 0 8 0;
#X connect 23 0 4 1;
#X connect 23 0 5 1;
#X connect 24 0 28 0;
#X connect 26 0 27 0;
#X connect 27 0 24 0;
#X connect 28 0 25 0;
#X connect 29 0 32 0;
#X connect 29 0 35 0;
#X connect 30 0 33 0;
#X connect 31 0 34 0;
#X connect 32 0 24 0;
#X connect 32 0 34 0;
#X connect 32 0 33 0;
#X connect 32 0 35 0;
#X connect 33 0 26 0;
#X connect 34 0 24 2;
#X connect 35 0 24 1;
#X connect 36 0 32 0;
#X connect 36 1 37 0;
#X connect 37 0 24 2;
#X connect 37 0 38 0;
#X connect 38 0 24 0;
#X connect 39 0 40 0;
#X connect 40 0 25 1;
#X coords 0 -1 1 1 60 60 2 100 100;
#X restore 369 465 pd key;
#N canvas 4 64 1920 1086 key 0;
#X obj 202 11 keyup;
#X obj 18 11 key, f 6;
#X msg 200 264 0;
#X obj 183 314 tgl 50 0 \$0-key-g empty g 0 -10 0 12 #fcfcfc #000000 #000000 0 1;
#X obj 18 85 sel;
#X obj 208 97 sel;
#X obj 97 11 loadbang;
#X obj 105 105 cnv 50 50 50 empty \$0-key-g-color g 20 12 0 12 #bcbcbc #404040 0;
#X obj 26 371 tgl 19 0 empty empty empty 0 -10 0 12 #fcfcfc #000000 #000000 0 1;
#X msg 312 351 color \$1 23;
#X msg 331 299 200;
#X floatatom 18 35 5 0 0 0 - - - 0;
#X msg 155 264 1;
#X msg 293 299 69;
#X obj 35 144 delay 10;
#X obj 29 211 spigot 1;
#X msg 35 168 0;
#X msg 193 185 1;
#X obj 208 121 t b b;
#X obj 18 109 t b b;
#X obj 327 264 loadbang;
#X obj 312 375 s \$0-key-g-color;
#X obj 19 339 r \$0-key-g;
#X msg 98 47 103;
#X obj 143 719 pack f f f;
#X obj 174 774 midiout;
#X obj 112 658 + 143;
#X floatatom 112 685 5 0 0 0 - - - 0;
#X msg 143 743 \$1 \$2 \$3;
#X obj 118 476 inlet note;
#X obj 46 559 receive \$0-midi-channel;
#X obj 285 638 receive \$0-midi-velocity;
#X obj 226 566 bng 19 250 50 0 empty empty empty 0 -10 0 12 #fcfcfc #000000 #000000;
#X floatatom 79 620 5 0 0 0 - - - 0;
#X floatatom 285 662 5 0 0 0 - - - 0;
#X floatatom 176 643 5 0 0 0 - - - 0;
#X obj 244 476 sel 1 0;
#X msg 228 645 0;
#X obj 228 669 bng 19 250 50 0 empty empty empty 0 -10 0 12 #fcfcfc #000000 #000000;
#X obj 284 710 receive \$0-midi-port;
#X floatatom 284 734 5 0 0 0 - - - 0;
#X connect 0 0 5 0;
#X connect 1 0 11 0;
#X connect 2 0 3 0;
#X connect 2 0 10 0;
#X connect 3 0 36 0;
#X connect 4 0 19 0;
#X connect 5 0 18 0;
#X connect 6 0 23 0;
#X connect 9 0 21 0;
#X connect 10 0 9 0;
#X connect 11 0 4 0;
#X connect 12 0 3 0;
#X connect 12 0 13 0;
#X connect 13 0 9 0;
#X connect 14 0 16 0;
#X connect 15 0 12 0;
#X connect 16 0 15 1;
#X connect 17 0 15 1;
#X connect 18 0 17 0;
#X connect 18 1 2 0;
#X connect 19 0 15 0;
#X connect 19 1 14 0;
#X connect 20 0 10 0;
#X connect 22 0 8 0;
#X connect 23 0 4 1;
#X connect 23 0 5 1;
#X connect 24 0 28 0;
#X connect 26 0 27 0;
#X connect 27 0 24 0;
#X connect 28 0 25 0;
#X connect 29 0 32 0;
#X connect 29 0 35 0;
#X connect 30 0 33 0;
#X connect 31 0 34 0;
#X connect 32 0 24 0;
#X connect 32 0 34 0;
#X connect 32 0 33 0;
#X connect 32 0 35 0;
#X connect 33 0 26 0;
#X connect 34 0 24 2;
#X connect 35 0 24 1;
#X connect 36 0 32 0;
#X connect 36 1 37 0;
#X connect 37 0 24 2;
#X connect 37 0 38 0;
#X connect 38 0 24 0;
#X connect 39 0 40 0;
#X connect 40 0 25 1;
#X coords 0 -1 1 1 60 60 2 100 100;
#X restore 398 526 pd key;
#N canvas 4 64 1920 1086 key 0;
#X obj 202 11 keyup;
#X obj 18 11 key, f 6;
#X msg 200 264 0;
#X obj 183 314 tgl 50 0 \$0-key-b empty b 0 -10 0 12 #fcfcfc #000000 #000000 0 1;
#X obj 18 85 sel;
#X obj 208 97 sel;
#X obj 97 11 loadbang;
#X obj 105 105 cnv 50 50 50 empty \$0-key-b-color b 20 12 0 12 #bcbcbc #404040 0;
#X obj 26 371 tgl 19 0 empty empty empty 0 -10 0 12 #fcfcfc #000000 #000000 0 1;
#X msg 312 351 color \$1 23;
#X msg 331 299 200;
#X floatatom 18 35 5 0 0 0 - - - 0;
#X msg 155 264 1;
#X msg 293 299 69;
#X obj 35 144 delay 10;
#X obj 29 211 spigot 1;
#X msg 35 168 0;
#X msg 193 185 1;
#X obj 208 121 t b b;
#X obj 18 109 t b b;
#X obj 327 264 loadbang;
#X obj 312 375 s \$0-key-b-color;
#X obj 19 339 r \$0-key-b;
#X msg 98 47 98;
#X obj 143 719 pack f f f;
#X obj 174 774 midiout;
#X obj 112 658 + 143;
#X floatatom 112 685 5 0 0 0 - - - 0;
#X msg 143 743 \$1 \$2 \$3;
#X obj 118 476 inlet note;
#X obj 46 559 receive \$0-midi-channel;
#X obj 285 638 receive \$0-midi-velocity;
#X obj 226 566 bng 19 250 50 0 empty empty empty 0 -10 0 12 #fcfcfc #000000 #000000;
#X floatatom 79 620 5 0 0 0 - - - 0;
#X floatatom 285 662 5 0 0 0 - - - 0;
#X floatatom 176 643 5 0 0 0 - - - 0;
#X obj 244 476 sel 1 0;
#X msg 228 645 0;
#X obj 228 669 bng 19 250 50 0 empty empty empty 0 -10 0 12 #fcfcfc #000000 #000000;
#X obj 284 710 receive \$0-midi-port;
#X floatatom 284 734 5 0 0 0 - - - 0;
#X connect 0 0 5 0;
#X connect 1 0 11 0;
#X connect 2 0 3 0;
#X connect 2 0 10 0;
#X connect 3 0 36 0;
#X connect 4 0 19 0;
#X connect 5 0 18 0;
#X connect 6 0 23 0;
#X connect 9 0 21 0;
#X connect 10 0 9 0;
#X connect 11 0 4 0;
#X connect 12 0 3 0;
#X connect 12 0 13 0;
#X connect 13 0 9 0;
#X connect 14 0 16 0;
#X connect 15 0 12 0;
#X connect 16 0 15 1;
#X connect 17 0 15 1;
#X connect 18 0 17 0;
#X connect 18 1 2 0;
#X connect 19 0 15 0;
#X connect 19 1 14 0;
#X connect 20 0 10 0;
#X connect 22 0 8 0;
#X connect 23 0 4 1;
#X connect 23 0 5 1;
#X connect 24 0 28 0;
#X connect 26 0 27 0;
#X connect 27 0 24 0;
#X connect 28 0 25 0;
#X connect 29 0 32 0;
#X connect 29 0 35 0;
#X connect 30 0 33 0;
#X connect 31 0 34 0;
#X connect 32 0 24 0;
#X connect 32 0 34 0;
#X connect 32 0 33 0;
#X connect 32 0 35 0;
#X connect 33 0 26 0;
#X connect 34 0 24 2;
#X connect 35 0 24 1;
#X connect 36 0 32 0;
#X connect 36 1 37 0;
#X connect 37 0 24 2;
#X connect 37 0 38 0;
#X connect 38 0 24 0;
#X connect 39 0 40 0;
#X connect 40 0 25 1;
#X coords 0 -1 1 1 60 60 2 100 100;
#X restore 432 587 pd key;
#N canvas 4 64 1920 1086 key 0;
#X obj 202 11 keyup;
#X obj 18 11 key, f 6;
#X msg 200 264 0;
#X obj 183 314 tgl 50 0 \$0-key-y empty y 0 -10 0 12 #fcfcfc #000000 #000000 0 1;
#X obj 18 85 sel;
#X obj 208 97 sel;
#X obj 97 11 loadbang;
#X obj 105 105 cnv 50 50 50 empty \$0-key-y-color y 20 12 0 12 #bcbcbc #404040 0;
#X obj 26 371 tgl 19 0 empty empty empty 0 -10 0 12 #fcfcfc #000000 #000000 0 1;
#X msg 312 351 color \$1 23;
#X msg 331 299 200;
#X floatatom 18 35 5 0 0 0 - - - 0;
#X msg 155 264 1;
#X msg 293 299 69;
#X obj 35 144 delay 10;
#X obj 29 211 spigot 1;
#X msg 35 168 0;
#X msg 193 185 1;
#X obj 208 121 t b b;
#X obj 18 109 t b b;
#X obj 327 264 loadbang;
#X obj 312 375 s \$0-key-y-color;
#X obj 19 339 r \$0-key-y;
#X msg 98 47 121;
#X obj 143 719 pack f f f;
#X obj 174 774 midiout;
#X obj 112 658 + 143;
#X floatatom 112 685 5 0 0 0 - - - 0;
#X msg 143 743 \$1 \$2 \$3;
#X obj 118 476 inlet note;
#X obj 46 559 receive \$0-midi-channel;
#X obj 285 638 receive \$0-midi-velocity;
#X obj 226 566 bng 19 250 50 0 empty empty empty 0 -10 0 12 #fcfcfc #000000 #000000;
#X floatatom 79 620 5 0 0 0 - - - 0;
#X floatatom 285 662 5 0 0 0 - - - 0;
#X floatatom 176 643 5 0 0 0 - - - 0;
#X obj 244 476 sel 1 0;
#X msg 228 645 0;
#X obj 228 669 bng 19 250 50 0 empty empty empty 0 -10 0 12 #fcfcfc #000000 #000000;
#X obj 284 710 receive \$0-midi-port;
#X floatatom 284 734 5 0 0 0 - - - 0;
#X connect 0 0 5 0;
#X connect 1 0 11 0;
#X connect 2 0 3 0;
#X connect 2 0 10 0;
#X connect 3 0 36 0;
#X connect 4 0 19 0;
#X connect 5 0 18 0;
#X connect 6 0 23 0;
#X connect 9 0 21 0;
#X connect 10 0 9 0;
#X connect 11 0 4 0;
#X connect 12 0 3 0;
#X connect 12 0 13 0;
#X connect 13 0 9 0;
#X connect 14 0 16 0;
#X connect 15 0 12 0;
#X connect 16 0 15 1;
#X connect 17 0 15 1;
#X connect 18 0 17 0;
#X connect 18 1 2 0;
#X connect 19 0 15 0;
#X connect 19 1 14 0;
#X connect 20 0 10 0;
#X connect 22 0 8 0;
#X connect 23 0 4 1;
#X connect 23 0 5 1;
#X connect 24 0 28 0;
#X connect 26 0 27 0;
#X connect 27 0 24 0;
#X connect 28 0 25 0;
#X connect 29 0 32 0;
#X connect 29 0 35 0;
#X connect 30 0 33 0;
#X connect 31 0 34 0;
#X connect 32 0 24 0;
#X connect 32 0 34 0;
#X connect 32 0 33 0;
#X connect 32 0 35 0;
#X connect 33 0 26 0;
#X connect 34 0 24 2;
#X connect 35 0 24 1;
#X connect 36 0 32 0;
#X connect 36 1 37 0;
#X connect 37 0 24 2;
#X connect 37 0 38 0;
#X connect 38 0 24 0;
#X connect 39 0 40 0;
#X connect 40 0 25 1;
#X coords 0 -1 1 1 60 60 2 100 100;
#X restore 430 465 pd key;
#N canvas 4 64 1920 1086 key 0;
#X obj 202 11 keyup;
#X obj 18 11 key, f 6;
#X msg 200 264 0;
#X obj 183 314 tgl 50 0 \$0-key-h empty h 0 -10 0 12 #fcfcfc #000000 #000000 0 1;
#X obj 18 85 sel;
#X obj 208 97 sel;
#X obj 97 11 loadbang;
#X obj 105 105 cnv 50 50 50 empty \$0-key-h-color h 20 12 0 12 #bcbcbc #404040 0;
#X obj 26 371 tgl 19 0 empty empty empty 0 -10 0 12 #fcfcfc #000000 #000000 0 1;
#X msg 312 351 color \$1 23;
#X msg 331 299 200;
#X floatatom 18 35 5 0 0 0 - - - 0;
#X msg 155 264 1;
#X msg 293 299 69;
#X obj 35 144 delay 10;
#X obj 29 211 spigot 1;
#X msg 35 168 0;
#X msg 193 185 1;
#X obj 208 121 t b b;
#X obj 18 109 t b b;
#X obj 327 264 loadbang;
#X obj 312 375 s \$0-key-h-color;
#X obj 19 339 r \$0-key-h;
#X msg 98 47 104;
#X obj 143 719 pack f f f;
#X obj 174 774 midiout;
#X obj 112 658 + 143;
#X floatatom 112 685 5 0 0 0 - - - 0;
#X msg 143 743 \$1 \$2 \$3;
#X obj 118 476 inlet note;
#X obj 46 559 receive \$0-midi-channel;
#X obj 285 638 receive \$0-midi-velocity;
#X obj 226 566 bng 19 250 50 0 empty empty empty 0 -10 0 12 #fcfcfc #000000 #000000;
#X floatatom 79 620 5 0 0 0 - - - 0;
#X floatatom 285 662 5 0 0 0 - - - 0;
#X floatatom 176 643 5 0 0 0 - - - 0;
#X obj 244 476 sel 1 0;
#X msg 228 645 0;
#X obj 228 669 bng 19 250 50 0 empty empty empty 0 -10 0 12 #fcfcfc #000000 #000000;
#X obj 284 710 receive \$0-midi-port;
#X floatatom 284 734 5 0 0 0 - - - 0;
#X connect 0 0 5 0;
#X connect 1 0 11 0;
#X connect 2 0 3 0;
#X connect 2 0 10 0;
#X connect 3 0 36 0;
#X connect 4 0 19 0;
#X connect 5 0 18 0;
#X connect 6 0 23 0;
#X connect 9 0 21 0;
#X connect 10 0 9 0;
#X connect 11 0 4 0;
#X connect 12 0 3 0;
#X connect 12 0 13 0;
#X connect 13 0 9 0;
#X connect 14 0 16 0;
#X connect 15 0 12 0;
#X connect 16 0 15 1;
#X connect 17 0 15 1;
#X connect 18 0 17 0;
#X connect 18 1 2 0;
#X connect 19 0 15 0;
#X connect 19 1 14 0;
#X connect 20 0 10 0;
#X connect 22 0 8 0;
#X connect 23 0 4 1;
#X connect 23 0 5 1;
#X connect 24 0 28 0;
#X connect 26 0 27 0;
#X connect 27 0 24 0;
#X connect 28 0 25 0;
#X connect 29 0 32 0;
#X connect 29 0 35 0;
#X connect 30 0 33 0;
#X connect 31 0 34 0;
#X connect 32 0 24 0;
#X connect 32 0 34 0;
#X connect 32 0 33 0;
#X connect 32 0 35 0;
#X connect 33 0 26 0;
#X connect 34 0 24 2;
#X connect 35 0 24 1;
#X connect 36 0 32 0;
#X connect 36 1 37 0;
#X connect 37 0 24 2;
#X connect 37 0 38 0;
#X connect 38 0 24 0;
#X connect 39 0 40 0;
#X connect 40 0 25 1;
#X coords 0 -1 1 1 60 60 2 100 100;
#X restore 459 526 pd key;
#N canvas 4 64 1920 1086 key 0;
#X obj 202 11 keyup;
#X obj 18 11 key, f 6;
#X msg 200 264 0;
#X obj 183 314 tgl 50 0 \$0-key-n empty n 0 -10 0 12 #fcfcfc #000000 #000000 0 1;
#X obj 18 85 sel;
#X obj 208 97 sel;
#X obj 97 11 loadbang;
#X obj 105 105 cnv 50 50 50 empty \$0-key-n-color n 20 12 0 12 #bcbcbc #404040 0;
#X obj 26 371 tgl 19 0 empty empty empty 0 -10 0 12 #fcfcfc #000000 #000000 0 1;
#X msg 312 351 color \$1 23;
#X msg 331 299 200;
#X floatatom 18 35 5 0 0 0 - - - 0;
#X msg 155 264 1;
#X msg 293 299 69;
#X obj 35 144 delay 10;
#X obj 29 211 spigot 1;
#X msg 35 168 0;
#X msg 193 185 1;
#X obj 208 121 t b b;
#X obj 18 109 t b b;
#X obj 327 264 loadbang;
#X obj 312 375 s \$0-key-n-color;
#X obj 19 339 r \$0-key-n;
#X msg 98 47 110;
#X obj 143 719 pack f f f;
#X obj 174 774 midiout;
#X obj 112 658 + 143;
#X floatatom 112 685 5 0 0 0 - - - 0;
#X msg 143 743 \$1 \$2 \$3;
#X obj 118 476 inlet note;
#X obj 46 559 receive \$0-midi-channel;
#X obj 285 638 receive \$0-midi-velocity;
#X obj 226 566 bng 19 250 50 0 empty empty empty 0 -10 0 12 #fcfcfc #000000 #000000;
#X floatatom 79 620 5 0 0 0 - - - 0;
#X floatatom 285 662 5 0 0 0 - - - 0;
#X floatatom 176 643 5 0 0 0 - - - 0;
#X obj 244 476 sel 1 0;
#X msg 228 645 0;
#X obj 228 669 bng 19 250 50 0 empty empty empty 0 -10 0 12 #fcfcfc #000000 #000000;
#X obj 284 710 receive \$0-midi-port;
#X floatatom 284 734 5 0 0 0 - - - 0;
#X connect 0 0 5 0;
#X connect 1 0 11 0;
#X connect 2 0 3 0;
#X connect 2 0 10 0;
#X connect 3 0 36 0;
#X connect 4 0 19 0;
#X connect 5 0 18 0;
#X connect 6 0 23 0;
#X connect 9 0 21 0;
#X connect 10 0 9 0;
#X connect 11 0 4 0;
#X connect 12 0 3 0;
#X connect 12 0 13 0;
#X connect 13 0 9 0;
#X connect 14 0 16 0;
#X connect 15 0 12 0;
#X connect 16 0 15 1;
#X connect 17 0 15 1;
#X connect 18 0 17 0;
#X connect 18 1 2 0;
#X connect 19 0 15 0;
#X connect 19 1 14 0;
#X connect 20 0 10 0;
#X connect 22 0 8 0;
#X connect 23 0 4 1;
#X connect 23 0 5 1;
#X connect 24 0 28 0;
#X connect 26 0 27 0;
#X connect 27 0 24 0;
#X connect 28 0 25 0;
#X connect 29 0 32 0;
#X connect 29 0 35 0;
#X connect 30 0 33 0;
#X connect 31 0 34 0;
#X connect 32 0 24 0;
#X connect 32 0 34 0;
#X connect 32 0 33 0;
#X connect 32 0 35 0;
#X connect 33 0 26 0;
#X connect 34 0 24 2;
#X connect 35 0 24 1;
#X connect 36 0 32 0;
#X connect 36 1 37 0;
#X connect 37 0 24 2;
#X connect 37 0 38 0;
#X connect 38 0 24 0;
#X connect 39 0 40 0;
#X connect 40 0 25 1;
#X coords 0 -1 1 1 60 60 2 100 100;
#X restore 493 587 pd key;
#N canvas 0 64 1920 1086 key 0;
#X obj 202 11 keyup;
#X obj 18 11 key, f 6;
#X msg 200 264 0;
#X obj 183 314 tgl 50 0 \$0-key-u empty u 0 -10 0 12 #fcfcfc #000000 #000000 0 1;
#X obj 18 85 sel;
#X obj 208 97 sel;
#X obj 97 11 loadbang;
#X obj 105 105 cnv 50 50 50 empty \$0-key-u-color u 20 12 0 12 #bcbcbc #404040 0;
#X obj 26 371 tgl 19 0 empty empty empty 0 -10 0 12 #fcfcfc #000000 #000000 0 1;
#X msg 312 351 color \$1 23;
#X msg 331 299 200;
#X floatatom 18 35 5 0 0 0 - - - 0;
#X msg 155 264 1;
#X msg 293 299 69;
#X obj 35 144 delay 10;
#X obj 29 211 spigot 1;
#X msg 35 168 0;
#X msg 193 185 1;
#X obj 208 121 t b b;
#X obj 18 109 t b b;
#X obj 327 264 loadbang;
#X obj 312 375 s \$0-key-u-color;
#X obj 19 339 r \$0-key-u;
#X msg 98 47 117;
#X obj 143 719 pack f f f;
#X obj 174 774 midiout;
#X obj 112 658 + 143;
#X floatatom 112 685 5 0 0 0 - - - 0;
#X msg 143 743 \$1 \$2 \$3;
#X obj 118 476 inlet note;
#X obj 46 559 receive \$0-midi-channel;
#X obj 285 638 receive \$0-midi-velocity;
#X obj 226 566 bng 19 250 50 0 empty empty empty 0 -10 0 12 #fcfcfc #000000 #000000;
#X floatatom 79 620 5 0 0 0 - - - 0;
#X floatatom 285 662 5 0 0 0 - - - 0;
#X floatatom 176 643 5 0 0 0 - - - 0;
#X obj 244 476 sel 1 0;
#X msg 228 645 0;
#X obj 228 669 bng 19 250 50 0 empty empty empty 0 -10 0 12 #fcfcfc #000000 #000000;
#X obj 284 710 receive \$0-midi-port;
#X floatatom 284 734 5 0 0 0 - - - 0;
#X connect 0 0 5 0;
#X connect 1 0 11 0;
#X connect 2 0 3 0;
#X connect 2 0 10 0;
#X connect 3 0 36 0;
#X connect 4 0 19 0;
#X connect 5 0 18 0;
#X connect 6 0 23 0;
#X connect 9 0 21 0;
#X connect 10 0 9 0;
#X connect 11 0 4 0;
#X connect 12 0 3 0;
#X connect 12 0 13 0;
#X connect 13 0 9 0;
#X connect 14 0 16 0;
#X connect 15 0 12 0;
#X connect 16 0 15 1;
#X connect 17 0 15 1;
#X connect 18 0 17 0;
#X connect 18 1 2 0;
#X connect 19 0 15 0;
#X connect 19 1 14 0;
#X connect 20 0 10 0;
#X connect 22 0 8 0;
#X connect 23 0 4 1;
#X connect 23 0 5 1;
#X connect 24 0 28 0;
#X connect 26 0 27 0;
#X connect 27 0 24 0;
#X connect 28 0 25 0;
#X connect 29 0 32 0;
#X connect 29 0 35 0;
#X connect 30 0 33 0;
#X connect 31 0 34 0;
#X connect 32 0 24 0;
#X connect 32 0 34 0;
#X connect 32 0 33 0;
#X connect 32 0 35 0;
#X connect 33 0 26 0;
#X connect 34 0 24 2;
#X connect 35 0 24 1;
#X connect 36 0 32 0;
#X connect 36 1 37 0;
#X connect 37 0 24 2;
#X connect 37 0 38 0;
#X connect 38 0 24 0;
#X connect 39 0 40 0;
#X connect 40 0 25 1;
#X coords 0 -1 1 1 60 60 2 100 100;
#X restore 491 465 pd key;
#N canvas 4 64 1920 1086 key 0;
#X obj 202 11 keyup;
#X obj 18 11 key, f 6;
#X msg 200 264 0;
#X obj 183 314 tgl 50 0 \$0-key-j empty j 0 -10 0 12 #fcfcfc #000000 #000000 0 1;
#X obj 18 85 sel;
#X obj 208 97 sel;
#X obj 97 11 loadbang;
#X obj 105 105 cnv 50 50 50 empty \$0-key-j-color j 20 12 0 12 #bcbcbc #404040 0;
#X obj 26 371 tgl 19 0 empty empty empty 0 -10 0 12 #fcfcfc #000000 #000000 0 1;
#X msg 312 351 color \$1 23;
#X msg 331 299 200;
#X floatatom 18 35 5 0 0 0 - - - 0;
#X msg 155 264 1;
#X msg 293 299 69;
#X obj 35 144 delay 10;
#X obj 29 211 spigot 1;
#X msg 35 168 0;
#X msg 193 185 1;
#X obj 208 121 t b b;
#X obj 18 109 t b b;
#X obj 327 264 loadbang;
#X obj 312 375 s \$0-key-j-color;
#X obj 19 339 r \$0-key-j;
#X msg 98 47 106;
#X obj 143 719 pack f f f;
#X obj 174 774 midiout;
#X obj 112 658 + 143;
#X floatatom 112 685 5 0 0 0 - - - 0;
#X msg 143 743 \$1 \$2 \$3;
#X obj 118 476 inlet note;
#X obj 46 559 receive \$0-midi-channel;
#X obj 285 638 receive \$0-midi-velocity;
#X obj 226 566 bng 19 250 50 0 empty empty empty 0 -10 0 12 #fcfcfc #000000 #000000;
#X floatatom 79 620 5 0 0 0 - - - 0;
#X floatatom 285 662 5 0 0 0 - - - 0;
#X floatatom 176 643 5 0 0 0 - - - 0;
#X obj 244 476 sel 1 0;
#X msg 228 645 0;
#X obj 228 669 bng 19 250 50 0 empty empty empty 0 -10 0 12 #fcfcfc #000000 #000000;
#X obj 284 710 receive \$0-midi-port;
#X floatatom 284 734 5 0 0 0 - - - 0;
#X connect 0 0 5 0;
#X connect 1 0 11 0;
#X connect 2 0 3 0;
#X connect 2 0 10 0;
#X connect 3 0 36 0;
#X connect 4 0 19 0;
#X connect 5 0 18 0;
#X connect 6 0 23 0;
#X connect 9 0 21 0;
#X connect 10 0 9 0;
#X connect 11 0 4 0;
#X connect 12 0 3 0;
#X connect 12 0 13 0;
#X connect 13 0 9 0;
#X connect 14 0 16 0;
#X connect 15 0 12 0;
#X connect 16 0 15 1;
#X connect 17 0 15 1;
#X connect 18 0 17 0;
#X connect 18 1 2 0;
#X connect 19 0 15 0;
#X connect 19 1 14 0;
#X connect 20 0 10 0;
#X connect 22 0 8 0;
#X connect 23 0 4 1;
#X connect 23 0 5 1;
#X connect 24 0 28 0;
#X connect 26 0 27 0;
#X connect 27 0 24 0;
#X connect 28 0 25 0;
#X connect 29 0 32 0;
#X connect 29 0 35 0;
#X connect 30 0 33 0;
#X connect 31 0 34 0;
#X connect 32 0 24 0;
#X connect 32 0 34 0;
#X connect 32 0 33 0;
#X connect 32 0 35 0;
#X connect 33 0 26 0;
#X connect 34 0 24 2;
#X connect 35 0 24 1;
#X connect 36 0 32 0;
#X connect 36 1 37 0;
#X connect 37 0 24 2;
#X connect 37 0 38 0;
#X connect 38 0 24 0;
#X connect 39 0 40 0;
#X connect 40 0 25 1;
#X coords 0 -1 1 1 60 60 2 100 100;
#X restore 520 526 pd key;
#N canvas 4 64 1920 1086 key 0;
#X obj 202 11 keyup;
#X obj 18 11 key, f 6;
#X msg 200 264 0;
#X obj 183 314 tgl 50 0 \$0-key-m empty m 0 -10 0 12 #fcfcfc #000000 #000000 0 1;
#X obj 18 85 sel;
#X obj 208 97 sel;
#X obj 97 11 loadbang;
#X obj 105 104 cnv 50 50 50 empty \$0-key-m-color m 20 12 0 12 #bcbcbc #404040 0;
#X obj 26 371 tgl 19 0 empty empty empty 0 -10 0 12 #fcfcfc #000000 #000000 0 1;
#X msg 312 351 color \$1 23;
#X msg 331 299 200;
#X floatatom 18 35 5 0 0 0 - - - 0;
#X msg 155 264 1;
#X msg 293 299 69;
#X obj 35 144 delay 10;
#X obj 29 211 spigot 1;
#X msg 35 168 0;
#X msg 193 185 1;
#X obj 208 121 t b b;
#X obj 18 109 t b b;
#X obj 327 264 loadbang;
#X obj 312 375 s \$0-key-m-color;
#X obj 19 339 r \$0-key-m;
#X msg 98 47 109;
#X obj 143 719 pack f f f;
#X obj 174 774 midiout;
#X obj 112 658 + 143;
#X floatatom 112 685 5 0 0 0 - - - 0;
#X msg 143 743 \$1 \$2 \$3;
#X obj 118 476 inlet note;
#X obj 46 559 receive \$0-midi-channel;
#X obj 285 638 receive \$0-midi-velocity;
#X obj 226 566 bng 19 250 50 0 empty empty empty 0 -10 0 12 #fcfcfc #000000 #000000;
#X floatatom 79 620 5 0 0 0 - - - 0;
#X floatatom 285 662 5 0 0 0 - - - 0;
#X floatatom 176 643 5 0 0 0 - - - 0;
#X obj 244 476 sel 1 0;
#X msg 228 645 0;
#X obj 228 669 bng 19 250 50 0 empty empty empty 0 -10 0 12 #fcfcfc #000000 #000000;
#X obj 284 710 receive \$0-midi-port;
#X floatatom 284 734 5 0 0 0 - - - 0;
#X connect 0 0 5 0;
#X connect 1 0 11 0;
#X connect 2 0 3 0;
#X connect 2 0 10 0;
#X connect 3 0 36 0;
#X connect 4 0 19 0;
#X connect 5 0 18 0;
#X connect 6 0 23 0;
#X connect 9 0 21 0;
#X connect 10 0 9 0;
#X connect 11 0 4 0;
#X connect 12 0 3 0;
#X connect 12 0 13 0;
#X connect 13 0 9 0;
#X connect 14 0 16 0;
#X connect 15 0 12 0;
#X connect 16 0 15 1;
#X connect 17 0 15 1;
#X connect 18 0 17 0;
#X connect 18 1 2 0;
#X connect 19 0 15 0;
#X connect 19 1 14 0;
#X connect 20 0 10 0;
#X connect 22 0 8 0;
#X connect 23 0 4 1;
#X connect 23 0 5 1;
#X connect 24 0 28 0;
#X connect 26 0 27 0;
#X connect 27 0 24 0;
#X connect 28 0 25 0;
#X connect 29 0 32 0;
#X connect 29 0 35 0;
#X connect 30 0 33 0;
#X connect 31 0 34 0;
#X connect 32 0 24 0;
#X connect 32 0 34 0;
#X connect 32 0 33 0;
#X connect 32 0 35 0;
#X connect 33 0 26 0;
#X connect 34 0 24 2;
#X connect 35 0 24 1;
#X connect 36 0 32 0;
#X connect 36 1 37 0;
#X connect 37 0 24 2;
#X connect 37 0 38 0;
#X connect 38 0 24 0;
#X connect 39 0 40 0;
#X connect 40 0 25 1;
#X coords 0 -1 1 1 60 60 2 100 100;
#X restore 554 587 pd key;
#X obj 723 444 vsl 19 150 0 127 0 0 \$0-midi-velocity empty Vel 0 -9 0 12 #fcfcfc #000000 #000000 0 1;
#X obj 824 390 loadbang;
#X msg 890 422 120;
#X obj 623 546 nbx 5 17 1 16 0 0 \$0-midi-channel empty Midi\ Channel 0 -10 0 12 #fcfcfc #000000 #000000 0 256;
#X floatatom 720 611 5 0 0 0 - - - 0;
#N canvas 824 138 536 871 key 0;
#X obj 202 11 keyup;
#X obj 18 11 key, f 6;
#X msg 200 264 0;
#X obj 183 314 tgl 50 0 \$0-key-3 empty 3 0 -10 0 12 #fcfcfc #000000 #000000 0 1;
#X obj 18 85 sel;
#X obj 208 97 sel;
#X obj 97 11 loadbang;
#X obj 105 105 cnv 50 50 50 empty \$0-key-3-color 3 20 12 0 12 #bcbcbc #404040 0;
#X obj 26 371 tgl 19 0 empty empty empty 0 -10 0 12 #fcfcfc #000000 #000000 0 1;
#X msg 312 351 color \$1 23;
#X msg 331 299 200;
#X floatatom 18 35 5 0 0 0 - - - 0;
#X msg 155 264 1;
#X msg 293 299 69;
#X obj 35 144 delay 10;
#X obj 29 211 spigot 1;
#X msg 35 168 0;
#X msg 193 185 1;
#X obj 208 121 t b b;
#X obj 18 109 t b b;
#X obj 327 264 loadbang;
#X obj 143 719 pack f f f;
#X obj 174 774 midiout;
#X obj 112 658 + 143;
#X floatatom 112 685 5 0 0 0 - - - 0;
#X msg 143 743 \$1 \$2 \$3;
#X obj 118 476 inlet note;
#X obj 46 559 receive \$0-midi-channel;
#X obj 285 638 receive \$0-midi-velocity;
#X obj 226 566 bng 19 250 50 0 empty empty empty 0 -10 0 12 #fcfcfc #000000 #000000;
#X floatatom 79 620 5 0 0 0 - - - 0;
#X floatatom 285 662 5 0 0 0 - - - 0;
#X floatatom 176 643 5 0 0 0 - - - 0;
#X obj 244 476 sel 1 0;
#X msg 228 645 0;
#X obj 228 669 bng 19 250 50 0 empty empty empty 0 -10 0 12 #fcfcfc #000000 #000000;
#X msg 98 47 51;
#X obj 312 375 s \$0-key-3-color;
#X obj 19 339 r \$0-key-3;
#X obj 284 710 receive \$0-midi-port;
#X floatatom 284 734 5 0 0 0 - - - 0;
#X connect 0 0 5 0;
#X connect 1 0 11 0;
#X connect 2 0 3 0;
#X connect 2 0 10 0;
#X connect 3 0 33 0;
#X connect 4 0 19 0;
#X connect 5 0 18 0;
#X connect 6 0 36 0;
#X connect 9 0 37 0;
#X connect 10 0 9 0;
#X connect 11 0 4 0;
#X connect 12 0 3 0;
#X connect 12 0 13 0;
#X connect 13 0 9 0;
#X connect 14 0 16 0;
#X connect 15 0 12 0;
#X connect 16 0 15 1;
#X connect 17 0 15 1;
#X connect 18 0 17 0;
#X connect 18 1 2 0;
#X connect 19 0 15 0;
#X connect 19 1 14 0;
#X connect 20 0 10 0;
#X connect 21 0 25 0;
#X connect 23 0 24 0;
#X connect 24 0 21 0;
#X connect 25 0 22 0;
#X connect 26 0 29 0;
#X connect 26 0 32 0;
#X connect 27 0 30 0;
#X connect 28 0 31 0;
#X connect 29 0 21 0;
#X connect 29 0 31 0;
#X connect 29 0 30 0;
#X connect 29 0 32 0;
#X connect 30 0 23 0;
#X connect 31 0 21 2;
#X connect 32 0 21 1;
#X connect 33 0 29 0;
#X connect 33 1 34 0;
#X connect 34 0 21 2;
#X connect 34 0 35 0;
#X connect 35 0 21 0;
#X connect 36 0 4 1;
#X connect 36 0 5 1;
#X connect 38 0 8 0;
#X connect 39 0 40 0;
#X connect 40 0 22 1;
#X coords 0 -1 1 1 60 60 2 100 100;
#X restore 221 404 pd key;
#N canvas 1387 0 450 1076 key 0;
#X obj 202 11 keyup;
#X obj 18 11 key, f 6;
#X msg 200 264 0;
#X obj 183 314 tgl 50 0 \$0-key-5 empty 5 0 -10 0 12 #fcfcfc #000000 #000000 0 1;
#X obj 18 85 sel;
#X obj 208 97 sel;
#X obj 97 11 loadbang;
#X obj 105 105 cnv 50 50 50 empty \$0-key-5-color 5 20 12 0 12 #bcbcbc #404040 0;
#X obj 26 371 tgl 19 0 empty empty empty 0 -10 0 12 #fcfcfc #000000 #000000 0 1;
#X msg 312 351 color \$1 23;
#X msg 331 299 200;
#X floatatom 18 35 5 0 0 0 - - - 0;
#X msg 155 264 1;
#X msg 293 299 69;
#X obj 35 144 delay 10;
#X obj 29 211 spigot 1;
#X msg 35 168 0;
#X msg 193 185 1;
#X obj 208 121 t b b;
#X obj 18 109 t b b;
#X obj 327 264 loadbang;
#X obj 143 719 pack f f f;
#X obj 174 774 midiout;
#X obj 112 658 + 143;
#X floatatom 112 685 5 0 0 0 - - - 0;
#X msg 143 743 \$1 \$2 \$3;
#X obj 118 476 inlet note;
#X obj 46 559 receive \$0-midi-channel;
#X obj 285 638 receive \$0-midi-velocity;
#X obj 226 566 bng 19 250 50 0 empty empty empty 0 -10 0 12 #fcfcfc #000000 #000000;
#X floatatom 79 620 5 0 0 0 - - - 0;
#X floatatom 285 662 5 0 0 0 - - - 0;
#X floatatom 176 643 5 0 0 0 - - - 0;
#X obj 244 476 sel 1 0;
#X msg 228 645 0;
#X obj 228 669 bng 19 250 50 0 empty empty empty 0 -10 0 12 #fcfcfc #000000 #000000;
#X obj 312 375 s \$0-key-5-color;
#X obj 19 339 r \$0-key-5;
#X msg 98 47 53;
#X obj 284 710 receive \$0-midi-port;
#X floatatom 284 734 5 0 0 0 - - - 0;
#X connect 0 0 5 0;
#X connect 1 0 11 0;
#X connect 2 0 3 0;
#X connect 2 0 10 0;
#X connect 3 0 33 0;
#X connect 4 0 19 0;
#X connect 5 0 18 0;
#X connect 6 0 38 0;
#X connect 9 0 36 0;
#X connect 10 0 9 0;
#X connect 11 0 4 0;
#X connect 12 0 3 0;
#X connect 12 0 13 0;
#X connect 13 0 9 0;
#X connect 14 0 16 0;
#X connect 15 0 12 0;
#X connect 16 0 15 1;
#X connect 17 0 15 1;
#X connect 18 0 17 0;
#X connect 18 1 2 0;
#X connect 19 0 15 0;
#X connect 19 1 14 0;
#X connect 20 0 10 0;
#X connect 21 0 25 0;
#X connect 23 0 24 0;
#X connect 24 0 21 0;
#X connect 25 0 22 0;
#X connect 26 0 29 0;
#X connect 26 0 32 0;
#X connect 27 0 30 0;
#X connect 28 0 31 0;
#X connect 29 0 21 0;
#X connect 29 0 31 0;
#X connect 29 0 30 0;
#X connect 29 0 32 0;
#X connect 30 0 23 0;
#X connect 31 0 21 2;
#X connect 32 0 21 1;
#X connect 33 0 29 0;
#X connect 33 1 34 0;
#X connect 34 0 21 2;
#X connect 34 0 35 0;
#X connect 35 0 21 0;
#X connect 37 0 8 0;
#X connect 38 0 4 1;
#X connect 38 0 5 1;
#X connect 39 0 40 0;
#X connect 40 0 22 1;
#X coords 0 -1 1 1 60 60 2 100 100;
#X restore 343 404 pd key;
#N canvas 1387 0 450 1076 key 0;
#X obj 202 11 keyup;
#X obj 18 11 key, f 6;
#X msg 200 264 0;
#X obj 183 314 tgl 50 0 \$0-key-6 empty 6 0 -10 0 12 #fcfcfc #000000 #000000 0 1;
#X obj 18 85 sel;
#X obj 208 97 sel;
#X obj 97 11 loadbang;
#X obj 105 105 cnv 50 50 50 empty \$0-key-6-color 6 20 12 0 12 #bcbcbc #404040 0;
#X obj 26 371 tgl 19 0 empty empty empty 0 -10 0 12 #fcfcfc #000000 #000000 0 1;
#X msg 312 351 color \$1 23;
#X msg 331 299 200;
#X floatatom 18 35 5 0 0 0 - - - 0;
#X msg 155 264 1;
#X msg 293 299 69;
#X obj 35 144 delay 10;
#X obj 29 211 spigot 1;
#X msg 35 168 0;
#X msg 193 185 1;
#X obj 208 121 t b b;
#X obj 18 109 t b b;
#X obj 327 264 loadbang;
#X obj 143 719 pack f f f;
#X obj 174 774 midiout;
#X obj 112 658 + 143;
#X floatatom 112 685 5 0 0 0 - - - 0;
#X msg 143 743 \$1 \$2 \$3;
#X obj 118 476 inlet note;
#X obj 46 559 receive \$0-midi-channel;
#X obj 285 638 receive \$0-midi-velocity;
#X obj 226 566 bng 19 250 50 0 empty empty empty 0 -10 0 12 #fcfcfc #000000 #000000;
#X floatatom 79 620 5 0 0 0 - - - 0;
#X floatatom 285 662 5 0 0 0 - - - 0;
#X floatatom 176 643 5 0 0 0 - - - 0;
#X obj 244 476 sel 1 0;
#X msg 228 645 0;
#X obj 228 669 bng 19 250 50 0 empty empty empty 0 -10 0 12 #fcfcfc #000000 #000000;
#X obj 312 375 s \$0-key-6-color;
#X obj 19 339 r \$0-key-6;
#X msg 98 47 54;
#X obj 284 710 receive \$0-midi-port;
#X floatatom 284 734 5 0 0 0 - - - 0;
#X connect 0 0 5 0;
#X connect 1 0 11 0;
#X connect 2 0 3 0;
#X connect 2 0 10 0;
#X connect 3 0 33 0;
#X connect 4 0 19 0;
#X connect 5 0 18 0;
#X connect 6 0 38 0;
#X connect 9 0 36 0;
#X connect 10 0 9 0;
#X connect 11 0 4 0;
#X connect 12 0 3 0;
#X connect 12 0 13 0;
#X connect 13 0 9 0;
#X connect 14 0 16 0;
#X connect 15 0 12 0;
#X connect 16 0 15 1;
#X connect 17 0 15 1;
#X connect 18 0 17 0;
#X connect 18 1 2 0;
#X connect 19 0 15 0;
#X connect 19 1 14 0;
#X connect 20 0 10 0;
#X connect 21 0 25 0;
#X connect 23 0 24 0;
#X connect 24 0 21 0;
#X connect 25 0 22 0;
#X connect 26 0 29 0;
#X connect 26 0 32 0;
#X connect 27 0 30 0;
#X connect 28 0 31 0;
#X connect 29 0 21 0;
#X connect 29 0 31 0;
#X connect 29 0 30 0;
#X connect 29 0 32 0;
#X connect 30 0 23 0;
#X connect 31 0 21 2;
#X connect 32 0 21 1;
#X connect 33 0 29 0;
#X connect 33 1 34 0;
#X connect 34 0 21 2;
#X connect 34 0 35 0;
#X connect 35 0 21 0;
#X connect 37 0 8 0;
#X connect 38 0 4 1;
#X connect 38 0 5 1;
#X connect 39 0 40 0;
#X connect 40 0 22 1;
#X coords 0 -1 1 1 60 60 2 100 100;
#X restore 404 404 pd key;
#N canvas 1387 0 450 1076 key 0;
#X obj 202 11 keyup;
#X obj 18 11 key, f 6;
#X msg 200 264 0;
#X obj 183 314 tgl 50 0 \$0-key-7 empty 7 0 -10 0 12 #fcfcfc #000000 #000000 0 1;
#X obj 18 85 sel;
#X obj 208 97 sel;
#X obj 97 11 loadbang;
#X obj 105 105 cnv 50 50 50 empty \$0-key-7-color 7 20 12 0 12 #bcbcbc #404040 0;
#X obj 26 371 tgl 19 0 empty empty empty 0 -10 0 12 #fcfcfc #000000 #000000 0 1;
#X msg 312 351 color \$1 23;
#X msg 331 299 200;
#X floatatom 18 35 5 0 0 0 - - - 0;
#X msg 155 264 1;
#X msg 293 299 69;
#X obj 35 144 delay 10;
#X obj 29 211 spigot 1;
#X msg 35 168 0;
#X msg 193 185 1;
#X obj 208 121 t b b;
#X obj 18 109 t b b;
#X obj 327 264 loadbang;
#X obj 312 375 s \$0-key-7-color;
#X obj 19 339 r \$0-key-7;
#X obj 116 736 pack f f f;
#X obj 147 791 midiout;
#X obj 85 675 + 143;
#X floatatom 85 702 5 0 0 0 - - - 0;
#X msg 116 760 \$1 \$2 \$3;
#X obj 91 493 inlet note;
#X obj 19 576 receive \$0-midi-channel;
#X obj 258 655 receive \$0-midi-velocity;
#X obj 199 583 bng 19 250 50 0 empty empty empty 0 -10 0 12 #fcfcfc #000000 #000000;
#X floatatom 52 637 5 0 0 0 - - - 0;
#X floatatom 258 679 5 0 0 0 - - - 0;
#X floatatom 149 660 5 0 0 0 - - - 0;
#X obj 217 493 sel 1 0;
#X msg 201 662 0;
#X obj 201 686 bng 19 250 50 0 empty empty empty 0 -10 0 12 #fcfcfc #000000 #000000;
#X msg 98 47 55;
#X obj 259 710 receive \$0-midi-port;
#X floatatom 259 734 5 0 0 0 - - - 0;
#X connect 0 0 5 0;
#X connect 1 0 11 0;
#X connect 2 0 3 0;
#X connect 2 0 10 0;
#X connect 3 0 35 0;
#X connect 4 0 19 0;
#X connect 5 0 18 0;
#X connect 6 0 38 0;
#X connect 9 0 21 0;
#X connect 10 0 9 0;
#X connect 11 0 4 0;
#X connect 12 0 3 0;
#X connect 12 0 13 0;
#X connect 13 0 9 0;
#X connect 14 0 16 0;
#X connect 15 0 12 0;
#X connect 16 0 15 1;
#X connect 17 0 15 1;
#X connect 18 0 17 0;
#X connect 18 1 2 0;
#X connect 19 0 15 0;
#X connect 19 1 14 0;
#X connect 20 0 10 0;
#X connect 22 0 8 0;
#X connect 23 0 27 0;
#X connect 25 0 26 0;
#X connect 26 0 23 0;
#X connect 27 0 24 0;
#X connect 28 0 31 0;
#X connect 28 0 34 0;
#X connect 29 0 32 0;
#X connect 30 0 33 0;
#X connect 31 0 23 0;
#X connect 31 0 33 0;
#X connect 31 0 32 0;
#X connect 31 0 34 0;
#X connect 32 0 25 0;
#X connect 33 0 23 2;
#X connect 34 0 23 1;
#X connect 35 0 31 0;
#X connect 35 1 36 0;
#X connect 36 0 23 2;
#X connect 36 0 37 0;
#X connect 37 0 23 0;
#X connect 38 0 4 1;
#X connect 38 0 5 1;
#X connect 39 0 40 0;
#X connect 40 0 24 1;
#X coords 0 -1 1 1 60 60 2 100 100;
#X restore 465 404 pd key;
#X obj 722 675 send \$0-midi-velocity;
#X obj 624 724 send \$0-midi-channel;
#X obj 825 633 send \$0-midi-port;
#X msg 824 592 1;
#X obj 160 404 key-abs 50 2;
#X floatatom 498 42 5 0 0 0 - - - 0;
#X obj 498 65 symbol;
#X floatatom 498 89 5 0 0 0 - - - 0;
#X obj 777 770 pack f f f;
#X obj 460 822 noteout-abs;
#X floatatom 26 211 5 0 0 0 - - - 0;
#X obj 26 234 * 12;
#X floatatom 26 258 5 0 0 0 - - - 0;
#X floatatom 591 289 5 0 0 0 - - - 0;
#X obj 611 314 + 1;
#X floatatom 635 289 5 0 0 0 - - - 0;
#X obj 655 314 + 1;
#X floatatom 677 289 5 0 0 0 - - - 0;
#X obj 697 314 + 1;
#X floatatom 721 289 5 0 0 0 - - - 0;
#X obj 740 314 + 1;
#X floatatom 764 289 5 0 0 0 - - - 0;
#X obj 784 314 + 1;
#X floatatom 808 289 5 0 0 0 - - - 0;
#X obj 828 314 + 1;
#X floatatom 850 289 5 0 0 0 - - - 0;
#X obj 870 314 + 1;
#X floatatom 894 289 5 0 0 0 - - - 0;
#X obj 914 314 + 1;
#X floatatom 26 288 5 0 0 0 - - - 0;
#X obj 46 313 + 1;
#X floatatom 70 288 5 0 0 0 - - - 0;
#X obj 90 313 + 1;
#X floatatom 112 288 5 0 0 0 - - - 0;
#X obj 132 313 + 1;
#X floatatom 156 288 5 0 0 0 - - - 0;
#X obj 176 313 + 1;
#X floatatom 199 288 5 0 0 0 - - - 0;
#X obj 219 313 + 1;
#X floatatom 243 288 5 0 0 0 - - - 0;
#X obj 263 313 + 1;
#X floatatom 285 288 5 0 0 0 - - - 0;
#X obj 305 313 + 1;
#X floatatom 329 288 5 0 0 0 - - - 0;
#X obj 349 313 + 1;
#X floatatom 372 288 5 0 0 0 - - - 0;
#X obj 392 313 + 1;
#X floatatom 416 288 5 0 0 0 - - - 0;
#X obj 436 313 + 1;
#X floatatom 458 288 5 0 0 0 - - - 0;
#X obj 478 313 + 1;
#X floatatom 502 288 5 0 0 0 - - - 0;
#X obj 525 318 + 1;
#X floatatom 938 289 5 0 0 0 - - - 0;
#X obj 958 314 + 1;
#X floatatom 982 289 5 0 0 0 - - - 0;
#X obj 1002 314 + 1;
#X floatatom 1024 289 5 0 0 0 - - - 0;
#X obj 1044 314 + 1;
#X floatatom 1068 289 5 0 0 0 - - - 0;
#N canvas 160 160 1169 822 mout 0;
#X obj 102 214 pack f f f;
#X obj 133 269 midiout;
#X obj 71 153 + 143;
#X floatatom 71 180 5 0 0 0 - - - 0;
#X msg 102 238 \$1 \$2 \$3;
#X obj 165 23 inlet note;
#X obj 55 122 receive \$0-midi-channel;
#X obj 200 210 loadbang;
#X obj 228 122 receive \$0-midi-velocity;
#X msg 199 240 2;
#X obj 123 87 bng 19 250 50 0 empty empty empty 0 -10 0 12 #fcfcfc #000000 #000000;
#X obj 246 57 tgl 19 0 empty empty empty 0 -10 0 12 #fcfcfc #000000 #000000 0 1;
#X obj 246 81 sel 0;
#X connect 0 0 4 0;
#X connect 2 0 3 0;
#X connect 3 0 0 0;
#X connect 4 0 1 0;
#X connect 5 0 0 1;
#X connect 5 0 10 0;
#X connect 5 0 11 0;
#X connect 6 0 2 0;
#X connect 7 0 9 0;
#X connect 8 0 0 2;
#X connect 9 0 1 1;
#X connect 10 0 0 0;
#X connect 11 0 12 0;
#X connect 12 0 0 1;
#X restore 1039 206 pd mout;
#X connect 21 0 25 0;
#X connect 22 0 23 0;
#X connect 22 0 24 0;
#X connect 22 0 33 0;
#X connect 23 0 21 0;
#X connect 24 0 31 0;
#X connect 24 0 38 0;
#X connect 25 0 30 0;
#X connect 25 0 38 1;
#X connect 33 0 32 0;
#X connect 33 0 38 2;
#X connect 35 0 36 0;
#X connect 36 0 37 0;
#X connect 38 0 39 2;
#X connect 40 0 41 0;
#X connect 41 0 42 0;
#X connect 42 0 59 0;
#X connect 43 0 44 0;
#X connect 44 0 45 0;
#X connect 45 0 46 0;
#X connect 46 0 47 0;
#X connect 47 0 48 0;
#X connect 48 0 49 0;
#X connect 49 0 50 0;
#X connect 50 0 51 0;
#X connect 51 0 52 0;
#X connect 52 0 53 0;
#X connect 53 0 54 0;
#X connect 54 0 55 0;
#X connect 55 0 56 0;
#X connect 56 0 57 0;
#X connect 57 0 58 0;
#X connect 58 0 83 0;
#X connect 59 0 60 0;
#X connect 60 0 61 0;
#X connect 61 0 62 0;
#X connect 62 0 63 0;
#X connect 63 0 64 0;
#X connect 64 0 65 0;
#X connect 65 0 66 0;
#X connect 66 0 67 0;
#X connect 67 0 68 0;
#X connect 68 0 69 0;
#X connect 69 0 70 0;
#X connect 70 0 71 0;
#X connect 71 0 72 0;
#X connect 72 0 73 0;
#X connect 73 0 74 0;
#X connect 74 0 75 0;
#X connect 75 0 76 0;
#X connect 76 0 77 0;
#X connect 77 0 78 0;
#X connect 78 0 79 0;
#X connect 79 0 80 0;
#X connect 80 0 81 0;
#X connect 81 0 82 0;
#X connect 82 0 43 0;
#X connect 83 0 84 0;
#X connect 84 0 85 0;
#X connect 85 0 86 0;
#X connect 86 0 87 0;
#X connect 87 0 88 0;
#X connect 88 0 89 0;
#X coords 0 -1 1 1 660 250 2 110 400;
#X restore 23 19 pd keyboard;
