#N canvas 1307 562 450 300 12;
#X obj 92 61 key;
#X obj 147 64 keyname;
#X obj 238 64 keyup;
#X obj 116 137 pack f f s f;
#X obj 116 161 print keyinfo;
#X connect 0 0 3 0;
#X connect 1 0 3 1;
#X connect 1 1 3 2;
#X connect 2 0 3 3;
#X connect 3 0 4 0;
