#N canvas 687 188 710 246 12;
#N canvas 761 193 978 837 keyboard 0;
#N canvas -817 550 450 458 key 0;
#X obj 202 11 keyup;
#X obj 18 11 key, f 6;
#X msg 200 264 0;
#X obj 183 314 tgl 50 0 \$0-key-q empty q 0 -10 0 12 #fcfcfc #000000 #000000 0 1;
#X msg 98 47 113;
#X obj 18 85 sel;
#X obj 208 97 sel;
#X obj 97 11 loadbang;
#X obj 106 105 cnv 50 50 50 empty \$0-key-q-color q 20 12 0 12 #bcbcbc #404040 0;
#X obj 312 375 s \$0-key-q-color;
#X obj 26 371 tgl 19 0 empty empty empty 0 -10 0 12 #fcfcfc #000000 #000000 0 1;
#X obj 19 339 r \$0-key-q;
#X msg 312 351 color \$1 23;
#X msg 331 299 200;
#X floatatom 18 35 5 0 0 0 - - - 0;
#X obj 126 399 outlet;
#X msg 155 264 1;
#X msg 293 299 69;
#X obj 35 144 delay 10;
#X obj 29 211 spigot 1;
#X msg 35 168 0;
#X msg 193 185 1;
#X obj 208 121 t b b;
#X obj 18 109 t b b;
#X obj 327 264 loadbang;
#X obj 206 394 bng 19 250 50 0 empty empty empty 0 -10 0 12 #fcfcfc #000000 #000000;
#X connect 0 0 6 0;
#X connect 1 0 14 0;
#X connect 2 0 3 0;
#X connect 2 0 13 0;
#X connect 3 0 15 0;
#X connect 3 0 25 0;
#X connect 4 0 5 1;
#X connect 4 0 6 1;
#X connect 5 0 23 0;
#X connect 6 0 22 0;
#X connect 7 0 4 0;
#X connect 11 0 10 0;
#X connect 12 0 9 0;
#X connect 13 0 12 0;
#X connect 14 0 5 0;
#X connect 16 0 3 0;
#X connect 16 0 17 0;
#X connect 17 0 12 0;
#X connect 18 0 20 0;
#X connect 19 0 16 0;
#X connect 20 0 19 1;
#X connect 21 0 19 1;
#X connect 22 0 21 0;
#X connect 22 1 2 0;
#X connect 23 0 19 0;
#X connect 23 1 18 0;
#X connect 24 0 13 0;
#X coords 0 -1 1 1 60 60 2 100 100;
#X restore 111 109 pd key;
#X floatatom 838 358 5 0 0 0 - - - 0;
#X obj 838 381 * 12;
#X floatatom 838 405 5 0 0 0 - - - 0;
#X obj 1071 25 cnv 300 800 300 empty empty empty 20 12 0 12 #e0e0e0 #404040 0;
#X floatatom 190 320 5 0 0 2 QAZ\ Note - - 0;
#N canvas -2928 423 552 424 oct-select 0;
#X obj 213 134 loadbang;
#X msg 213 158 4;
#X obj 213 223 nbx 5 17 1 8 0 0 empty empty OCTAVE 0 -10 0 12 #fcfcfc #000000 #000000 0 256;
#X obj 212 288 t f f f;
#X obj 86 74 key;
#X floatatom 85 102 5 0 0 0 Hunt\ for\ O - - 0;
#X obj 85 162 f;
#X obj 85 186 - 1;
#X obj 342 59 key;
#X floatatom 342 83 5 0 0 1 Hunt\ for\ P - - 0;
#X obj 342 150 f;
#X obj 342 174 + 1;
#X obj 85 125 sel 111;
#X obj 342 106 sel 112;
#X obj 177 31 cnv 19 126 76 empty empty empty 20 12 0 12 #e0e0e0 #404040 0;
#X obj 228 384 outlet;
#X text 211 239 o-;
#X text 257 240 +p;
#X obj 342 215 nbx 5 17 0 16 0 0 empty empty empty 0 -10 0 12 #fcfcfc #000000 #000000 0 256;
#X obj 85 229 nbx 5 17 0 16 0 0 empty empty empty 0 -10 0 12 #fcfcfc #000000 #000000 0 256;
#X connect 0 0 1 0;
#X connect 1 0 2 0;
#X connect 2 0 3 0;
#X connect 3 0 6 1;
#X connect 3 1 15 0;
#X connect 3 2 10 1;
#X connect 4 0 5 0;
#X connect 5 0 12 0;
#X connect 6 0 7 0;
#X connect 7 0 19 0;
#X connect 8 0 9 0;
#X connect 9 0 13 0;
#X connect 10 0 11 0;
#X connect 11 0 18 0;
#X connect 12 0 6 0;
#X connect 13 0 10 0;
#X connect 18 0 2 0;
#X connect 19 0 2 0;
#X coords 0 -1 1 1 85 60 2 200 200;
#X restore 611 112 pd oct-select;
#N canvas -2826 199 450 458 key 0;
#X obj 202 11 keyup;
#X obj 18 11 key, f 6;
#X msg 200 264 0;
#X obj 183 314 tgl 50 0 \$0-key-a empty a 0 -10 0 12 #fcfcfc #000000 #000000 0 1;
#X obj 18 85 sel;
#X obj 208 97 sel;
#X obj 97 11 loadbang;
#X obj 105 105 cnv 50 50 50 empty \$0-key-a-color a 20 12 0 12 #bcbcbc #404040 0;
#X obj 26 371 tgl 19 0 empty empty empty 0 -10 0 12 #fcfcfc #000000 #000000 0 1;
#X msg 312 351 color \$1 23;
#X msg 331 299 200;
#X floatatom 18 35 5 0 0 0 - - - 0;
#X obj 126 399 outlet;
#X msg 155 264 1;
#X msg 293 299 69;
#X obj 35 144 delay 10;
#X obj 29 211 spigot 1;
#X msg 35 168 0;
#X msg 193 185 1;
#X obj 208 121 t b b;
#X obj 18 109 t b b;
#X obj 327 264 loadbang;
#X obj 206 394 bng 19 250 50 0 empty empty empty 0 -10 0 12 #fcfcfc #000000 #000000;
#X obj 312 375 s \$0-key-a-color;
#X obj 19 339 r \$0-key-a;
#X msg 98 47 97;
#X connect 0 0 5 0;
#X connect 1 0 11 0;
#X connect 2 0 3 0;
#X connect 2 0 10 0;
#X connect 3 0 12 0;
#X connect 3 0 22 0;
#X connect 4 0 20 0;
#X connect 5 0 19 0;
#X connect 6 0 25 0;
#X connect 9 0 23 0;
#X connect 10 0 9 0;
#X connect 11 0 4 0;
#X connect 13 0 3 0;
#X connect 13 0 14 0;
#X connect 14 0 9 0;
#X connect 15 0 17 0;
#X connect 16 0 13 0;
#X connect 17 0 16 1;
#X connect 18 0 16 1;
#X connect 19 0 18 0;
#X connect 19 1 2 0;
#X connect 20 0 16 0;
#X connect 20 1 15 0;
#X connect 21 0 10 0;
#X connect 24 0 8 0;
#X connect 25 0 4 1;
#X connect 25 0 5 1;
#X coords 0 -1 1 1 60 60 2 100 100;
#X restore 140 170 pd key;
#N canvas -2826 199 450 458 key 0;
#X obj 202 11 keyup;
#X obj 18 11 key, f 6;
#X msg 200 264 0;
#X obj 183 314 tgl 50 0 \$0-key-z empty z 0 -10 0 12 #fcfcfc #000000 #000000 0 1;
#X obj 18 85 sel;
#X obj 208 97 sel;
#X obj 97 11 loadbang;
#X obj 105 105 cnv 50 50 50 empty \$0-key-z-color z 20 12 0 12 #bcbcbc #404040 0;
#X obj 26 371 tgl 19 0 empty empty empty 0 -10 0 12 #fcfcfc #000000 #000000 0 1;
#X msg 312 351 color \$1 23;
#X msg 331 299 200;
#X floatatom 18 35 5 0 0 0 - - - 0;
#X obj 126 399 outlet;
#X msg 155 264 1;
#X msg 293 299 69;
#X obj 35 144 delay 10;
#X obj 29 211 spigot 1;
#X msg 35 168 0;
#X msg 193 185 1;
#X obj 208 121 t b b;
#X obj 18 109 t b b;
#X obj 327 264 loadbang;
#X obj 206 394 bng 19 250 50 0 empty empty empty 0 -10 0 12 #fcfcfc #000000 #000000;
#X obj 19 339 r \$0-key-z;
#X obj 312 375 s \$0-key-z-color;
#X msg 98 47 122;
#X connect 0 0 5 0;
#X connect 1 0 11 0;
#X connect 2 0 3 0;
#X connect 2 0 10 0;
#X connect 3 0 12 0;
#X connect 3 0 22 0;
#X connect 4 0 20 0;
#X connect 5 0 19 0;
#X connect 6 0 25 0;
#X connect 9 0 24 0;
#X connect 10 0 9 0;
#X connect 11 0 4 0;
#X connect 13 0 3 0;
#X connect 13 0 14 0;
#X connect 14 0 9 0;
#X connect 15 0 17 0;
#X connect 16 0 13 0;
#X connect 17 0 16 1;
#X connect 18 0 16 1;
#X connect 19 0 18 0;
#X connect 19 1 2 0;
#X connect 20 0 16 0;
#X connect 20 1 15 0;
#X connect 21 0 10 0;
#X connect 23 0 8 0;
#X connect 25 0 4 1;
#X connect 25 0 5 1;
#X coords 0 -1 1 1 60 60 2 100 100;
#X restore 174 231 pd key;
#N canvas -2826 199 450 458 key 0;
#X obj 202 11 keyup;
#X obj 18 11 key, f 6;
#X msg 200 264 0;
#X obj 183 314 tgl 50 0 \$0-key-w empty w 0 -10 0 12 #fcfcfc #000000 #000000 0 1;
#X obj 18 85 sel;
#X obj 208 97 sel;
#X obj 97 11 loadbang;
#X obj 105 105 cnv 50 50 50 empty \$0-key-w-color w 20 12 0 12 #bcbcbc #404040 0;
#X obj 26 371 tgl 19 0 empty empty empty 0 -10 0 12 #fcfcfc #000000 #000000 0 1;
#X msg 312 351 color \$1 23;
#X msg 331 299 200;
#X floatatom 18 35 5 0 0 0 - - - 0;
#X obj 126 399 outlet;
#X msg 155 264 1;
#X msg 293 299 69;
#X obj 35 144 delay 10;
#X obj 29 211 spigot 1;
#X msg 35 168 0;
#X msg 193 185 1;
#X obj 208 121 t b b;
#X obj 18 109 t b b;
#X obj 327 264 loadbang;
#X obj 206 394 bng 19 250 50 0 empty empty empty 0 -10 0 12 #fcfcfc #000000 #000000;
#X obj 312 375 s \$0-key-w-color;
#X obj 19 339 r \$0-key-w;
#X msg 98 47 119;
#X connect 0 0 5 0;
#X connect 1 0 11 0;
#X connect 2 0 3 0;
#X connect 2 0 10 0;
#X connect 3 0 12 0;
#X connect 3 0 22 0;
#X connect 4 0 20 0;
#X connect 5 0 19 0;
#X connect 6 0 25 0;
#X connect 9 0 23 0;
#X connect 10 0 9 0;
#X connect 11 0 4 0;
#X connect 13 0 3 0;
#X connect 13 0 14 0;
#X connect 14 0 9 0;
#X connect 15 0 17 0;
#X connect 16 0 13 0;
#X connect 17 0 16 1;
#X connect 18 0 16 1;
#X connect 19 0 18 0;
#X connect 19 1 2 0;
#X connect 20 0 16 0;
#X connect 20 1 15 0;
#X connect 21 0 10 0;
#X connect 24 0 8 0;
#X connect 25 0 4 1;
#X connect 25 0 5 1;
#X coords 0 -1 1 1 60 60 2 100 100;
#X restore 172 109 pd key;
#N canvas -2826 199 450 458 key 0;
#X obj 202 11 keyup;
#X obj 18 11 key, f 6;
#X msg 200 264 0;
#X obj 183 314 tgl 50 0 \$0-key-s empty s 0 -10 0 12 #fcfcfc #000000 #000000 0 1;
#X obj 18 85 sel;
#X obj 208 97 sel;
#X obj 97 11 loadbang;
#X obj 105 105 cnv 50 50 50 empty \$0-key-s-color s 20 12 0 12 #bcbcbc #404040 0;
#X obj 26 371 tgl 19 0 empty empty empty 0 -10 0 12 #fcfcfc #000000 #000000 0 1;
#X msg 312 351 color \$1 23;
#X msg 331 299 200;
#X floatatom 18 35 5 0 0 0 - - - 0;
#X obj 126 399 outlet;
#X msg 155 264 1;
#X msg 293 299 69;
#X obj 35 144 delay 10;
#X obj 29 211 spigot 1;
#X msg 35 168 0;
#X msg 193 185 1;
#X obj 208 121 t b b;
#X obj 18 109 t b b;
#X obj 327 264 loadbang;
#X obj 206 394 bng 19 250 50 0 empty empty empty 0 -10 0 12 #fcfcfc #000000 #000000;
#X obj 312 375 s \$0-key-s-color;
#X obj 19 339 r \$0-key-s;
#X msg 98 47 115;
#X connect 0 0 5 0;
#X connect 1 0 11 0;
#X connect 2 0 3 0;
#X connect 2 0 10 0;
#X connect 3 0 12 0;
#X connect 3 0 22 0;
#X connect 4 0 20 0;
#X connect 5 0 19 0;
#X connect 6 0 25 0;
#X connect 9 0 23 0;
#X connect 10 0 9 0;
#X connect 11 0 4 0;
#X connect 13 0 3 0;
#X connect 13 0 14 0;
#X connect 14 0 9 0;
#X connect 15 0 17 0;
#X connect 16 0 13 0;
#X connect 17 0 16 1;
#X connect 18 0 16 1;
#X connect 19 0 18 0;
#X connect 19 1 2 0;
#X connect 20 0 16 0;
#X connect 20 1 15 0;
#X connect 21 0 10 0;
#X connect 24 0 8 0;
#X connect 25 0 4 1;
#X connect 25 0 5 1;
#X coords 0 -1 1 1 60 60 2 100 100;
#X restore 201 170 pd key;
#N canvas 1387 199 450 458 key 0;
#X obj 202 11 keyup;
#X obj 18 11 key, f 6;
#X msg 200 264 0;
#X obj 183 314 tgl 50 0 \$0-key-x empty x 0 -10 0 12 #fcfcfc #000000 #000000 0 1;
#X obj 18 85 sel;
#X obj 208 97 sel;
#X obj 97 11 loadbang;
#X obj 105 105 cnv 50 50 50 empty \$0-key-x-color x 20 12 0 12 #bcbcbc #404040 0;
#X obj 26 371 tgl 19 0 empty empty empty 0 -10 0 12 #fcfcfc #000000 #000000 0 1;
#X msg 312 351 color \$1 23;
#X msg 331 299 200;
#X floatatom 18 35 5 0 0 0 - - - 0;
#X obj 126 399 outlet;
#X msg 155 264 1;
#X msg 293 299 69;
#X obj 35 144 delay 10;
#X obj 29 211 spigot 1;
#X msg 35 168 0;
#X msg 193 185 1;
#X obj 208 121 t b b;
#X obj 18 109 t b b;
#X obj 327 264 loadbang;
#X obj 206 394 bng 19 250 50 0 empty empty empty 0 -10 0 12 #fcfcfc #000000 #000000;
#X msg 98 47 120;
#X obj 312 375 s \$0-key-x-color;
#X obj 19 339 r \$0-key-x;
#X connect 0 0 5 0;
#X connect 1 0 11 0;
#X connect 2 0 3 0;
#X connect 2 0 10 0;
#X connect 3 0 12 0;
#X connect 3 0 22 0;
#X connect 4 0 20 0;
#X connect 5 0 19 0;
#X connect 6 0 23 0;
#X connect 9 0 24 0;
#X connect 10 0 9 0;
#X connect 11 0 4 0;
#X connect 13 0 3 0;
#X connect 13 0 14 0;
#X connect 14 0 9 0;
#X connect 15 0 17 0;
#X connect 16 0 13 0;
#X connect 17 0 16 1;
#X connect 18 0 16 1;
#X connect 19 0 18 0;
#X connect 19 1 2 0;
#X connect 20 0 16 0;
#X connect 20 1 15 0;
#X connect 21 0 10 0;
#X connect 23 0 4 1;
#X connect 23 0 5 1;
#X connect 25 0 8 0;
#X coords 0 -1 1 1 60 60 2 100 100;
#X restore 235 231 pd key;
#X floatatom 288 320 5 0 0 2 WSX\ Note - - 0;
#N canvas 1387 199 450 458 key 0;
#X obj 202 11 keyup;
#X obj 18 11 key, f 6;
#X msg 200 264 0;
#X obj 183 314 tgl 50 0 \$0-key-e empty e 0 -10 0 12 #fcfcfc #000000 #000000 0 1;
#X obj 18 85 sel;
#X obj 208 97 sel;
#X obj 97 11 loadbang;
#X obj 105 105 cnv 50 50 50 empty \$0-key-e-color e 20 12 0 12 #bcbcbc #404040 0;
#X obj 26 371 tgl 19 0 empty empty empty 0 -10 0 12 #fcfcfc #000000 #000000 0 1;
#X msg 312 351 color \$1 23;
#X msg 331 299 200;
#X floatatom 18 35 5 0 0 0 - - - 0;
#X obj 126 399 outlet;
#X msg 155 264 1;
#X msg 293 299 69;
#X obj 35 144 delay 10;
#X obj 29 211 spigot 1;
#X msg 35 168 0;
#X msg 193 185 1;
#X obj 208 121 t b b;
#X obj 18 109 t b b;
#X obj 327 264 loadbang;
#X obj 206 394 bng 19 250 50 0 empty empty empty 0 -10 0 12 #fcfcfc #000000 #000000;
#X msg 98 47 101;
#X obj 312 375 s \$0-key-e-color;
#X obj 19 339 r \$0-key-e;
#X connect 0 0 5 0;
#X connect 1 0 11 0;
#X connect 2 0 3 0;
#X connect 2 0 10 0;
#X connect 3 0 12 0;
#X connect 3 0 22 0;
#X connect 4 0 20 0;
#X connect 5 0 19 0;
#X connect 6 0 23 0;
#X connect 9 0 24 0;
#X connect 10 0 9 0;
#X connect 11 0 4 0;
#X connect 13 0 3 0;
#X connect 13 0 14 0;
#X connect 14 0 9 0;
#X connect 15 0 17 0;
#X connect 16 0 13 0;
#X connect 17 0 16 1;
#X connect 18 0 16 1;
#X connect 19 0 18 0;
#X connect 19 1 2 0;
#X connect 20 0 16 0;
#X connect 20 1 15 0;
#X connect 21 0 10 0;
#X connect 23 0 4 1;
#X connect 23 0 5 1;
#X connect 25 0 8 0;
#X coords 0 -1 1 1 60 60 2 100 100;
#X restore 233 109 pd key;
#N canvas 1387 199 450 458 key 0;
#X obj 202 11 keyup;
#X obj 18 11 key, f 6;
#X msg 200 264 0;
#X obj 183 314 tgl 50 0 \$0-key-d empty d 0 -10 0 12 #fcfcfc #000000 #000000 0 1;
#X obj 18 85 sel;
#X obj 208 97 sel;
#X obj 97 11 loadbang;
#X obj 105 105 cnv 50 50 50 empty \$0-key-d-color d 20 12 0 12 #bcbcbc #404040 0;
#X obj 26 371 tgl 19 0 empty empty empty 0 -10 0 12 #fcfcfc #000000 #000000 0 1;
#X msg 312 351 color \$1 23;
#X msg 331 299 200;
#X floatatom 18 35 5 0 0 0 - - - 0;
#X obj 126 399 outlet;
#X msg 155 264 1;
#X msg 293 299 69;
#X obj 35 144 delay 10;
#X obj 29 211 spigot 1;
#X msg 35 168 0;
#X msg 193 185 1;
#X obj 208 121 t b b;
#X obj 18 109 t b b;
#X obj 327 264 loadbang;
#X obj 206 394 bng 19 250 50 0 empty empty empty 0 -10 0 12 #fcfcfc #000000 #000000;
#X obj 19 339 r \$0-key-d;
#X obj 312 375 s \$0-key-d-color;
#X msg 98 47 100;
#X connect 0 0 5 0;
#X connect 1 0 11 0;
#X connect 2 0 3 0;
#X connect 2 0 10 0;
#X connect 3 0 12 0;
#X connect 3 0 22 0;
#X connect 4 0 20 0;
#X connect 5 0 19 0;
#X connect 6 0 25 0;
#X connect 9 0 24 0;
#X connect 10 0 9 0;
#X connect 11 0 4 0;
#X connect 13 0 3 0;
#X connect 13 0 14 0;
#X connect 14 0 9 0;
#X connect 15 0 17 0;
#X connect 16 0 13 0;
#X connect 17 0 16 1;
#X connect 18 0 16 1;
#X connect 19 0 18 0;
#X connect 19 1 2 0;
#X connect 20 0 16 0;
#X connect 20 1 15 0;
#X connect 21 0 10 0;
#X connect 23 0 8 0;
#X connect 25 0 4 1;
#X connect 25 0 5 1;
#X coords 0 -1 1 1 60 60 2 100 100;
#X restore 262 170 pd key;
#N canvas 1387 199 450 458 key 0;
#X obj 202 11 keyup;
#X obj 18 11 key, f 6;
#X msg 200 264 0;
#X obj 183 314 tgl 50 0 \$0-key-c empty c 0 -10 0 12 #fcfcfc #000000 #000000 0 1;
#X obj 18 85 sel;
#X obj 208 97 sel;
#X obj 97 11 loadbang;
#X obj 106 105 cnv 50 50 50 empty \$0-key-c-color c 20 12 0 12 #bcbcbc #404040 0;
#X obj 26 371 tgl 19 0 empty empty empty 0 -10 0 12 #fcfcfc #000000 #000000 0 1;
#X msg 312 351 color \$1 23;
#X msg 331 299 200;
#X floatatom 18 35 5 0 0 0 - - - 0;
#X obj 126 399 outlet;
#X msg 155 264 1;
#X msg 293 299 69;
#X obj 35 144 delay 10;
#X obj 29 211 spigot 1;
#X msg 35 168 0;
#X msg 193 185 1;
#X obj 208 121 t b b;
#X obj 18 109 t b b;
#X obj 327 264 loadbang;
#X obj 206 394 bng 19 250 50 0 empty empty empty 0 -10 0 12 #fcfcfc #000000 #000000;
#X obj 312 375 s \$0-key-c-color;
#X obj 19 339 r \$0-key-c;
#X msg 98 47 99;
#X connect 0 0 5 0;
#X connect 1 0 11 0;
#X connect 2 0 3 0;
#X connect 2 0 10 0;
#X connect 3 0 12 0;
#X connect 3 0 22 0;
#X connect 4 0 20 0;
#X connect 5 0 19 0;
#X connect 6 0 25 0;
#X connect 9 0 23 0;
#X connect 10 0 9 0;
#X connect 11 0 4 0;
#X connect 13 0 3 0;
#X connect 13 0 14 0;
#X connect 14 0 9 0;
#X connect 15 0 17 0;
#X connect 16 0 13 0;
#X connect 17 0 16 1;
#X connect 18 0 16 1;
#X connect 19 0 18 0;
#X connect 19 1 2 0;
#X connect 20 0 16 0;
#X connect 20 1 15 0;
#X connect 21 0 10 0;
#X connect 24 0 8 0;
#X connect 25 0 4 1;
#X connect 25 0 5 1;
#X coords 0 -1 1 1 60 60 2 100 100;
#X restore 296 231 pd key;
#X floatatom 374 320 5 0 0 2 EDC\ Note - - 0;
#N canvas 1387 199 450 458 key 0;
#X obj 202 11 keyup;
#X obj 18 11 key, f 6;
#X msg 200 264 0;
#X obj 183 314 tgl 50 0 \$0-key-r empty r 0 -10 0 12 #fcfcfc #000000 #000000 0 1;
#X obj 18 85 sel;
#X obj 208 97 sel;
#X obj 97 11 loadbang;
#X obj 105 105 cnv 50 50 50 empty \$0-key-r-color r 20 12 0 12 #bcbcbc #404040 0;
#X obj 26 371 tgl 19 0 empty empty empty 0 -10 0 12 #fcfcfc #000000 #000000 0 1;
#X msg 312 351 color \$1 23;
#X msg 331 299 200;
#X floatatom 18 35 5 0 0 0 - - - 0;
#X obj 126 399 outlet;
#X msg 155 264 1;
#X msg 293 299 69;
#X obj 35 144 delay 10;
#X obj 29 211 spigot 1;
#X msg 35 168 0;
#X msg 193 185 1;
#X obj 208 121 t b b;
#X obj 18 109 t b b;
#X obj 327 264 loadbang;
#X obj 206 394 bng 19 250 50 0 empty empty empty 0 -10 0 12 #fcfcfc #000000 #000000;
#X obj 312 375 s \$0-key-r-color;
#X msg 98 47 114;
#X obj 19 339 r \$0-key-r;
#X connect 0 0 5 0;
#X connect 1 0 11 0;
#X connect 2 0 3 0;
#X connect 2 0 10 0;
#X connect 3 0 12 0;
#X connect 3 0 22 0;
#X connect 4 0 20 0;
#X connect 5 0 19 0;
#X connect 6 0 24 0;
#X connect 9 0 23 0;
#X connect 10 0 9 0;
#X connect 11 0 4 0;
#X connect 13 0 3 0;
#X connect 13 0 14 0;
#X connect 14 0 9 0;
#X connect 15 0 17 0;
#X connect 16 0 13 0;
#X connect 17 0 16 1;
#X connect 18 0 16 1;
#X connect 19 0 18 0;
#X connect 19 1 2 0;
#X connect 20 0 16 0;
#X connect 20 1 15 0;
#X connect 21 0 10 0;
#X connect 24 0 4 1;
#X connect 24 0 5 1;
#X connect 25 0 8 0;
#X coords 0 -1 1 1 60 60 2 100 100;
#X restore 294 109 pd key;
#N canvas 1387 199 450 458 key 0;
#X obj 202 11 keyup;
#X obj 18 11 key, f 6;
#X msg 200 264 0;
#X obj 183 314 tgl 50 0 \$0-key-f empty f 0 -10 0 12 #fcfcfc #000000 #000000 0 1;
#X obj 18 85 sel;
#X obj 208 97 sel;
#X obj 97 11 loadbang;
#X obj 105 105 cnv 50 50 50 empty \$0-key-f-color f 20 12 0 12 #bcbcbc #404040 0;
#X obj 26 371 tgl 19 0 empty empty empty 0 -10 0 12 #fcfcfc #000000 #000000 0 1;
#X msg 312 351 color \$1 23;
#X msg 331 299 200;
#X floatatom 18 35 5 0 0 0 - - - 0;
#X obj 126 399 outlet;
#X msg 155 264 1;
#X msg 293 299 69;
#X obj 35 144 delay 10;
#X obj 29 211 spigot 1;
#X msg 35 168 0;
#X msg 193 185 1;
#X obj 208 121 t b b;
#X obj 18 109 t b b;
#X obj 327 264 loadbang;
#X obj 206 394 bng 19 250 50 0 empty empty empty 0 -10 0 12 #fcfcfc #000000 #000000;
#X obj 312 375 s \$0-key-f-color;
#X obj 19 339 r \$0-key-f;
#X msg 98 47 102;
#X connect 0 0 5 0;
#X connect 1 0 11 0;
#X connect 2 0 3 0;
#X connect 2 0 10 0;
#X connect 3 0 12 0;
#X connect 3 0 22 0;
#X connect 4 0 20 0;
#X connect 5 0 19 0;
#X connect 6 0 25 0;
#X connect 9 0 23 0;
#X connect 10 0 9 0;
#X connect 11 0 4 0;
#X connect 13 0 3 0;
#X connect 13 0 14 0;
#X connect 14 0 9 0;
#X connect 15 0 17 0;
#X connect 16 0 13 0;
#X connect 17 0 16 1;
#X connect 18 0 16 1;
#X connect 19 0 18 0;
#X connect 19 1 2 0;
#X connect 20 0 16 0;
#X connect 20 1 15 0;
#X connect 21 0 10 0;
#X connect 24 0 8 0;
#X connect 25 0 4 1;
#X connect 25 0 5 1;
#X coords 0 -1 1 1 60 60 2 100 100;
#X restore 323 170 pd key;
#N canvas 1387 199 450 458 key 0;
#X obj 202 11 keyup;
#X obj 18 11 key, f 6;
#X msg 200 264 0;
#X obj 183 314 tgl 50 0 \$0-key-v empty v 0 -10 0 12 #fcfcfc #000000 #000000 0 1;
#X obj 18 85 sel;
#X obj 208 97 sel;
#X obj 97 11 loadbang;
#X obj 105 105 cnv 50 50 50 empty \$0-key-v-color v 20 12 0 12 #bcbcbc #404040 0;
#X obj 26 371 tgl 19 0 empty empty empty 0 -10 0 12 #fcfcfc #000000 #000000 0 1;
#X msg 312 351 color \$1 23;
#X msg 331 299 200;
#X floatatom 18 35 5 0 0 0 - - - 0;
#X obj 126 399 outlet;
#X msg 155 264 1;
#X msg 293 299 69;
#X obj 35 144 delay 10;
#X obj 29 211 spigot 1;
#X msg 35 168 0;
#X msg 193 185 1;
#X obj 208 121 t b b;
#X obj 18 109 t b b;
#X obj 327 264 loadbang;
#X obj 206 394 bng 19 250 50 0 empty empty empty 0 -10 0 12 #fcfcfc #000000 #000000;
#X obj 19 339 r \$0-key-v;
#X obj 312 375 s \$0-key-v-color;
#X msg 98 47 118;
#X connect 0 0 5 0;
#X connect 1 0 11 0;
#X connect 2 0 3 0;
#X connect 2 0 10 0;
#X connect 3 0 12 0;
#X connect 3 0 22 0;
#X connect 4 0 20 0;
#X connect 5 0 19 0;
#X connect 6 0 25 0;
#X connect 9 0 24 0;
#X connect 10 0 9 0;
#X connect 11 0 4 0;
#X connect 13 0 3 0;
#X connect 13 0 14 0;
#X connect 14 0 9 0;
#X connect 15 0 17 0;
#X connect 16 0 13 0;
#X connect 17 0 16 1;
#X connect 18 0 16 1;
#X connect 19 0 18 0;
#X connect 19 1 2 0;
#X connect 20 0 16 0;
#X connect 20 1 15 0;
#X connect 21 0 10 0;
#X connect 23 0 8 0;
#X connect 25 0 4 1;
#X connect 25 0 5 1;
#X coords 0 -1 1 1 60 60 2 100 100;
#X restore 357 231 pd key;
#X floatatom 460 320 5 0 0 2 RFV\ Note - - 0;
#X obj 374 343 + 1;
#N canvas 1387 199 450 458 key 0;
#X obj 202 11 keyup;
#X obj 18 11 key, f 6;
#X msg 200 264 0;
#X obj 183 314 tgl 50 0 \$0-key-t empty t 0 -10 0 12 #fcfcfc #000000 #000000 0 1;
#X obj 18 85 sel;
#X obj 208 97 sel;
#X obj 97 11 loadbang;
#X obj 105 105 cnv 50 50 50 empty \$0-key-t-color t 20 12 0 12 #bcbcbc #404040 0;
#X obj 26 371 tgl 19 0 empty empty empty 0 -10 0 12 #fcfcfc #000000 #000000 0 1;
#X msg 312 351 color \$1 23;
#X msg 331 299 200;
#X floatatom 18 35 5 0 0 0 - - - 0;
#X obj 126 399 outlet;
#X msg 155 264 1;
#X msg 293 299 69;
#X obj 35 144 delay 10;
#X obj 29 211 spigot 1;
#X msg 35 168 0;
#X msg 193 185 1;
#X obj 208 121 t b b;
#X obj 18 109 t b b;
#X obj 327 264 loadbang;
#X obj 206 394 bng 19 250 50 0 empty empty empty 0 -10 0 12 #fcfcfc #000000 #000000;
#X obj 312 375 s \$0-key-t-color;
#X obj 19 339 r \$0-key-t;
#X msg 98 47 116;
#X connect 0 0 5 0;
#X connect 1 0 11 0;
#X connect 2 0 3 0;
#X connect 2 0 10 0;
#X connect 3 0 12 0;
#X connect 3 0 22 0;
#X connect 4 0 20 0;
#X connect 5 0 19 0;
#X connect 6 0 25 0;
#X connect 9 0 23 0;
#X connect 10 0 9 0;
#X connect 11 0 4 0;
#X connect 13 0 3 0;
#X connect 13 0 14 0;
#X connect 14 0 9 0;
#X connect 15 0 17 0;
#X connect 16 0 13 0;
#X connect 17 0 16 1;
#X connect 18 0 16 1;
#X connect 19 0 18 0;
#X connect 19 1 2 0;
#X connect 20 0 16 0;
#X connect 20 1 15 0;
#X connect 21 0 10 0;
#X connect 24 0 8 0;
#X connect 25 0 4 1;
#X connect 25 0 5 1;
#X coords 0 -1 1 1 60 60 2 100 100;
#X restore 355 109 pd key;
#N canvas 1387 199 450 458 key 0;
#X obj 202 11 keyup;
#X obj 18 11 key, f 6;
#X msg 200 264 0;
#X obj 183 314 tgl 50 0 \$0-key-g empty g 0 -10 0 12 #fcfcfc #000000 #000000 0 1;
#X obj 18 85 sel;
#X obj 208 97 sel;
#X obj 97 11 loadbang;
#X obj 105 105 cnv 50 50 50 empty \$0-key-g-color g 20 12 0 12 #bcbcbc #404040 0;
#X obj 26 371 tgl 19 0 empty empty empty 0 -10 0 12 #fcfcfc #000000 #000000 0 1;
#X msg 312 351 color \$1 23;
#X msg 331 299 200;
#X floatatom 18 35 5 0 0 0 - - - 0;
#X obj 126 399 outlet;
#X msg 155 264 1;
#X msg 293 299 69;
#X obj 35 144 delay 10;
#X obj 29 211 spigot 1;
#X msg 35 168 0;
#X msg 193 185 1;
#X obj 208 121 t b b;
#X obj 18 109 t b b;
#X obj 327 264 loadbang;
#X obj 206 394 bng 19 250 50 0 empty empty empty 0 -10 0 12 #fcfcfc #000000 #000000;
#X obj 312 375 s \$0-key-g-color;
#X obj 19 339 r \$0-key-g;
#X msg 98 47 103;
#X connect 0 0 5 0;
#X connect 1 0 11 0;
#X connect 2 0 3 0;
#X connect 2 0 10 0;
#X connect 3 0 12 0;
#X connect 3 0 22 0;
#X connect 4 0 20 0;
#X connect 5 0 19 0;
#X connect 6 0 25 0;
#X connect 9 0 23 0;
#X connect 10 0 9 0;
#X connect 11 0 4 0;
#X connect 13 0 3 0;
#X connect 13 0 14 0;
#X connect 14 0 9 0;
#X connect 15 0 17 0;
#X connect 16 0 13 0;
#X connect 17 0 16 1;
#X connect 18 0 16 1;
#X connect 19 0 18 0;
#X connect 19 1 2 0;
#X connect 20 0 16 0;
#X connect 20 1 15 0;
#X connect 21 0 10 0;
#X connect 24 0 8 0;
#X connect 25 0 4 1;
#X connect 25 0 5 1;
#X coords 0 -1 1 1 60 60 2 100 100;
#X restore 384 170 pd key;
#N canvas 1387 199 450 458 key 0;
#X obj 202 11 keyup;
#X obj 18 11 key, f 6;
#X msg 200 264 0;
#X obj 183 314 tgl 50 0 \$0-key-b empty b 0 -10 0 12 #fcfcfc #000000 #000000 0 1;
#X obj 18 85 sel;
#X obj 208 97 sel;
#X obj 97 11 loadbang;
#X obj 105 105 cnv 50 50 50 empty \$0-key-b-color b 20 12 0 12 #bcbcbc #404040 0;
#X obj 26 371 tgl 19 0 empty empty empty 0 -10 0 12 #fcfcfc #000000 #000000 0 1;
#X msg 312 351 color \$1 23;
#X msg 331 299 200;
#X floatatom 18 35 5 0 0 0 - - - 0;
#X obj 126 399 outlet;
#X msg 155 264 1;
#X msg 293 299 69;
#X obj 35 144 delay 10;
#X obj 29 211 spigot 1;
#X msg 35 168 0;
#X msg 193 185 1;
#X obj 208 121 t b b;
#X obj 18 109 t b b;
#X obj 327 264 loadbang;
#X obj 206 394 bng 19 250 50 0 empty empty empty 0 -10 0 12 #fcfcfc #000000 #000000;
#X obj 312 375 s \$0-key-b-color;
#X obj 19 339 r \$0-key-b;
#X msg 98 47 98;
#X connect 0 0 5 0;
#X connect 1 0 11 0;
#X connect 2 0 3 0;
#X connect 2 0 10 0;
#X connect 3 0 12 0;
#X connect 3 0 22 0;
#X connect 4 0 20 0;
#X connect 5 0 19 0;
#X connect 6 0 25 0;
#X connect 9 0 23 0;
#X connect 10 0 9 0;
#X connect 11 0 4 0;
#X connect 13 0 3 0;
#X connect 13 0 14 0;
#X connect 14 0 9 0;
#X connect 15 0 17 0;
#X connect 16 0 13 0;
#X connect 17 0 16 1;
#X connect 18 0 16 1;
#X connect 19 0 18 0;
#X connect 19 1 2 0;
#X connect 20 0 16 0;
#X connect 20 1 15 0;
#X connect 21 0 10 0;
#X connect 24 0 8 0;
#X connect 25 0 4 1;
#X connect 25 0 5 1;
#X coords 0 -1 1 1 60 60 2 100 100;
#X restore 418 231 pd key;
#X floatatom 546 320 5 0 0 2 TGB\ Note - - 0;
#N canvas 1387 199 450 458 key 0;
#X obj 202 11 keyup;
#X obj 18 11 key, f 6;
#X msg 200 264 0;
#X obj 183 314 tgl 50 0 \$0-key-y empty y 0 -10 0 12 #fcfcfc #000000 #000000 0 1;
#X obj 18 85 sel;
#X obj 208 97 sel;
#X obj 97 11 loadbang;
#X obj 105 105 cnv 50 50 50 empty \$0-key-y-color y 20 12 0 12 #bcbcbc #404040 0;
#X obj 26 371 tgl 19 0 empty empty empty 0 -10 0 12 #fcfcfc #000000 #000000 0 1;
#X msg 312 351 color \$1 23;
#X msg 331 299 200;
#X floatatom 18 35 5 0 0 0 - - - 0;
#X obj 126 399 outlet;
#X msg 155 264 1;
#X msg 293 299 69;
#X obj 35 144 delay 10;
#X obj 29 211 spigot 1;
#X msg 35 168 0;
#X msg 193 185 1;
#X obj 208 121 t b b;
#X obj 18 109 t b b;
#X obj 327 264 loadbang;
#X obj 206 394 bng 19 250 50 0 empty empty empty 0 -10 0 12 #fcfcfc #000000 #000000;
#X obj 312 375 s \$0-key-y-color;
#X obj 19 339 r \$0-key-y;
#X msg 98 47 121;
#X connect 0 0 5 0;
#X connect 1 0 11 0;
#X connect 2 0 3 0;
#X connect 2 0 10 0;
#X connect 3 0 12 0;
#X connect 3 0 22 0;
#X connect 4 0 20 0;
#X connect 5 0 19 0;
#X connect 6 0 25 0;
#X connect 9 0 23 0;
#X connect 10 0 9 0;
#X connect 11 0 4 0;
#X connect 13 0 3 0;
#X connect 13 0 14 0;
#X connect 14 0 9 0;
#X connect 15 0 17 0;
#X connect 16 0 13 0;
#X connect 17 0 16 1;
#X connect 18 0 16 1;
#X connect 19 0 18 0;
#X connect 19 1 2 0;
#X connect 20 0 16 0;
#X connect 20 1 15 0;
#X connect 21 0 10 0;
#X connect 24 0 8 0;
#X connect 25 0 4 1;
#X connect 25 0 5 1;
#X coords 0 -1 1 1 60 60 2 100 100;
#X restore 416 109 pd key;
#N canvas 1387 199 450 458 key 0;
#X obj 202 11 keyup;
#X obj 18 11 key, f 6;
#X msg 200 264 0;
#X obj 183 314 tgl 50 0 \$0-key-h empty h 0 -10 0 12 #fcfcfc #000000 #000000 0 1;
#X obj 18 85 sel;
#X obj 208 97 sel;
#X obj 97 11 loadbang;
#X obj 105 105 cnv 50 50 50 empty \$0-key-h-color h 20 12 0 12 #bcbcbc #404040 0;
#X obj 26 371 tgl 19 0 empty empty empty 0 -10 0 12 #fcfcfc #000000 #000000 0 1;
#X msg 312 351 color \$1 23;
#X msg 331 299 200;
#X floatatom 18 35 5 0 0 0 - - - 0;
#X obj 126 399 outlet;
#X msg 155 264 1;
#X msg 293 299 69;
#X obj 35 144 delay 10;
#X obj 29 211 spigot 1;
#X msg 35 168 0;
#X msg 193 185 1;
#X obj 208 121 t b b;
#X obj 18 109 t b b;
#X obj 327 264 loadbang;
#X obj 206 394 bng 19 250 50 0 empty empty empty 0 -10 0 12 #fcfcfc #000000 #000000;
#X obj 312 375 s \$0-key-h-color;
#X obj 19 339 r \$0-key-h;
#X msg 98 47 104;
#X connect 0 0 5 0;
#X connect 1 0 11 0;
#X connect 2 0 3 0;
#X connect 2 0 10 0;
#X connect 3 0 12 0;
#X connect 3 0 22 0;
#X connect 4 0 20 0;
#X connect 5 0 19 0;
#X connect 6 0 25 0;
#X connect 9 0 23 0;
#X connect 10 0 9 0;
#X connect 11 0 4 0;
#X connect 13 0 3 0;
#X connect 13 0 14 0;
#X connect 14 0 9 0;
#X connect 15 0 17 0;
#X connect 16 0 13 0;
#X connect 17 0 16 1;
#X connect 18 0 16 1;
#X connect 19 0 18 0;
#X connect 19 1 2 0;
#X connect 20 0 16 0;
#X connect 20 1 15 0;
#X connect 21 0 10 0;
#X connect 24 0 8 0;
#X connect 25 0 4 1;
#X connect 25 0 5 1;
#X coords 0 -1 1 1 60 60 2 100 100;
#X restore 445 170 pd key;
#N canvas 1387 199 450 458 key 0;
#X obj 202 11 keyup;
#X obj 18 11 key, f 6;
#X msg 200 264 0;
#X obj 183 314 tgl 50 0 \$0-key-n empty n 0 -10 0 12 #fcfcfc #000000 #000000 0 1;
#X obj 18 85 sel;
#X obj 208 97 sel;
#X obj 97 11 loadbang;
#X obj 105 105 cnv 50 50 50 empty \$0-key-n-color n 20 12 0 12 #bcbcbc #404040 0;
#X obj 26 371 tgl 19 0 empty empty empty 0 -10 0 12 #fcfcfc #000000 #000000 0 1;
#X msg 312 351 color \$1 23;
#X msg 331 299 200;
#X floatatom 18 35 5 0 0 0 - - - 0;
#X obj 126 399 outlet;
#X msg 155 264 1;
#X msg 293 299 69;
#X obj 35 144 delay 10;
#X obj 29 211 spigot 1;
#X msg 35 168 0;
#X msg 193 185 1;
#X obj 208 121 t b b;
#X obj 18 109 t b b;
#X obj 327 264 loadbang;
#X obj 206 394 bng 19 250 50 0 empty empty empty 0 -10 0 12 #fcfcfc #000000 #000000;
#X obj 312 375 s \$0-key-n-color;
#X obj 19 339 r \$0-key-n;
#X msg 98 47 110;
#X connect 0 0 5 0;
#X connect 1 0 11 0;
#X connect 2 0 3 0;
#X connect 2 0 10 0;
#X connect 3 0 12 0;
#X connect 3 0 22 0;
#X connect 4 0 20 0;
#X connect 5 0 19 0;
#X connect 6 0 25 0;
#X connect 9 0 23 0;
#X connect 10 0 9 0;
#X connect 11 0 4 0;
#X connect 13 0 3 0;
#X connect 13 0 14 0;
#X connect 14 0 9 0;
#X connect 15 0 17 0;
#X connect 16 0 13 0;
#X connect 17 0 16 1;
#X connect 18 0 16 1;
#X connect 19 0 18 0;
#X connect 19 1 2 0;
#X connect 20 0 16 0;
#X connect 20 1 15 0;
#X connect 21 0 10 0;
#X connect 24 0 8 0;
#X connect 25 0 4 1;
#X connect 25 0 5 1;
#X coords 0 -1 1 1 60 60 2 100 100;
#X restore 479 231 pd key;
#X floatatom 632 320 5 0 0 2 YHN\ Note - - 0;
#N canvas 0 199 450 458 key 0;
#X obj 202 11 keyup;
#X obj 18 11 key, f 6;
#X msg 200 264 0;
#X obj 183 314 tgl 50 0 \$0-key-u empty u 0 -10 0 12 #fcfcfc #000000 #000000 0 1;
#X obj 18 85 sel;
#X obj 208 97 sel;
#X obj 97 11 loadbang;
#X obj 105 105 cnv 50 50 50 empty \$0-key-u-color u 20 12 0 12 #bcbcbc #404040 0;
#X obj 26 371 tgl 19 0 empty empty empty 0 -10 0 12 #fcfcfc #000000 #000000 0 1;
#X msg 312 351 color \$1 23;
#X msg 331 299 200;
#X floatatom 18 35 5 0 0 0 - - - 0;
#X obj 126 399 outlet;
#X msg 155 264 1;
#X msg 293 299 69;
#X obj 35 144 delay 10;
#X obj 29 211 spigot 1;
#X msg 35 168 0;
#X msg 193 185 1;
#X obj 208 121 t b b;
#X obj 18 109 t b b;
#X obj 327 264 loadbang;
#X obj 206 394 bng 19 250 50 0 empty empty empty 0 -10 0 12 #fcfcfc #000000 #000000;
#X obj 312 375 s \$0-key-u-color;
#X obj 19 339 r \$0-key-u;
#X msg 98 47 117;
#X connect 0 0 5 0;
#X connect 1 0 11 0;
#X connect 2 0 3 0;
#X connect 2 0 10 0;
#X connect 3 0 12 0;
#X connect 3 0 22 0;
#X connect 4 0 20 0;
#X connect 5 0 19 0;
#X connect 6 0 25 0;
#X connect 9 0 23 0;
#X connect 10 0 9 0;
#X connect 11 0 4 0;
#X connect 13 0 3 0;
#X connect 13 0 14 0;
#X connect 14 0 9 0;
#X connect 15 0 17 0;
#X connect 16 0 13 0;
#X connect 17 0 16 1;
#X connect 18 0 16 1;
#X connect 19 0 18 0;
#X connect 19 1 2 0;
#X connect 20 0 16 0;
#X connect 20 1 15 0;
#X connect 21 0 10 0;
#X connect 24 0 8 0;
#X connect 25 0 4 1;
#X connect 25 0 5 1;
#X coords 0 -1 1 1 60 60 2 100 100;
#X restore 477 109 pd key;
#N canvas 1387 199 450 458 key 0;
#X obj 202 11 keyup;
#X obj 18 11 key, f 6;
#X msg 200 264 0;
#X obj 183 314 tgl 50 0 \$0-key-j empty j 0 -10 0 12 #fcfcfc #000000 #000000 0 1;
#X obj 18 85 sel;
#X obj 208 97 sel;
#X obj 97 11 loadbang;
#X obj 105 105 cnv 50 50 50 empty \$0-key-j-color j 20 12 0 12 #bcbcbc #404040 0;
#X obj 26 371 tgl 19 0 empty empty empty 0 -10 0 12 #fcfcfc #000000 #000000 0 1;
#X msg 312 351 color \$1 23;
#X msg 331 299 200;
#X floatatom 18 35 5 0 0 0 - - - 0;
#X obj 126 399 outlet;
#X msg 155 264 1;
#X msg 293 299 69;
#X obj 35 144 delay 10;
#X obj 29 211 spigot 1;
#X msg 35 168 0;
#X msg 193 185 1;
#X obj 208 121 t b b;
#X obj 18 109 t b b;
#X obj 327 264 loadbang;
#X obj 206 394 bng 19 250 50 0 empty empty empty 0 -10 0 12 #fcfcfc #000000 #000000;
#X obj 312 375 s \$0-key-j-color;
#X obj 19 339 r \$0-key-j;
#X msg 98 47 106;
#X connect 0 0 5 0;
#X connect 1 0 11 0;
#X connect 2 0 3 0;
#X connect 2 0 10 0;
#X connect 3 0 12 0;
#X connect 3 0 22 0;
#X connect 4 0 20 0;
#X connect 5 0 19 0;
#X connect 6 0 25 0;
#X connect 9 0 23 0;
#X connect 10 0 9 0;
#X connect 11 0 4 0;
#X connect 13 0 3 0;
#X connect 13 0 14 0;
#X connect 14 0 9 0;
#X connect 15 0 17 0;
#X connect 16 0 13 0;
#X connect 17 0 16 1;
#X connect 18 0 16 1;
#X connect 19 0 18 0;
#X connect 19 1 2 0;
#X connect 20 0 16 0;
#X connect 20 1 15 0;
#X connect 21 0 10 0;
#X connect 24 0 8 0;
#X connect 25 0 4 1;
#X connect 25 0 5 1;
#X coords 0 -1 1 1 60 60 2 100 100;
#X restore 506 170 pd key;
#N canvas 1387 199 450 458 key 0;
#X obj 202 11 keyup;
#X obj 18 11 key, f 6;
#X msg 200 264 0;
#X obj 183 314 tgl 50 0 \$0-key-m empty m 0 -10 0 12 #fcfcfc #000000 #000000 0 1;
#X obj 18 85 sel;
#X obj 208 97 sel;
#X obj 97 11 loadbang;
#X obj 105 104 cnv 50 50 50 empty \$0-key-m-color m 20 12 0 12 #bcbcbc #404040 0;
#X obj 26 371 tgl 19 0 empty empty empty 0 -10 0 12 #fcfcfc #000000 #000000 0 1;
#X msg 312 351 color \$1 23;
#X msg 331 299 200;
#X floatatom 18 35 5 0 0 0 - - - 0;
#X obj 126 399 outlet;
#X msg 155 264 1;
#X msg 293 299 69;
#X obj 35 144 delay 10;
#X obj 29 211 spigot 1;
#X msg 35 168 0;
#X msg 193 185 1;
#X obj 208 121 t b b;
#X obj 18 109 t b b;
#X obj 327 264 loadbang;
#X obj 206 394 bng 19 250 50 0 empty empty empty 0 -10 0 12 #fcfcfc #000000 #000000;
#X obj 312 375 s \$0-key-m-color;
#X obj 19 339 r \$0-key-m;
#X msg 98 47 109;
#X connect 0 0 5 0;
#X connect 1 0 11 0;
#X connect 2 0 3 0;
#X connect 2 0 10 0;
#X connect 3 0 12 0;
#X connect 3 0 22 0;
#X connect 4 0 20 0;
#X connect 5 0 19 0;
#X connect 6 0 25 0;
#X connect 9 0 23 0;
#X connect 10 0 9 0;
#X connect 11 0 4 0;
#X connect 13 0 3 0;
#X connect 13 0 14 0;
#X connect 14 0 9 0;
#X connect 15 0 17 0;
#X connect 16 0 13 0;
#X connect 17 0 16 1;
#X connect 18 0 16 1;
#X connect 19 0 18 0;
#X connect 19 1 2 0;
#X connect 20 0 16 0;
#X connect 20 1 15 0;
#X connect 21 0 10 0;
#X connect 24 0 8 0;
#X connect 25 0 4 1;
#X connect 25 0 5 1;
#X coords 0 -1 1 1 60 60 2 100 100;
#X restore 540 231 pd key;
#X floatatom 718 320 5 0 0 2 UJM\ Note - - 0;
#X obj 209 358 + 2;
#X obj 288 343 + 2;
#X obj 460 343 + 2;
#X obj 546 343 + 2;
#X obj 632 343 + 2;
#X obj 720 120 vsl 19 150 0 127 0 0 \$0-midi-velocity empty Vel 0 -9 0 12 #fcfcfc #000000 #000000 0 1;
#X obj 598 6 loadbang;
#X msg 658 48 120;
#X obj 615 203 nbx 5 17 1 16 0 0 \$0-midi-channel empty Midi\ Channel 0 -10 0 12 #fcfcfc #000000 #000000 0 256;
#N canvas -3251 109 875 738 triad 0;
#N canvas 907 176 450 300 major 0;
#X obj 99 10 inlet;
#X floatatom 97 139 5 0 0 0 - - - 0;
#X obj 151 93 + 4;
#X obj 209 93 + 7;
#X floatatom 151 138 5 0 0 0 - - - 0;
#X floatatom 209 138 5 0 0 0 - - - 0;
#X obj 97 183 outlet;
#X obj 151 182 outlet;
#X obj 209 182 outlet;
#X obj 176 10 inlet;
#X obj 99 55 spigot;
#X connect 0 0 10 0;
#X connect 1 0 6 0;
#X connect 1 0 2 0;
#X connect 1 0 3 0;
#X connect 2 0 4 0;
#X connect 3 0 5 0;
#X connect 4 0 7 0;
#X connect 5 0 8 0;
#X connect 9 0 10 1;
#X connect 10 0 1 0;
#X restore 167 273 pd major;
#N canvas 160 160 450 300 minor 0;
#X obj 125 27 inlet;
#X floatatom 123 138 5 0 0 0 - - - 0;
#X obj 232 105 + 7;
#X floatatom 176 138 5 0 0 0 - - - 0;
#X floatatom 230 139 5 0 0 0 - - - 0;
#X obj 123 182 outlet;
#X obj 176 181 outlet;
#X obj 230 181 outlet;
#X obj 174 104 + 3;
#X obj 226 31 inlet;
#X obj 167 66 spigot;
#X connect 0 0 10 0;
#X connect 1 0 5 0;
#X connect 2 0 4 0;
#X connect 3 0 6 0;
#X connect 4 0 7 0;
#X connect 8 0 3 0;
#X connect 9 0 10 1;
#X connect 10 0 1 0;
#X connect 10 0 8 0;
#X connect 10 0 2 0;
#X restore 167 334 pd minor;
#N canvas 335 220 450 300 maj7th 0;
#X obj 95 5 inlet;
#X floatatom 236 136 5 0 0 0 - - - 0;
#X obj 236 178 outlet;
#X obj 238 102 + 11;
#X floatatom 62 137 5 0 0 0 - - - 0;
#X obj 116 91 + 4;
#X obj 174 91 + 7;
#X floatatom 116 136 5 0 0 0 - - - 0;
#X floatatom 174 136 5 0 0 0 - - - 0;
#X obj 62 181 outlet;
#X obj 116 180 outlet;
#X obj 174 180 outlet;
#X obj 185 9 inlet;
#X obj 131 44 spigot;
#X connect 0 0 13 0;
#X connect 1 0 2 0;
#X connect 3 0 1 0;
#X connect 4 0 9 0;
#X connect 5 0 7 0;
#X connect 6 0 8 0;
#X connect 7 0 10 0;
#X connect 8 0 11 0;
#X connect 12 0 13 1;
#X connect 13 0 4 0;
#X connect 13 0 5 0;
#X connect 13 0 6 0;
#X connect 13 0 3 0;
#X restore 165 497 pd maj7th;
#N canvas 224 224 450 300 min7th 0;
#X floatatom 236 136 5 0 0 0 - - - 0;
#X obj 236 178 outlet;
#X obj 238 102 + 10;
#X obj 80 27 inlet;
#X floatatom 78 138 5 0 0 0 - - - 0;
#X obj 187 105 + 7;
#X floatatom 131 138 5 0 0 0 - - - 0;
#X floatatom 185 139 5 0 0 0 - - - 0;
#X obj 78 182 outlet;
#X obj 131 181 outlet;
#X obj 185 181 outlet;
#X obj 129 104 + 3;
#X obj 181 31 inlet;
#X obj 122 66 spigot;
#X connect 0 0 1 0;
#X connect 2 0 0 0;
#X connect 3 0 13 0;
#X connect 4 0 8 0;
#X connect 5 0 7 0;
#X connect 6 0 9 0;
#X connect 7 0 10 0;
#X connect 11 0 6 0;
#X connect 12 0 13 1;
#X connect 13 0 4 0;
#X connect 13 0 11 0;
#X connect 13 0 5 0;
#X connect 13 0 2 0;
#X restore 165 545 pd min7th;
#N canvas 256 256 450 300 dim7th 0;
#X obj 101 1 inlet;
#X floatatom 100 127 5 0 0 0 - - - 0;
#X floatatom 153 127 5 0 0 0 - - - 0;
#X floatatom 207 128 5 0 0 0 - - - 0;
#X obj 100 171 outlet;
#X obj 153 170 outlet;
#X obj 207 170 outlet;
#X floatatom 267 133 5 0 0 0 - - - 0;
#X obj 267 175 outlet;
#X obj 151 93 + 3;
#X obj 209 94 + 6;
#X obj 269 99 + 9;
#X obj 225 15 inlet;
#X obj 166 50 spigot;
#X connect 0 0 13 0;
#X connect 1 0 4 0;
#X connect 2 0 5 0;
#X connect 3 0 6 0;
#X connect 7 0 8 0;
#X connect 9 0 2 0;
#X connect 10 0 3 0;
#X connect 11 0 7 0;
#X connect 12 0 13 1;
#X connect 13 0 1 0;
#X connect 13 0 9 0;
#X connect 13 0 10 0;
#X connect 13 0 11 0;
#X restore 166 390 pd dim7th;
#N canvas 32 32 450 300 dim 0;
#X obj 126 23 inlet;
#X floatatom 123 138 5 0 0 0 - - - 0;
#X floatatom 176 138 5 0 0 0 - - - 0;
#X floatatom 230 139 5 0 0 0 - - - 0;
#X obj 123 182 outlet;
#X obj 176 181 outlet;
#X obj 230 181 outlet;
#X obj 174 104 + 3;
#X obj 232 105 + 6;
#X obj 235 32 inlet;
#X obj 176 67 spigot;
#X connect 0 0 10 0;
#X connect 1 0 4 0;
#X connect 2 0 5 0;
#X connect 3 0 6 0;
#X connect 7 0 2 0;
#X connect 8 0 3 0;
#X connect 9 0 10 1;
#X connect 10 0 1 0;
#X connect 10 0 7 0;
#X connect 10 0 8 0;
#X restore 166 438 pd dim;
#N canvas 32 32 450 300 aug 0;
#X obj 153 43 inlet;
#X floatatom 151 154 5 0 0 0 - - - 0;
#X floatatom 204 154 5 0 0 0 - - - 0;
#X floatatom 258 155 5 0 0 0 - - - 0;
#X obj 151 198 outlet;
#X obj 204 197 outlet;
#X obj 258 197 outlet;
#X obj 254 47 inlet;
#X obj 195 82 spigot;
#X obj 202 120 + 4;
#X obj 260 121 + 8;
#X connect 0 0 8 0;
#X connect 1 0 4 0;
#X connect 2 0 5 0;
#X connect 3 0 6 0;
#X connect 7 0 8 1;
#X connect 8 0 1 0;
#X connect 8 0 9 0;
#X connect 8 0 10 0;
#X connect 9 0 2 0;
#X connect 10 0 3 0;
#X restore 163 601 pd aug;
#X f 7;
#X floatatom 16 71 5 0 0 3 Root\ Note - - 0;
#X obj 16 27 inlet note;
#X obj 289 9 inlet major;
#X obj 380 9 inlet minor;
#X obj 473 9 inlet seventh;
#X floatatom 330 34 5 0 0 0 - - - 0;
#X floatatom 421 34 5 0 0 0 - - - 0;
#X floatatom 514 34 5 0 0 0 - - - 0;
#X obj 280 60 expr if(($i1 == 0 && $i2 == 0 && $i3 == 0) \, 1 \, 0) \; if(($i1 == 1 && $i2 == 0 && $i3 == 0) \, 1 \, 0) \; if(($i1 == 0 && $i2 == 1 && $i3 == 0) \, 1 \, 0) \; if(($i1 == 0 && $i2 == 0 && $i3 == 1) \, 1 \, 0) \; if(($i1 == 1 && $i2 == 1 && $i3 == 0) \, 1 \, 0) \; if(($i1 == 1 && $i2 == 0 && $i3 == 1) \, 1 \, 0) \; if(($i1 == 0 && $i2 == 1 && $i3 == 1) \, 1 \, 0) \; if(($i1 == 1 && $i2 == 1 && $i3 == 1) \, 1 \, 0) \;;
#X obj 620 231 tgl 19 0 empty empty empty 0 -10 0 12 #fcfcfc #000000 #000000 0 1;
#X obj 571 231 tgl 19 0 empty empty empty 0 -10 0 12 #fcfcfc #000000 #000000 0 1;
#X obj 522 232 tgl 19 0 empty empty empty 0 -10 0 12 #fcfcfc #000000 #000000 0 1;
#X obj 474 232 tgl 19 0 empty empty empty 0 -10 0 12 #fcfcfc #000000 #000000 0 1;
#X obj 425 232 tgl 19 0 empty empty empty 0 -10 0 12 #fcfcfc #000000 #000000 0 1;
#X obj 378 233 tgl 19 0 empty empty empty 0 -10 0 12 #fcfcfc #000000 #000000 0 1;
#X obj 328 233 tgl 19 0 empty empty empty 0 -10 0 12 #fcfcfc #000000 #000000 0 1;
#X obj 280 233 tgl 19 0 empty empty empty 0 -10 0 12 #fcfcfc #000000 #000000 0 1;
#X obj 250 53 bng 19 250 50 0 empty empty empty 0 -10 0 12 #fcfcfc #000000 #000000;
#X text 571 307 dom 7th is a major triad with a minor 7th half-dim chords are dim with minor 7th, f 42;
#X text 723 27 0 0 0 - Off 1 0 0 = Major 0 1 0 - Minor 0 0 1 - Dim 7 1 1 0 - Dim 1 0 1 - Maj 7 0 1 1 - Min 7 1 1 1 - Aug, f 15;
#X obj 334 680 pack f f f f;
#X msg 435 613 0;
#X listbox 333 721 20 0 0 0 - - - 0;
#X obj 332 790 outlet;
#X connect 0 0 27 0;
#X connect 0 1 27 1;
#X connect 0 2 27 2;
#X connect 0 2 28 0;
#X connect 1 0 27 0;
#X connect 1 1 27 1;
#X connect 1 2 27 2;
#X connect 1 2 28 0;
#X connect 2 0 27 0;
#X connect 2 1 27 1;
#X connect 2 2 27 2;
#X connect 2 3 27 3;
#X connect 3 0 27 0;
#X connect 3 1 27 1;
#X connect 3 2 27 2;
#X connect 3 3 27 3;
#X connect 4 0 27 0;
#X connect 4 1 27 1;
#X connect 4 2 27 2;
#X connect 4 3 27 3;
#X connect 5 0 27 0;
#X connect 5 1 27 1;
#X connect 5 2 27 2;
#X connect 5 2 28 0;
#X connect 6 0 27 0;
#X connect 6 1 27 1;
#X connect 6 2 27 2;
#X connect 6 2 28 0;
#X connect 7 0 0 0;
#X connect 7 0 1 0;
#X connect 7 0 4 0;
#X connect 7 0 5 0;
#X connect 7 0 2 0;
#X connect 7 0 3 0;
#X connect 7 0 6 0;
#X connect 8 0 7 0;
#X connect 9 0 12 0;
#X connect 10 0 13 0;
#X connect 11 0 14 0;
#X connect 12 0 15 0;
#X connect 12 0 24 0;
#X connect 13 0 15 1;
#X connect 13 0 24 0;
#X connect 14 0 15 2;
#X connect 14 0 24 0;
#X connect 15 0 23 0;
#X connect 15 1 22 0;
#X connect 15 2 21 0;
#X connect 15 3 20 0;
#X connect 15 4 19 0;
#X connect 15 5 18 0;
#X connect 15 6 17 0;
#X connect 15 7 16 0;
#X connect 16 0 6 1;
#X connect 17 0 3 1;
#X connect 18 0 2 1;
#X connect 19 0 5 1;
#X connect 20 0 4 1;
#X connect 21 0 1 1;
#X connect 22 0 0 1;
#X connect 24 0 15 0;
#X connect 27 0 29 0;
#X connect 28 0 27 3;
#X connect 29 0 30 0;
#X restore 281 406 pd triad;
#N canvas -3251 -168 875 1015 triad 0;
#N canvas 907 176 450 300 major 0;
#X obj 99 10 inlet;
#X floatatom 97 139 5 0 0 0 - - - 0;
#X obj 151 93 + 4;
#X obj 209 93 + 7;
#X floatatom 151 138 5 0 0 0 - - - 0;
#X floatatom 209 138 5 0 0 0 - - - 0;
#X obj 97 183 outlet;
#X obj 151 182 outlet;
#X obj 209 182 outlet;
#X obj 176 10 inlet;
#X obj 99 55 spigot;
#X connect 0 0 10 0;
#X connect 1 0 6 0;
#X connect 1 0 2 0;
#X connect 1 0 3 0;
#X connect 2 0 4 0;
#X connect 3 0 5 0;
#X connect 4 0 7 0;
#X connect 5 0 8 0;
#X connect 9 0 10 1;
#X connect 10 0 1 0;
#X restore 167 273 pd major;
#N canvas 160 160 450 300 minor 0;
#X obj 125 27 inlet;
#X floatatom 123 138 5 0 0 0 - - - 0;
#X obj 232 105 + 7;
#X floatatom 176 138 5 0 0 0 - - - 0;
#X floatatom 230 139 5 0 0 0 - - - 0;
#X obj 123 182 outlet;
#X obj 176 181 outlet;
#X obj 230 181 outlet;
#X obj 174 104 + 3;
#X obj 226 31 inlet;
#X obj 167 66 spigot;
#X connect 0 0 10 0;
#X connect 1 0 5 0;
#X connect 2 0 4 0;
#X connect 3 0 6 0;
#X connect 4 0 7 0;
#X connect 8 0 3 0;
#X connect 9 0 10 1;
#X connect 10 0 1 0;
#X connect 10 0 8 0;
#X connect 10 0 2 0;
#X restore 167 334 pd minor;
#N canvas 335 220 450 300 maj7th 0;
#X obj 95 5 inlet;
#X floatatom 236 136 5 0 0 0 - - - 0;
#X obj 236 178 outlet;
#X obj 238 102 + 11;
#X floatatom 62 137 5 0 0 0 - - - 0;
#X obj 116 91 + 4;
#X obj 174 91 + 7;
#X floatatom 116 136 5 0 0 0 - - - 0;
#X floatatom 174 136 5 0 0 0 - - - 0;
#X obj 62 181 outlet;
#X obj 116 180 outlet;
#X obj 174 180 outlet;
#X obj 185 9 inlet;
#X obj 131 44 spigot;
#X connect 0 0 13 0;
#X connect 1 0 2 0;
#X connect 3 0 1 0;
#X connect 4 0 9 0;
#X connect 5 0 7 0;
#X connect 6 0 8 0;
#X connect 7 0 10 0;
#X connect 8 0 11 0;
#X connect 12 0 13 1;
#X connect 13 0 4 0;
#X connect 13 0 5 0;
#X connect 13 0 6 0;
#X connect 13 0 3 0;
#X restore 165 497 pd maj7th;
#N canvas 224 224 450 300 min7th 0;
#X floatatom 236 136 5 0 0 0 - - - 0;
#X obj 236 178 outlet;
#X obj 238 102 + 10;
#X obj 80 27 inlet;
#X floatatom 78 138 5 0 0 0 - - - 0;
#X obj 187 105 + 7;
#X floatatom 131 138 5 0 0 0 - - - 0;
#X floatatom 185 139 5 0 0 0 - - - 0;
#X obj 78 182 outlet;
#X obj 131 181 outlet;
#X obj 185 181 outlet;
#X obj 129 104 + 3;
#X obj 181 31 inlet;
#X obj 122 66 spigot;
#X connect 0 0 1 0;
#X connect 2 0 0 0;
#X connect 3 0 13 0;
#X connect 4 0 8 0;
#X connect 5 0 7 0;
#X connect 6 0 9 0;
#X connect 7 0 10 0;
#X connect 11 0 6 0;
#X connect 12 0 13 1;
#X connect 13 0 4 0;
#X connect 13 0 11 0;
#X connect 13 0 5 0;
#X connect 13 0 2 0;
#X restore 165 545 pd min7th;
#N canvas 256 256 450 300 dim7th 0;
#X obj 101 1 inlet;
#X floatatom 100 127 5 0 0 0 - - - 0;
#X floatatom 153 127 5 0 0 0 - - - 0;
#X floatatom 207 128 5 0 0 0 - - - 0;
#X obj 100 171 outlet;
#X obj 153 170 outlet;
#X obj 207 170 outlet;
#X floatatom 267 133 5 0 0 0 - - - 0;
#X obj 267 175 outlet;
#X obj 151 93 + 3;
#X obj 209 94 + 6;
#X obj 269 99 + 9;
#X obj 225 15 inlet;
#X obj 166 50 spigot;
#X connect 0 0 13 0;
#X connect 1 0 4 0;
#X connect 2 0 5 0;
#X connect 3 0 6 0;
#X connect 7 0 8 0;
#X connect 9 0 2 0;
#X connect 10 0 3 0;
#X connect 11 0 7 0;
#X connect 12 0 13 1;
#X connect 13 0 1 0;
#X connect 13 0 9 0;
#X connect 13 0 10 0;
#X connect 13 0 11 0;
#X restore 166 390 pd dim7th;
#N canvas 32 32 450 300 dim 0;
#X obj 126 23 inlet;
#X floatatom 123 138 5 0 0 0 - - - 0;
#X floatatom 176 138 5 0 0 0 - - - 0;
#X floatatom 230 139 5 0 0 0 - - - 0;
#X obj 123 182 outlet;
#X obj 176 181 outlet;
#X obj 230 181 outlet;
#X obj 174 104 + 3;
#X obj 232 105 + 6;
#X obj 235 32 inlet;
#X obj 176 67 spigot;
#X connect 0 0 10 0;
#X connect 1 0 4 0;
#X connect 2 0 5 0;
#X connect 3 0 6 0;
#X connect 7 0 2 0;
#X connect 8 0 3 0;
#X connect 9 0 10 1;
#X connect 10 0 1 0;
#X connect 10 0 7 0;
#X connect 10 0 8 0;
#X restore 166 438 pd dim;
#N canvas 32 32 450 300 aug 0;
#X obj 153 43 inlet;
#X floatatom 151 154 5 0 0 0 - - - 0;
#X floatatom 204 154 5 0 0 0 - - - 0;
#X floatatom 258 155 5 0 0 0 - - - 0;
#X obj 151 198 outlet;
#X obj 204 197 outlet;
#X obj 258 197 outlet;
#X obj 254 47 inlet;
#X obj 195 82 spigot;
#X obj 202 120 + 4;
#X obj 260 121 + 8;
#X connect 0 0 8 0;
#X connect 1 0 4 0;
#X connect 2 0 5 0;
#X connect 3 0 6 0;
#X connect 7 0 8 1;
#X connect 8 0 1 0;
#X connect 8 0 9 0;
#X connect 8 0 10 0;
#X connect 9 0 2 0;
#X connect 10 0 3 0;
#X restore 163 601 pd aug;
#X f 7;
#X floatatom 16 71 5 0 0 3 Root\ Note - - 0;
#X obj 16 27 inlet note;
#X obj 289 9 inlet major;
#X obj 380 9 inlet minor;
#X obj 473 9 inlet seventh;
#X floatatom 330 34 5 0 0 0 - - - 0;
#X floatatom 421 34 5 0 0 0 - - - 0;
#X floatatom 514 34 5 0 0 0 - - - 0;
#X obj 280 60 expr if(($i1 == 0 && $i2 == 0 && $i3 == 0) \, 1 \, 0) \; if(($i1 == 1 && $i2 == 0 && $i3 == 0) \, 1 \, 0) \; if(($i1 == 0 && $i2 == 1 && $i3 == 0) \, 1 \, 0) \; if(($i1 == 0 && $i2 == 0 && $i3 == 1) \, 1 \, 0) \; if(($i1 == 1 && $i2 == 1 && $i3 == 0) \, 1 \, 0) \; if(($i1 == 1 && $i2 == 0 && $i3 == 1) \, 1 \, 0) \; if(($i1 == 0 && $i2 == 1 && $i3 == 1) \, 1 \, 0) \; if(($i1 == 1 && $i2 == 1 && $i3 == 1) \, 1 \, 0) \;;
#X obj 620 231 tgl 19 0 empty empty empty 0 -10 0 12 #fcfcfc #000000 #000000 0 1;
#X obj 571 231 tgl 19 0 empty empty empty 0 -10 0 12 #fcfcfc #000000 #000000 0 1;
#X obj 522 232 tgl 19 0 empty empty empty 0 -10 0 12 #fcfcfc #000000 #000000 0 1;
#X obj 474 232 tgl 19 0 empty empty empty 0 -10 0 12 #fcfcfc #000000 #000000 0 1;
#X obj 425 232 tgl 19 0 empty empty empty 0 -10 0 12 #fcfcfc #000000 #000000 0 1;
#X obj 378 233 tgl 19 0 empty empty empty 0 -10 0 12 #fcfcfc #000000 #000000 0 1;
#X obj 328 233 tgl 19 0 empty empty empty 0 -10 0 12 #fcfcfc #000000 #000000 0 1;
#X obj 280 233 tgl 19 0 empty empty empty 0 -10 0 12 #fcfcfc #000000 #000000 0 1;
#X obj 250 53 bng 19 250 50 0 empty empty empty 0 -10 0 12 #fcfcfc #000000 #000000;
#X text 571 307 dom 7th is a major triad with a minor 7th half-dim chords are dim with minor 7th, f 42;
#X text 723 27 0 0 0 - Off 1 0 0 = Major 0 1 0 - Minor 0 0 1 - Dim 7 1 1 0 - Dim 1 0 1 - Maj 7 0 1 1 - Min 7 1 1 1 - Aug, f 15;
#X obj 334 680 pack f f f f;
#X msg 435 613 0;
#X listbox 333 721 20 0 0 0 - - - 0;
#X obj 332 790 outlet;
#X connect 0 0 27 0;
#X connect 0 1 27 1;
#X connect 0 2 27 2;
#X connect 0 2 28 0;
#X connect 1 0 27 0;
#X connect 1 1 27 1;
#X connect 1 2 27 2;
#X connect 1 2 28 0;
#X connect 2 0 27 0;
#X connect 2 1 27 1;
#X connect 2 2 27 2;
#X connect 2 3 27 3;
#X connect 3 0 27 0;
#X connect 3 1 27 1;
#X connect 3 2 27 2;
#X connect 3 3 27 3;
#X connect 4 0 27 0;
#X connect 4 1 27 1;
#X connect 4 2 27 2;
#X connect 4 3 27 3;
#X connect 5 0 27 0;
#X connect 5 1 27 1;
#X connect 5 2 27 2;
#X connect 5 2 28 0;
#X connect 6 0 27 0;
#X connect 6 1 27 1;
#X connect 6 2 27 2;
#X connect 6 2 28 0;
#X connect 7 0 0 0;
#X connect 7 0 1 0;
#X connect 7 0 4 0;
#X connect 7 0 5 0;
#X connect 7 0 2 0;
#X connect 7 0 3 0;
#X connect 7 0 6 0;
#X connect 8 0 7 0;
#X connect 9 0 12 0;
#X connect 10 0 13 0;
#X connect 11 0 14 0;
#X connect 12 0 15 0;
#X connect 12 0 24 0;
#X connect 13 0 15 1;
#X connect 13 0 24 0;
#X connect 14 0 15 2;
#X connect 14 0 24 0;
#X connect 15 0 23 0;
#X connect 15 1 22 0;
#X connect 15 2 21 0;
#X connect 15 3 20 0;
#X connect 15 4 19 0;
#X connect 15 5 18 0;
#X connect 15 6 17 0;
#X connect 15 7 16 0;
#X connect 16 0 6 1;
#X connect 17 0 3 1;
#X connect 18 0 2 1;
#X connect 19 0 5 1;
#X connect 20 0 4 1;
#X connect 21 0 1 1;
#X connect 22 0 0 1;
#X connect 24 0 15 0;
#X connect 27 0 29 0;
#X connect 28 0 27 3;
#X connect 29 0 30 0;
#X restore 184 406 pd triad;
#X floatatom 712 277 5 0 0 0 - - - 0;
#N canvas -3251 109 875 738 triad 0;
#N canvas 907 176 450 300 major 0;
#X obj 99 10 inlet;
#X floatatom 97 139 5 0 0 0 - - - 0;
#X obj 151 93 + 4;
#X obj 209 93 + 7;
#X floatatom 151 138 5 0 0 0 - - - 0;
#X floatatom 209 138 5 0 0 0 - - - 0;
#X obj 97 183 outlet;
#X obj 151 182 outlet;
#X obj 209 182 outlet;
#X obj 176 10 inlet;
#X obj 99 55 spigot;
#X connect 0 0 10 0;
#X connect 1 0 6 0;
#X connect 1 0 2 0;
#X connect 1 0 3 0;
#X connect 2 0 4 0;
#X connect 3 0 5 0;
#X connect 4 0 7 0;
#X connect 5 0 8 0;
#X connect 9 0 10 1;
#X connect 10 0 1 0;
#X restore 167 273 pd major;
#N canvas 160 160 450 300 minor 0;
#X obj 125 27 inlet;
#X floatatom 123 138 5 0 0 0 - - - 0;
#X obj 232 105 + 7;
#X floatatom 176 138 5 0 0 0 - - - 0;
#X floatatom 230 139 5 0 0 0 - - - 0;
#X obj 123 182 outlet;
#X obj 176 181 outlet;
#X obj 230 181 outlet;
#X obj 174 104 + 3;
#X obj 226 31 inlet;
#X obj 167 66 spigot;
#X connect 0 0 10 0;
#X connect 1 0 5 0;
#X connect 2 0 4 0;
#X connect 3 0 6 0;
#X connect 4 0 7 0;
#X connect 8 0 3 0;
#X connect 9 0 10 1;
#X connect 10 0 1 0;
#X connect 10 0 8 0;
#X connect 10 0 2 0;
#X restore 167 334 pd minor;
#N canvas 335 220 450 300 maj7th 0;
#X obj 95 5 inlet;
#X floatatom 236 136 5 0 0 0 - - - 0;
#X obj 236 178 outlet;
#X obj 238 102 + 11;
#X floatatom 62 137 5 0 0 0 - - - 0;
#X obj 116 91 + 4;
#X obj 174 91 + 7;
#X floatatom 116 136 5 0 0 0 - - - 0;
#X floatatom 174 136 5 0 0 0 - - - 0;
#X obj 62 181 outlet;
#X obj 116 180 outlet;
#X obj 174 180 outlet;
#X obj 185 9 inlet;
#X obj 131 44 spigot;
#X connect 0 0 13 0;
#X connect 1 0 2 0;
#X connect 3 0 1 0;
#X connect 4 0 9 0;
#X connect 5 0 7 0;
#X connect 6 0 8 0;
#X connect 7 0 10 0;
#X connect 8 0 11 0;
#X connect 12 0 13 1;
#X connect 13 0 4 0;
#X connect 13 0 5 0;
#X connect 13 0 6 0;
#X connect 13 0 3 0;
#X restore 165 497 pd maj7th;
#N canvas 224 224 450 300 min7th 0;
#X floatatom 236 136 5 0 0 0 - - - 0;
#X obj 236 178 outlet;
#X obj 238 102 + 10;
#X obj 80 27 inlet;
#X floatatom 78 138 5 0 0 0 - - - 0;
#X obj 187 105 + 7;
#X floatatom 131 138 5 0 0 0 - - - 0;
#X floatatom 185 139 5 0 0 0 - - - 0;
#X obj 78 182 outlet;
#X obj 131 181 outlet;
#X obj 185 181 outlet;
#X obj 129 104 + 3;
#X obj 181 31 inlet;
#X obj 122 66 spigot;
#X connect 0 0 1 0;
#X connect 2 0 0 0;
#X connect 3 0 13 0;
#X connect 4 0 8 0;
#X connect 5 0 7 0;
#X connect 6 0 9 0;
#X connect 7 0 10 0;
#X connect 11 0 6 0;
#X connect 12 0 13 1;
#X connect 13 0 4 0;
#X connect 13 0 11 0;
#X connect 13 0 5 0;
#X connect 13 0 2 0;
#X restore 165 545 pd min7th;
#N canvas 256 256 450 300 dim7th 0;
#X obj 101 1 inlet;
#X floatatom 100 127 5 0 0 0 - - - 0;
#X floatatom 153 127 5 0 0 0 - - - 0;
#X floatatom 207 128 5 0 0 0 - - - 0;
#X obj 100 171 outlet;
#X obj 153 170 outlet;
#X obj 207 170 outlet;
#X floatatom 267 133 5 0 0 0 - - - 0;
#X obj 267 175 outlet;
#X obj 151 93 + 3;
#X obj 209 94 + 6;
#X obj 269 99 + 9;
#X obj 225 15 inlet;
#X obj 166 50 spigot;
#X connect 0 0 13 0;
#X connect 1 0 4 0;
#X connect 2 0 5 0;
#X connect 3 0 6 0;
#X connect 7 0 8 0;
#X connect 9 0 2 0;
#X connect 10 0 3 0;
#X connect 11 0 7 0;
#X connect 12 0 13 1;
#X connect 13 0 1 0;
#X connect 13 0 9 0;
#X connect 13 0 10 0;
#X connect 13 0 11 0;
#X restore 166 390 pd dim7th;
#N canvas 32 32 450 300 dim 0;
#X obj 126 23 inlet;
#X floatatom 123 138 5 0 0 0 - - - 0;
#X floatatom 176 138 5 0 0 0 - - - 0;
#X floatatom 230 139 5 0 0 0 - - - 0;
#X obj 123 182 outlet;
#X obj 176 181 outlet;
#X obj 230 181 outlet;
#X obj 174 104 + 3;
#X obj 232 105 + 6;
#X obj 235 32 inlet;
#X obj 176 67 spigot;
#X connect 0 0 10 0;
#X connect 1 0 4 0;
#X connect 2 0 5 0;
#X connect 3 0 6 0;
#X connect 7 0 2 0;
#X connect 8 0 3 0;
#X connect 9 0 10 1;
#X connect 10 0 1 0;
#X connect 10 0 7 0;
#X connect 10 0 8 0;
#X restore 166 438 pd dim;
#N canvas 32 32 450 300 aug 0;
#X obj 153 43 inlet;
#X floatatom 151 154 5 0 0 0 - - - 0;
#X floatatom 204 154 5 0 0 0 - - - 0;
#X floatatom 258 155 5 0 0 0 - - - 0;
#X obj 151 198 outlet;
#X obj 204 197 outlet;
#X obj 258 197 outlet;
#X obj 254 47 inlet;
#X obj 195 82 spigot;
#X obj 202 120 + 4;
#X obj 260 121 + 8;
#X connect 0 0 8 0;
#X connect 1 0 4 0;
#X connect 2 0 5 0;
#X connect 3 0 6 0;
#X connect 7 0 8 1;
#X connect 8 0 1 0;
#X connect 8 0 9 0;
#X connect 8 0 10 0;
#X connect 9 0 2 0;
#X connect 10 0 3 0;
#X restore 163 601 pd aug;
#X f 7;
#X floatatom 16 71 5 0 0 3 Root\ Note - - 0;
#X obj 16 27 inlet note;
#X obj 289 9 inlet major;
#X obj 380 9 inlet minor;
#X obj 473 9 inlet seventh;
#X floatatom 330 34 5 0 0 0 - - - 0;
#X floatatom 421 34 5 0 0 0 - - - 0;
#X floatatom 514 34 5 0 0 0 - - - 0;
#X obj 280 60 expr if(($i1 == 0 && $i2 == 0 && $i3 == 0) \, 1 \, 0) \; if(($i1 == 1 && $i2 == 0 && $i3 == 0) \, 1 \, 0) \; if(($i1 == 0 && $i2 == 1 && $i3 == 0) \, 1 \, 0) \; if(($i1 == 0 && $i2 == 0 && $i3 == 1) \, 1 \, 0) \; if(($i1 == 1 && $i2 == 1 && $i3 == 0) \, 1 \, 0) \; if(($i1 == 1 && $i2 == 0 && $i3 == 1) \, 1 \, 0) \; if(($i1 == 0 && $i2 == 1 && $i3 == 1) \, 1 \, 0) \; if(($i1 == 1 && $i2 == 1 && $i3 == 1) \, 1 \, 0) \;;
#X obj 620 231 tgl 19 0 empty empty empty 0 -10 0 12 #fcfcfc #000000 #000000 0 1;
#X obj 571 231 tgl 19 0 empty empty empty 0 -10 0 12 #fcfcfc #000000 #000000 0 1;
#X obj 522 232 tgl 19 0 empty empty empty 0 -10 0 12 #fcfcfc #000000 #000000 0 1;
#X obj 474 232 tgl 19 0 empty empty empty 0 -10 0 12 #fcfcfc #000000 #000000 0 1;
#X obj 425 232 tgl 19 0 empty empty empty 0 -10 0 12 #fcfcfc #000000 #000000 0 1;
#X obj 378 233 tgl 19 0 empty empty empty 0 -10 0 12 #fcfcfc #000000 #000000 0 1;
#X obj 328 233 tgl 19 0 empty empty empty 0 -10 0 12 #fcfcfc #000000 #000000 0 1;
#X obj 280 233 tgl 19 0 empty empty empty 0 -10 0 12 #fcfcfc #000000 #000000 0 1;
#X obj 250 53 bng 19 250 50 0 empty empty empty 0 -10 0 12 #fcfcfc #000000 #000000;
#X text 571 307 dom 7th is a major triad with a minor 7th half-dim chords are dim with minor 7th, f 42;
#X text 723 27 0 0 0 - Off 1 0 0 = Major 0 1 0 - Minor 0 0 1 - Dim 7 1 1 0 - Dim 1 0 1 - Maj 7 0 1 1 - Min 7 1 1 1 - Aug, f 15;
#X obj 334 680 pack f f f f;
#X msg 435 613 0;
#X listbox 333 721 20 0 0 0 - - - 0;
#X obj 332 790 outlet;
#X connect 0 0 27 0;
#X connect 0 1 27 1;
#X connect 0 2 27 2;
#X connect 0 2 28 0;
#X connect 1 0 27 0;
#X connect 1 1 27 1;
#X connect 1 2 27 2;
#X connect 1 2 28 0;
#X connect 2 0 27 0;
#X connect 2 1 27 1;
#X connect 2 2 27 2;
#X connect 2 3 27 3;
#X connect 3 0 27 0;
#X connect 3 1 27 1;
#X connect 3 2 27 2;
#X connect 3 3 27 3;
#X connect 4 0 27 0;
#X connect 4 1 27 1;
#X connect 4 2 27 2;
#X connect 4 3 27 3;
#X connect 5 0 27 0;
#X connect 5 1 27 1;
#X connect 5 2 27 2;
#X connect 5 2 28 0;
#X connect 6 0 27 0;
#X connect 6 1 27 1;
#X connect 6 2 27 2;
#X connect 6 2 28 0;
#X connect 7 0 0 0;
#X connect 7 0 1 0;
#X connect 7 0 4 0;
#X connect 7 0 5 0;
#X connect 7 0 2 0;
#X connect 7 0 3 0;
#X connect 7 0 6 0;
#X connect 8 0 7 0;
#X connect 9 0 12 0;
#X connect 10 0 13 0;
#X connect 11 0 14 0;
#X connect 12 0 15 0;
#X connect 12 0 24 0;
#X connect 13 0 15 1;
#X connect 13 0 24 0;
#X connect 14 0 15 2;
#X connect 14 0 24 0;
#X connect 15 0 23 0;
#X connect 15 1 22 0;
#X connect 15 2 21 0;
#X connect 15 3 20 0;
#X connect 15 4 19 0;
#X connect 15 5 18 0;
#X connect 15 6 17 0;
#X connect 15 7 16 0;
#X connect 16 0 6 1;
#X connect 17 0 3 1;
#X connect 18 0 2 1;
#X connect 19 0 5 1;
#X connect 20 0 4 1;
#X connect 21 0 1 1;
#X connect 22 0 0 1;
#X connect 24 0 15 0;
#X connect 27 0 29 0;
#X connect 28 0 27 3;
#X connect 29 0 30 0;
#X restore 367 406 pd triad;
#N canvas -3251 109 875 738 triad 0;
#N canvas 907 176 450 300 major 0;
#X obj 99 10 inlet;
#X floatatom 97 139 5 0 0 0 - - - 0;
#X obj 151 93 + 4;
#X obj 209 93 + 7;
#X floatatom 151 138 5 0 0 0 - - - 0;
#X floatatom 209 138 5 0 0 0 - - - 0;
#X obj 97 183 outlet;
#X obj 151 182 outlet;
#X obj 209 182 outlet;
#X obj 176 10 inlet;
#X obj 99 55 spigot;
#X connect 0 0 10 0;
#X connect 1 0 6 0;
#X connect 1 0 2 0;
#X connect 1 0 3 0;
#X connect 2 0 4 0;
#X connect 3 0 5 0;
#X connect 4 0 7 0;
#X connect 5 0 8 0;
#X connect 9 0 10 1;
#X connect 10 0 1 0;
#X restore 167 273 pd major;
#N canvas 160 160 450 300 minor 0;
#X obj 125 27 inlet;
#X floatatom 123 138 5 0 0 0 - - - 0;
#X obj 232 105 + 7;
#X floatatom 176 138 5 0 0 0 - - - 0;
#X floatatom 230 139 5 0 0 0 - - - 0;
#X obj 123 182 outlet;
#X obj 176 181 outlet;
#X obj 230 181 outlet;
#X obj 174 104 + 3;
#X obj 226 31 inlet;
#X obj 167 66 spigot;
#X connect 0 0 10 0;
#X connect 1 0 5 0;
#X connect 2 0 4 0;
#X connect 3 0 6 0;
#X connect 4 0 7 0;
#X connect 8 0 3 0;
#X connect 9 0 10 1;
#X connect 10 0 1 0;
#X connect 10 0 8 0;
#X connect 10 0 2 0;
#X restore 167 334 pd minor;
#N canvas 335 220 450 300 maj7th 0;
#X obj 95 5 inlet;
#X floatatom 236 136 5 0 0 0 - - - 0;
#X obj 236 178 outlet;
#X obj 238 102 + 11;
#X floatatom 62 137 5 0 0 0 - - - 0;
#X obj 116 91 + 4;
#X obj 174 91 + 7;
#X floatatom 116 136 5 0 0 0 - - - 0;
#X floatatom 174 136 5 0 0 0 - - - 0;
#X obj 62 181 outlet;
#X obj 116 180 outlet;
#X obj 174 180 outlet;
#X obj 185 9 inlet;
#X obj 131 44 spigot;
#X connect 0 0 13 0;
#X connect 1 0 2 0;
#X connect 3 0 1 0;
#X connect 4 0 9 0;
#X connect 5 0 7 0;
#X connect 6 0 8 0;
#X connect 7 0 10 0;
#X connect 8 0 11 0;
#X connect 12 0 13 1;
#X connect 13 0 4 0;
#X connect 13 0 5 0;
#X connect 13 0 6 0;
#X connect 13 0 3 0;
#X restore 165 497 pd maj7th;
#N canvas 224 224 450 300 min7th 0;
#X floatatom 236 136 5 0 0 0 - - - 0;
#X obj 236 178 outlet;
#X obj 238 102 + 10;
#X obj 80 27 inlet;
#X floatatom 78 138 5 0 0 0 - - - 0;
#X obj 187 105 + 7;
#X floatatom 131 138 5 0 0 0 - - - 0;
#X floatatom 185 139 5 0 0 0 - - - 0;
#X obj 78 182 outlet;
#X obj 131 181 outlet;
#X obj 185 181 outlet;
#X obj 129 104 + 3;
#X obj 181 31 inlet;
#X obj 122 66 spigot;
#X connect 0 0 1 0;
#X connect 2 0 0 0;
#X connect 3 0 13 0;
#X connect 4 0 8 0;
#X connect 5 0 7 0;
#X connect 6 0 9 0;
#X connect 7 0 10 0;
#X connect 11 0 6 0;
#X connect 12 0 13 1;
#X connect 13 0 4 0;
#X connect 13 0 11 0;
#X connect 13 0 5 0;
#X connect 13 0 2 0;
#X restore 165 545 pd min7th;
#N canvas 256 256 450 300 dim7th 0;
#X obj 101 1 inlet;
#X floatatom 100 127 5 0 0 0 - - - 0;
#X floatatom 153 127 5 0 0 0 - - - 0;
#X floatatom 207 128 5 0 0 0 - - - 0;
#X obj 100 171 outlet;
#X obj 153 170 outlet;
#X obj 207 170 outlet;
#X floatatom 267 133 5 0 0 0 - - - 0;
#X obj 267 175 outlet;
#X obj 151 93 + 3;
#X obj 209 94 + 6;
#X obj 269 99 + 9;
#X obj 225 15 inlet;
#X obj 166 50 spigot;
#X connect 0 0 13 0;
#X connect 1 0 4 0;
#X connect 2 0 5 0;
#X connect 3 0 6 0;
#X connect 7 0 8 0;
#X connect 9 0 2 0;
#X connect 10 0 3 0;
#X connect 11 0 7 0;
#X connect 12 0 13 1;
#X connect 13 0 1 0;
#X connect 13 0 9 0;
#X connect 13 0 10 0;
#X connect 13 0 11 0;
#X restore 166 390 pd dim7th;
#N canvas 32 32 450 300 dim 0;
#X obj 126 23 inlet;
#X floatatom 123 138 5 0 0 0 - - - 0;
#X floatatom 176 138 5 0 0 0 - - - 0;
#X floatatom 230 139 5 0 0 0 - - - 0;
#X obj 123 182 outlet;
#X obj 176 181 outlet;
#X obj 230 181 outlet;
#X obj 174 104 + 3;
#X obj 232 105 + 6;
#X obj 235 32 inlet;
#X obj 176 67 spigot;
#X connect 0 0 10 0;
#X connect 1 0 4 0;
#X connect 2 0 5 0;
#X connect 3 0 6 0;
#X connect 7 0 2 0;
#X connect 8 0 3 0;
#X connect 9 0 10 1;
#X connect 10 0 1 0;
#X connect 10 0 7 0;
#X connect 10 0 8 0;
#X restore 166 438 pd dim;
#N canvas 32 32 450 300 aug 0;
#X obj 153 43 inlet;
#X floatatom 151 154 5 0 0 0 - - - 0;
#X floatatom 204 154 5 0 0 0 - - - 0;
#X floatatom 258 155 5 0 0 0 - - - 0;
#X obj 151 198 outlet;
#X obj 204 197 outlet;
#X obj 258 197 outlet;
#X obj 254 47 inlet;
#X obj 195 82 spigot;
#X obj 202 120 + 4;
#X obj 260 121 + 8;
#X connect 0 0 8 0;
#X connect 1 0 4 0;
#X connect 2 0 5 0;
#X connect 3 0 6 0;
#X connect 7 0 8 1;
#X connect 8 0 1 0;
#X connect 8 0 9 0;
#X connect 8 0 10 0;
#X connect 9 0 2 0;
#X connect 10 0 3 0;
#X restore 163 601 pd aug;
#X f 7;
#X floatatom 16 71 5 0 0 3 Root\ Note - - 0;
#X obj 16 27 inlet note;
#X obj 289 9 inlet major;
#X obj 380 9 inlet minor;
#X obj 473 9 inlet seventh;
#X floatatom 330 34 5 0 0 0 - - - 0;
#X floatatom 421 34 5 0 0 0 - - - 0;
#X floatatom 514 34 5 0 0 0 - - - 0;
#X obj 280 60 expr if(($i1 == 0 && $i2 == 0 && $i3 == 0) \, 1 \, 0) \; if(($i1 == 1 && $i2 == 0 && $i3 == 0) \, 1 \, 0) \; if(($i1 == 0 && $i2 == 1 && $i3 == 0) \, 1 \, 0) \; if(($i1 == 0 && $i2 == 0 && $i3 == 1) \, 1 \, 0) \; if(($i1 == 1 && $i2 == 1 && $i3 == 0) \, 1 \, 0) \; if(($i1 == 1 && $i2 == 0 && $i3 == 1) \, 1 \, 0) \; if(($i1 == 0 && $i2 == 1 && $i3 == 1) \, 1 \, 0) \; if(($i1 == 1 && $i2 == 1 && $i3 == 1) \, 1 \, 0) \;;
#X obj 620 231 tgl 19 0 empty empty empty 0 -10 0 12 #fcfcfc #000000 #000000 0 1;
#X obj 571 231 tgl 19 0 empty empty empty 0 -10 0 12 #fcfcfc #000000 #000000 0 1;
#X obj 522 232 tgl 19 0 empty empty empty 0 -10 0 12 #fcfcfc #000000 #000000 0 1;
#X obj 474 232 tgl 19 0 empty empty empty 0 -10 0 12 #fcfcfc #000000 #000000 0 1;
#X obj 425 232 tgl 19 0 empty empty empty 0 -10 0 12 #fcfcfc #000000 #000000 0 1;
#X obj 378 233 tgl 19 0 empty empty empty 0 -10 0 12 #fcfcfc #000000 #000000 0 1;
#X obj 328 233 tgl 19 0 empty empty empty 0 -10 0 12 #fcfcfc #000000 #000000 0 1;
#X obj 280 233 tgl 19 0 empty empty empty 0 -10 0 12 #fcfcfc #000000 #000000 0 1;
#X obj 250 53 bng 19 250 50 0 empty empty empty 0 -10 0 12 #fcfcfc #000000 #000000;
#X text 571 307 dom 7th is a major triad with a minor 7th half-dim chords are dim with minor 7th, f 42;
#X text 723 27 0 0 0 - Off 1 0 0 = Major 0 1 0 - Minor 0 0 1 - Dim 7 1 1 0 - Dim 1 0 1 - Maj 7 0 1 1 - Min 7 1 1 1 - Aug, f 15;
#X obj 334 680 pack f f f f;
#X msg 435 613 0;
#X listbox 333 721 20 0 0 0 - - - 0;
#X obj 332 790 outlet;
#X connect 0 0 27 0;
#X connect 0 1 27 1;
#X connect 0 2 27 2;
#X connect 0 2 28 0;
#X connect 1 0 27 0;
#X connect 1 1 27 1;
#X connect 1 2 27 2;
#X connect 1 2 28 0;
#X connect 2 0 27 0;
#X connect 2 1 27 1;
#X connect 2 2 27 2;
#X connect 2 3 27 3;
#X connect 3 0 27 0;
#X connect 3 1 27 1;
#X connect 3 2 27 2;
#X connect 3 3 27 3;
#X connect 4 0 27 0;
#X connect 4 1 27 1;
#X connect 4 2 27 2;
#X connect 4 3 27 3;
#X connect 5 0 27 0;
#X connect 5 1 27 1;
#X connect 5 2 27 2;
#X connect 5 2 28 0;
#X connect 6 0 27 0;
#X connect 6 1 27 1;
#X connect 6 2 27 2;
#X connect 6 2 28 0;
#X connect 7 0 0 0;
#X connect 7 0 1 0;
#X connect 7 0 4 0;
#X connect 7 0 5 0;
#X connect 7 0 2 0;
#X connect 7 0 3 0;
#X connect 7 0 6 0;
#X connect 8 0 7 0;
#X connect 9 0 12 0;
#X connect 10 0 13 0;
#X connect 11 0 14 0;
#X connect 12 0 15 0;
#X connect 12 0 24 0;
#X connect 13 0 15 1;
#X connect 13 0 24 0;
#X connect 14 0 15 2;
#X connect 14 0 24 0;
#X connect 15 0 23 0;
#X connect 15 1 22 0;
#X connect 15 2 21 0;
#X connect 15 3 20 0;
#X connect 15 4 19 0;
#X connect 15 5 18 0;
#X connect 15 6 17 0;
#X connect 15 7 16 0;
#X connect 16 0 6 1;
#X connect 17 0 3 1;
#X connect 18 0 2 1;
#X connect 19 0 5 1;
#X connect 20 0 4 1;
#X connect 21 0 1 1;
#X connect 22 0 0 1;
#X connect 24 0 15 0;
#X connect 27 0 29 0;
#X connect 28 0 27 3;
#X connect 29 0 30 0;
#X restore 455 406 pd triad;
#N canvas -3251 109 875 738 triad 0;
#N canvas 907 176 450 300 major 0;
#X obj 99 10 inlet;
#X floatatom 97 139 5 0 0 0 - - - 0;
#X obj 151 93 + 4;
#X obj 209 93 + 7;
#X floatatom 151 138 5 0 0 0 - - - 0;
#X floatatom 209 138 5 0 0 0 - - - 0;
#X obj 97 183 outlet;
#X obj 151 182 outlet;
#X obj 209 182 outlet;
#X obj 176 10 inlet;
#X obj 99 55 spigot;
#X connect 0 0 10 0;
#X connect 1 0 6 0;
#X connect 1 0 2 0;
#X connect 1 0 3 0;
#X connect 2 0 4 0;
#X connect 3 0 5 0;
#X connect 4 0 7 0;
#X connect 5 0 8 0;
#X connect 9 0 10 1;
#X connect 10 0 1 0;
#X restore 167 273 pd major;
#N canvas 160 160 450 300 minor 0;
#X obj 125 27 inlet;
#X floatatom 123 138 5 0 0 0 - - - 0;
#X obj 232 105 + 7;
#X floatatom 176 138 5 0 0 0 - - - 0;
#X floatatom 230 139 5 0 0 0 - - - 0;
#X obj 123 182 outlet;
#X obj 176 181 outlet;
#X obj 230 181 outlet;
#X obj 174 104 + 3;
#X obj 226 31 inlet;
#X obj 167 66 spigot;
#X connect 0 0 10 0;
#X connect 1 0 5 0;
#X connect 2 0 4 0;
#X connect 3 0 6 0;
#X connect 4 0 7 0;
#X connect 8 0 3 0;
#X connect 9 0 10 1;
#X connect 10 0 1 0;
#X connect 10 0 8 0;
#X connect 10 0 2 0;
#X restore 167 334 pd minor;
#N canvas 335 220 450 300 maj7th 0;
#X obj 95 5 inlet;
#X floatatom 236 136 5 0 0 0 - - - 0;
#X obj 236 178 outlet;
#X obj 238 102 + 11;
#X floatatom 62 137 5 0 0 0 - - - 0;
#X obj 116 91 + 4;
#X obj 174 91 + 7;
#X floatatom 116 136 5 0 0 0 - - - 0;
#X floatatom 174 136 5 0 0 0 - - - 0;
#X obj 62 181 outlet;
#X obj 116 180 outlet;
#X obj 174 180 outlet;
#X obj 185 9 inlet;
#X obj 131 44 spigot;
#X connect 0 0 13 0;
#X connect 1 0 2 0;
#X connect 3 0 1 0;
#X connect 4 0 9 0;
#X connect 5 0 7 0;
#X connect 6 0 8 0;
#X connect 7 0 10 0;
#X connect 8 0 11 0;
#X connect 12 0 13 1;
#X connect 13 0 4 0;
#X connect 13 0 5 0;
#X connect 13 0 6 0;
#X connect 13 0 3 0;
#X restore 165 497 pd maj7th;
#N canvas 224 224 450 300 min7th 0;
#X floatatom 236 136 5 0 0 0 - - - 0;
#X obj 236 178 outlet;
#X obj 238 102 + 10;
#X obj 80 27 inlet;
#X floatatom 78 138 5 0 0 0 - - - 0;
#X obj 187 105 + 7;
#X floatatom 131 138 5 0 0 0 - - - 0;
#X floatatom 185 139 5 0 0 0 - - - 0;
#X obj 78 182 outlet;
#X obj 131 181 outlet;
#X obj 185 181 outlet;
#X obj 129 104 + 3;
#X obj 181 31 inlet;
#X obj 122 66 spigot;
#X connect 0 0 1 0;
#X connect 2 0 0 0;
#X connect 3 0 13 0;
#X connect 4 0 8 0;
#X connect 5 0 7 0;
#X connect 6 0 9 0;
#X connect 7 0 10 0;
#X connect 11 0 6 0;
#X connect 12 0 13 1;
#X connect 13 0 4 0;
#X connect 13 0 11 0;
#X connect 13 0 5 0;
#X connect 13 0 2 0;
#X restore 165 545 pd min7th;
#N canvas 256 256 450 300 dim7th 0;
#X obj 101 1 inlet;
#X floatatom 100 127 5 0 0 0 - - - 0;
#X floatatom 153 127 5 0 0 0 - - - 0;
#X floatatom 207 128 5 0 0 0 - - - 0;
#X obj 100 171 outlet;
#X obj 153 170 outlet;
#X obj 207 170 outlet;
#X floatatom 267 133 5 0 0 0 - - - 0;
#X obj 267 175 outlet;
#X obj 151 93 + 3;
#X obj 209 94 + 6;
#X obj 269 99 + 9;
#X obj 225 15 inlet;
#X obj 166 50 spigot;
#X connect 0 0 13 0;
#X connect 1 0 4 0;
#X connect 2 0 5 0;
#X connect 3 0 6 0;
#X connect 7 0 8 0;
#X connect 9 0 2 0;
#X connect 10 0 3 0;
#X connect 11 0 7 0;
#X connect 12 0 13 1;
#X connect 13 0 1 0;
#X connect 13 0 9 0;
#X connect 13 0 10 0;
#X connect 13 0 11 0;
#X restore 166 390 pd dim7th;
#N canvas 32 32 450 300 dim 0;
#X obj 126 23 inlet;
#X floatatom 123 138 5 0 0 0 - - - 0;
#X floatatom 176 138 5 0 0 0 - - - 0;
#X floatatom 230 139 5 0 0 0 - - - 0;
#X obj 123 182 outlet;
#X obj 176 181 outlet;
#X obj 230 181 outlet;
#X obj 174 104 + 3;
#X obj 232 105 + 6;
#X obj 235 32 inlet;
#X obj 176 67 spigot;
#X connect 0 0 10 0;
#X connect 1 0 4 0;
#X connect 2 0 5 0;
#X connect 3 0 6 0;
#X connect 7 0 2 0;
#X connect 8 0 3 0;
#X connect 9 0 10 1;
#X connect 10 0 1 0;
#X connect 10 0 7 0;
#X connect 10 0 8 0;
#X restore 166 438 pd dim;
#N canvas 32 32 450 300 aug 0;
#X obj 153 43 inlet;
#X floatatom 151 154 5 0 0 0 - - - 0;
#X floatatom 204 154 5 0 0 0 - - - 0;
#X floatatom 258 155 5 0 0 0 - - - 0;
#X obj 151 198 outlet;
#X obj 204 197 outlet;
#X obj 258 197 outlet;
#X obj 254 47 inlet;
#X obj 195 82 spigot;
#X obj 202 120 + 4;
#X obj 260 121 + 8;
#X connect 0 0 8 0;
#X connect 1 0 4 0;
#X connect 2 0 5 0;
#X connect 3 0 6 0;
#X connect 7 0 8 1;
#X connect 8 0 1 0;
#X connect 8 0 9 0;
#X connect 8 0 10 0;
#X connect 9 0 2 0;
#X connect 10 0 3 0;
#X restore 163 601 pd aug;
#X f 7;
#X floatatom 16 71 5 0 0 3 Root\ Note - - 0;
#X obj 16 27 inlet note;
#X obj 289 9 inlet major;
#X obj 380 9 inlet minor;
#X obj 473 9 inlet seventh;
#X floatatom 330 34 5 0 0 0 - - - 0;
#X floatatom 421 34 5 0 0 0 - - - 0;
#X floatatom 514 34 5 0 0 0 - - - 0;
#X obj 280 60 expr if(($i1 == 0 && $i2 == 0 && $i3 == 0) \, 1 \, 0) \; if(($i1 == 1 && $i2 == 0 && $i3 == 0) \, 1 \, 0) \; if(($i1 == 0 && $i2 == 1 && $i3 == 0) \, 1 \, 0) \; if(($i1 == 0 && $i2 == 0 && $i3 == 1) \, 1 \, 0) \; if(($i1 == 1 && $i2 == 1 && $i3 == 0) \, 1 \, 0) \; if(($i1 == 1 && $i2 == 0 && $i3 == 1) \, 1 \, 0) \; if(($i1 == 0 && $i2 == 1 && $i3 == 1) \, 1 \, 0) \; if(($i1 == 1 && $i2 == 1 && $i3 == 1) \, 1 \, 0) \;;
#X obj 620 231 tgl 19 0 empty empty empty 0 -10 0 12 #fcfcfc #000000 #000000 0 1;
#X obj 571 231 tgl 19 0 empty empty empty 0 -10 0 12 #fcfcfc #000000 #000000 0 1;
#X obj 522 232 tgl 19 0 empty empty empty 0 -10 0 12 #fcfcfc #000000 #000000 0 1;
#X obj 474 232 tgl 19 0 empty empty empty 0 -10 0 12 #fcfcfc #000000 #000000 0 1;
#X obj 425 232 tgl 19 0 empty empty empty 0 -10 0 12 #fcfcfc #000000 #000000 0 1;
#X obj 378 233 tgl 19 0 empty empty empty 0 -10 0 12 #fcfcfc #000000 #000000 0 1;
#X obj 328 233 tgl 19 0 empty empty empty 0 -10 0 12 #fcfcfc #000000 #000000 0 1;
#X obj 280 233 tgl 19 0 empty empty empty 0 -10 0 12 #fcfcfc #000000 #000000 0 1;
#X obj 250 53 bng 19 250 50 0 empty empty empty 0 -10 0 12 #fcfcfc #000000 #000000;
#X text 571 307 dom 7th is a major triad with a minor 7th half-dim chords are dim with minor 7th, f 42;
#X text 723 27 0 0 0 - Off 1 0 0 = Major 0 1 0 - Minor 0 0 1 - Dim 7 1 1 0 - Dim 1 0 1 - Maj 7 0 1 1 - Min 7 1 1 1 - Aug, f 15;
#X obj 334 680 pack f f f f;
#X msg 435 613 0;
#X listbox 333 721 20 0 0 0 - - - 0;
#X obj 332 790 outlet;
#X connect 0 0 27 0;
#X connect 0 1 27 1;
#X connect 0 2 27 2;
#X connect 0 2 28 0;
#X connect 1 0 27 0;
#X connect 1 1 27 1;
#X connect 1 2 27 2;
#X connect 1 2 28 0;
#X connect 2 0 27 0;
#X connect 2 1 27 1;
#X connect 2 2 27 2;
#X connect 2 3 27 3;
#X connect 3 0 27 0;
#X connect 3 1 27 1;
#X connect 3 2 27 2;
#X connect 3 3 27 3;
#X connect 4 0 27 0;
#X connect 4 1 27 1;
#X connect 4 2 27 2;
#X connect 4 3 27 3;
#X connect 5 0 27 0;
#X connect 5 1 27 1;
#X connect 5 2 27 2;
#X connect 5 2 28 0;
#X connect 6 0 27 0;
#X connect 6 1 27 1;
#X connect 6 2 27 2;
#X connect 6 2 28 0;
#X connect 7 0 0 0;
#X connect 7 0 1 0;
#X connect 7 0 4 0;
#X connect 7 0 5 0;
#X connect 7 0 2 0;
#X connect 7 0 3 0;
#X connect 7 0 6 0;
#X connect 8 0 7 0;
#X connect 9 0 12 0;
#X connect 10 0 13 0;
#X connect 11 0 14 0;
#X connect 12 0 15 0;
#X connect 12 0 24 0;
#X connect 13 0 15 1;
#X connect 13 0 24 0;
#X connect 14 0 15 2;
#X connect 14 0 24 0;
#X connect 15 0 23 0;
#X connect 15 1 22 0;
#X connect 15 2 21 0;
#X connect 15 3 20 0;
#X connect 15 4 19 0;
#X connect 15 5 18 0;
#X connect 15 6 17 0;
#X connect 15 7 16 0;
#X connect 16 0 6 1;
#X connect 17 0 3 1;
#X connect 18 0 2 1;
#X connect 19 0 5 1;
#X connect 20 0 4 1;
#X connect 21 0 1 1;
#X connect 22 0 0 1;
#X connect 24 0 15 0;
#X connect 27 0 29 0;
#X connect 28 0 27 3;
#X connect 29 0 30 0;
#X restore 544 406 pd triad;
#N canvas -3251 109 875 738 triad 0;
#N canvas 907 176 450 300 major 0;
#X obj 99 10 inlet;
#X floatatom 97 139 5 0 0 0 - - - 0;
#X obj 151 93 + 4;
#X obj 209 93 + 7;
#X floatatom 151 138 5 0 0 0 - - - 0;
#X floatatom 209 138 5 0 0 0 - - - 0;
#X obj 97 183 outlet;
#X obj 151 182 outlet;
#X obj 209 182 outlet;
#X obj 176 10 inlet;
#X obj 99 55 spigot;
#X connect 0 0 10 0;
#X connect 1 0 6 0;
#X connect 1 0 2 0;
#X connect 1 0 3 0;
#X connect 2 0 4 0;
#X connect 3 0 5 0;
#X connect 4 0 7 0;
#X connect 5 0 8 0;
#X connect 9 0 10 1;
#X connect 10 0 1 0;
#X restore 167 273 pd major;
#N canvas 160 160 450 300 minor 0;
#X obj 125 27 inlet;
#X floatatom 123 138 5 0 0 0 - - - 0;
#X obj 232 105 + 7;
#X floatatom 176 138 5 0 0 0 - - - 0;
#X floatatom 230 139 5 0 0 0 - - - 0;
#X obj 123 182 outlet;
#X obj 176 181 outlet;
#X obj 230 181 outlet;
#X obj 174 104 + 3;
#X obj 226 31 inlet;
#X obj 167 66 spigot;
#X connect 0 0 10 0;
#X connect 1 0 5 0;
#X connect 2 0 4 0;
#X connect 3 0 6 0;
#X connect 4 0 7 0;
#X connect 8 0 3 0;
#X connect 9 0 10 1;
#X connect 10 0 1 0;
#X connect 10 0 8 0;
#X connect 10 0 2 0;
#X restore 167 334 pd minor;
#N canvas 335 220 450 300 maj7th 0;
#X obj 95 5 inlet;
#X floatatom 236 136 5 0 0 0 - - - 0;
#X obj 236 178 outlet;
#X obj 238 102 + 11;
#X floatatom 62 137 5 0 0 0 - - - 0;
#X obj 116 91 + 4;
#X obj 174 91 + 7;
#X floatatom 116 136 5 0 0 0 - - - 0;
#X floatatom 174 136 5 0 0 0 - - - 0;
#X obj 62 181 outlet;
#X obj 116 180 outlet;
#X obj 174 180 outlet;
#X obj 185 9 inlet;
#X obj 131 44 spigot;
#X connect 0 0 13 0;
#X connect 1 0 2 0;
#X connect 3 0 1 0;
#X connect 4 0 9 0;
#X connect 5 0 7 0;
#X connect 6 0 8 0;
#X connect 7 0 10 0;
#X connect 8 0 11 0;
#X connect 12 0 13 1;
#X connect 13 0 4 0;
#X connect 13 0 5 0;
#X connect 13 0 6 0;
#X connect 13 0 3 0;
#X restore 165 497 pd maj7th;
#N canvas 224 224 450 300 min7th 0;
#X floatatom 236 136 5 0 0 0 - - - 0;
#X obj 236 178 outlet;
#X obj 238 102 + 10;
#X obj 80 27 inlet;
#X floatatom 78 138 5 0 0 0 - - - 0;
#X obj 187 105 + 7;
#X floatatom 131 138 5 0 0 0 - - - 0;
#X floatatom 185 139 5 0 0 0 - - - 0;
#X obj 78 182 outlet;
#X obj 131 181 outlet;
#X obj 185 181 outlet;
#X obj 129 104 + 3;
#X obj 181 31 inlet;
#X obj 122 66 spigot;
#X connect 0 0 1 0;
#X connect 2 0 0 0;
#X connect 3 0 13 0;
#X connect 4 0 8 0;
#X connect 5 0 7 0;
#X connect 6 0 9 0;
#X connect 7 0 10 0;
#X connect 11 0 6 0;
#X connect 12 0 13 1;
#X connect 13 0 4 0;
#X connect 13 0 11 0;
#X connect 13 0 5 0;
#X connect 13 0 2 0;
#X restore 165 545 pd min7th;
#N canvas 256 256 450 300 dim7th 0;
#X obj 101 1 inlet;
#X floatatom 100 127 5 0 0 0 - - - 0;
#X floatatom 153 127 5 0 0 0 - - - 0;
#X floatatom 207 128 5 0 0 0 - - - 0;
#X obj 100 171 outlet;
#X obj 153 170 outlet;
#X obj 207 170 outlet;
#X floatatom 267 133 5 0 0 0 - - - 0;
#X obj 267 175 outlet;
#X obj 151 93 + 3;
#X obj 209 94 + 6;
#X obj 269 99 + 9;
#X obj 225 15 inlet;
#X obj 166 50 spigot;
#X connect 0 0 13 0;
#X connect 1 0 4 0;
#X connect 2 0 5 0;
#X connect 3 0 6 0;
#X connect 7 0 8 0;
#X connect 9 0 2 0;
#X connect 10 0 3 0;
#X connect 11 0 7 0;
#X connect 12 0 13 1;
#X connect 13 0 1 0;
#X connect 13 0 9 0;
#X connect 13 0 10 0;
#X connect 13 0 11 0;
#X restore 166 390 pd dim7th;
#N canvas 32 32 450 300 dim 0;
#X obj 126 23 inlet;
#X floatatom 123 138 5 0 0 0 - - - 0;
#X floatatom 176 138 5 0 0 0 - - - 0;
#X floatatom 230 139 5 0 0 0 - - - 0;
#X obj 123 182 outlet;
#X obj 176 181 outlet;
#X obj 230 181 outlet;
#X obj 174 104 + 3;
#X obj 232 105 + 6;
#X obj 235 32 inlet;
#X obj 176 67 spigot;
#X connect 0 0 10 0;
#X connect 1 0 4 0;
#X connect 2 0 5 0;
#X connect 3 0 6 0;
#X connect 7 0 2 0;
#X connect 8 0 3 0;
#X connect 9 0 10 1;
#X connect 10 0 1 0;
#X connect 10 0 7 0;
#X connect 10 0 8 0;
#X restore 166 438 pd dim;
#N canvas 32 32 450 300 aug 0;
#X obj 153 43 inlet;
#X floatatom 151 154 5 0 0 0 - - - 0;
#X floatatom 204 154 5 0 0 0 - - - 0;
#X floatatom 258 155 5 0 0 0 - - - 0;
#X obj 151 198 outlet;
#X obj 204 197 outlet;
#X obj 258 197 outlet;
#X obj 254 47 inlet;
#X obj 195 82 spigot;
#X obj 202 120 + 4;
#X obj 260 121 + 8;
#X connect 0 0 8 0;
#X connect 1 0 4 0;
#X connect 2 0 5 0;
#X connect 3 0 6 0;
#X connect 7 0 8 1;
#X connect 8 0 1 0;
#X connect 8 0 9 0;
#X connect 8 0 10 0;
#X connect 9 0 2 0;
#X connect 10 0 3 0;
#X restore 163 601 pd aug;
#X f 7;
#X floatatom 16 71 5 0 0 3 Root\ Note - - 0;
#X obj 16 27 inlet note;
#X obj 289 9 inlet major;
#X obj 380 9 inlet minor;
#X obj 473 9 inlet seventh;
#X floatatom 330 34 5 0 0 0 - - - 0;
#X floatatom 421 34 5 0 0 0 - - - 0;
#X floatatom 514 34 5 0 0 0 - - - 0;
#X obj 280 60 expr if(($i1 == 0 && $i2 == 0 && $i3 == 0) \, 1 \, 0) \; if(($i1 == 1 && $i2 == 0 && $i3 == 0) \, 1 \, 0) \; if(($i1 == 0 && $i2 == 1 && $i3 == 0) \, 1 \, 0) \; if(($i1 == 0 && $i2 == 0 && $i3 == 1) \, 1 \, 0) \; if(($i1 == 1 && $i2 == 1 && $i3 == 0) \, 1 \, 0) \; if(($i1 == 1 && $i2 == 0 && $i3 == 1) \, 1 \, 0) \; if(($i1 == 0 && $i2 == 1 && $i3 == 1) \, 1 \, 0) \; if(($i1 == 1 && $i2 == 1 && $i3 == 1) \, 1 \, 0) \;;
#X obj 620 231 tgl 19 0 empty empty empty 0 -10 0 12 #fcfcfc #000000 #000000 0 1;
#X obj 571 231 tgl 19 0 empty empty empty 0 -10 0 12 #fcfcfc #000000 #000000 0 1;
#X obj 522 232 tgl 19 0 empty empty empty 0 -10 0 12 #fcfcfc #000000 #000000 0 1;
#X obj 474 232 tgl 19 0 empty empty empty 0 -10 0 12 #fcfcfc #000000 #000000 0 1;
#X obj 425 232 tgl 19 0 empty empty empty 0 -10 0 12 #fcfcfc #000000 #000000 0 1;
#X obj 378 233 tgl 19 0 empty empty empty 0 -10 0 12 #fcfcfc #000000 #000000 0 1;
#X obj 328 233 tgl 19 0 empty empty empty 0 -10 0 12 #fcfcfc #000000 #000000 0 1;
#X obj 280 233 tgl 19 0 empty empty empty 0 -10 0 12 #fcfcfc #000000 #000000 0 1;
#X obj 250 53 bng 19 250 50 0 empty empty empty 0 -10 0 12 #fcfcfc #000000 #000000;
#X text 571 307 dom 7th is a major triad with a minor 7th half-dim chords are dim with minor 7th, f 42;
#X text 723 27 0 0 0 - Off 1 0 0 = Major 0 1 0 - Minor 0 0 1 - Dim 7 1 1 0 - Dim 1 0 1 - Maj 7 0 1 1 - Min 7 1 1 1 - Aug, f 15;
#X obj 334 680 pack f f f f;
#X msg 435 613 0;
#X listbox 333 721 20 0 0 0 - - - 0;
#X obj 332 790 outlet;
#X connect 0 0 27 0;
#X connect 0 1 27 1;
#X connect 0 2 27 2;
#X connect 0 2 28 0;
#X connect 1 0 27 0;
#X connect 1 1 27 1;
#X connect 1 2 27 2;
#X connect 1 2 28 0;
#X connect 2 0 27 0;
#X connect 2 1 27 1;
#X connect 2 2 27 2;
#X connect 2 3 27 3;
#X connect 3 0 27 0;
#X connect 3 1 27 1;
#X connect 3 2 27 2;
#X connect 3 3 27 3;
#X connect 4 0 27 0;
#X connect 4 1 27 1;
#X connect 4 2 27 2;
#X connect 4 3 27 3;
#X connect 5 0 27 0;
#X connect 5 1 27 1;
#X connect 5 2 27 2;
#X connect 5 2 28 0;
#X connect 6 0 27 0;
#X connect 6 1 27 1;
#X connect 6 2 27 2;
#X connect 6 2 28 0;
#X connect 7 0 0 0;
#X connect 7 0 1 0;
#X connect 7 0 4 0;
#X connect 7 0 5 0;
#X connect 7 0 2 0;
#X connect 7 0 3 0;
#X connect 7 0 6 0;
#X connect 8 0 7 0;
#X connect 9 0 12 0;
#X connect 10 0 13 0;
#X connect 11 0 14 0;
#X connect 12 0 15 0;
#X connect 12 0 24 0;
#X connect 13 0 15 1;
#X connect 13 0 24 0;
#X connect 14 0 15 2;
#X connect 14 0 24 0;
#X connect 15 0 23 0;
#X connect 15 1 22 0;
#X connect 15 2 21 0;
#X connect 15 3 20 0;
#X connect 15 4 19 0;
#X connect 15 5 18 0;
#X connect 15 6 17 0;
#X connect 15 7 16 0;
#X connect 16 0 6 1;
#X connect 17 0 3 1;
#X connect 18 0 2 1;
#X connect 19 0 5 1;
#X connect 20 0 4 1;
#X connect 21 0 1 1;
#X connect 22 0 0 1;
#X connect 24 0 15 0;
#X connect 27 0 29 0;
#X connect 28 0 27 3;
#X connect 29 0 30 0;
#X restore 627 406 pd triad;
#N canvas -3251 109 1037 931 triad 0;
#N canvas 907 176 450 300 major 0;
#X obj 99 10 inlet;
#X floatatom 97 139 5 0 0 0 - - - 0;
#X obj 151 93 + 4;
#X obj 209 93 + 7;
#X floatatom 151 138 5 0 0 0 - - - 0;
#X floatatom 209 138 5 0 0 0 - - - 0;
#X obj 97 183 outlet;
#X obj 151 182 outlet;
#X obj 209 182 outlet;
#X obj 176 10 inlet;
#X obj 99 55 spigot;
#X connect 0 0 10 0;
#X connect 1 0 6 0;
#X connect 1 0 2 0;
#X connect 1 0 3 0;
#X connect 2 0 4 0;
#X connect 3 0 5 0;
#X connect 4 0 7 0;
#X connect 5 0 8 0;
#X connect 9 0 10 1;
#X connect 10 0 1 0;
#X restore 167 273 pd major;
#N canvas 160 160 450 300 minor 0;
#X obj 125 27 inlet;
#X floatatom 123 138 5 0 0 0 - - - 0;
#X obj 232 105 + 7;
#X floatatom 176 138 5 0 0 0 - - - 0;
#X floatatom 230 139 5 0 0 0 - - - 0;
#X obj 123 182 outlet;
#X obj 176 181 outlet;
#X obj 230 181 outlet;
#X obj 174 104 + 3;
#X obj 226 31 inlet;
#X obj 167 66 spigot;
#X connect 0 0 10 0;
#X connect 1 0 5 0;
#X connect 2 0 4 0;
#X connect 3 0 6 0;
#X connect 4 0 7 0;
#X connect 8 0 3 0;
#X connect 9 0 10 1;
#X connect 10 0 1 0;
#X connect 10 0 8 0;
#X connect 10 0 2 0;
#X restore 167 334 pd minor;
#N canvas 335 220 450 300 maj7th 0;
#X obj 95 5 inlet;
#X floatatom 236 136 5 0 0 0 - - - 0;
#X obj 236 178 outlet;
#X obj 238 102 + 11;
#X floatatom 62 137 5 0 0 0 - - - 0;
#X obj 116 91 + 4;
#X obj 174 91 + 7;
#X floatatom 116 136 5 0 0 0 - - - 0;
#X floatatom 174 136 5 0 0 0 - - - 0;
#X obj 62 181 outlet;
#X obj 116 180 outlet;
#X obj 174 180 outlet;
#X obj 185 9 inlet;
#X obj 131 44 spigot;
#X connect 0 0 13 0;
#X connect 1 0 2 0;
#X connect 3 0 1 0;
#X connect 4 0 9 0;
#X connect 5 0 7 0;
#X connect 6 0 8 0;
#X connect 7 0 10 0;
#X connect 8 0 11 0;
#X connect 12 0 13 1;
#X connect 13 0 4 0;
#X connect 13 0 5 0;
#X connect 13 0 6 0;
#X connect 13 0 3 0;
#X restore 165 497 pd maj7th;
#N canvas 224 224 450 300 min7th 0;
#X floatatom 236 136 5 0 0 0 - - - 0;
#X obj 236 178 outlet;
#X obj 238 102 + 10;
#X obj 80 27 inlet;
#X floatatom 78 138 5 0 0 0 - - - 0;
#X obj 187 105 + 7;
#X floatatom 131 138 5 0 0 0 - - - 0;
#X floatatom 185 139 5 0 0 0 - - - 0;
#X obj 78 182 outlet;
#X obj 131 181 outlet;
#X obj 185 181 outlet;
#X obj 129 104 + 3;
#X obj 181 31 inlet;
#X obj 122 66 spigot;
#X connect 0 0 1 0;
#X connect 2 0 0 0;
#X connect 3 0 13 0;
#X connect 4 0 8 0;
#X connect 5 0 7 0;
#X connect 6 0 9 0;
#X connect 7 0 10 0;
#X connect 11 0 6 0;
#X connect 12 0 13 1;
#X connect 13 0 4 0;
#X connect 13 0 11 0;
#X connect 13 0 5 0;
#X connect 13 0 2 0;
#X restore 165 545 pd min7th;
#N canvas 256 256 450 300 dim7th 0;
#X obj 101 1 inlet;
#X floatatom 100 127 5 0 0 0 - - - 0;
#X floatatom 153 127 5 0 0 0 - - - 0;
#X floatatom 207 128 5 0 0 0 - - - 0;
#X obj 100 171 outlet;
#X obj 153 170 outlet;
#X obj 207 170 outlet;
#X floatatom 267 133 5 0 0 0 - - - 0;
#X obj 267 175 outlet;
#X obj 151 93 + 3;
#X obj 209 94 + 6;
#X obj 269 99 + 9;
#X obj 225 15 inlet;
#X obj 166 50 spigot;
#X connect 0 0 13 0;
#X connect 1 0 4 0;
#X connect 2 0 5 0;
#X connect 3 0 6 0;
#X connect 7 0 8 0;
#X connect 9 0 2 0;
#X connect 10 0 3 0;
#X connect 11 0 7 0;
#X connect 12 0 13 1;
#X connect 13 0 1 0;
#X connect 13 0 9 0;
#X connect 13 0 10 0;
#X connect 13 0 11 0;
#X restore 166 390 pd dim7th;
#N canvas 32 32 450 300 dim 0;
#X obj 126 23 inlet;
#X floatatom 123 138 5 0 0 0 - - - 0;
#X floatatom 176 138 5 0 0 0 - - - 0;
#X floatatom 230 139 5 0 0 0 - - - 0;
#X obj 123 182 outlet;
#X obj 176 181 outlet;
#X obj 230 181 outlet;
#X obj 174 104 + 3;
#X obj 232 105 + 6;
#X obj 235 32 inlet;
#X obj 176 67 spigot;
#X connect 0 0 10 0;
#X connect 1 0 4 0;
#X connect 2 0 5 0;
#X connect 3 0 6 0;
#X connect 7 0 2 0;
#X connect 8 0 3 0;
#X connect 9 0 10 1;
#X connect 10 0 1 0;
#X connect 10 0 7 0;
#X connect 10 0 8 0;
#X restore 166 438 pd dim;
#N canvas 32 32 450 300 aug 0;
#X obj 153 43 inlet;
#X floatatom 151 154 5 0 0 0 - - - 0;
#X floatatom 204 154 5 0 0 0 - - - 0;
#X floatatom 258 155 5 0 0 0 - - - 0;
#X obj 151 198 outlet;
#X obj 204 197 outlet;
#X obj 258 197 outlet;
#X obj 254 47 inlet;
#X obj 195 82 spigot;
#X obj 202 120 + 4;
#X obj 260 121 + 8;
#X connect 0 0 8 0;
#X connect 1 0 4 0;
#X connect 2 0 5 0;
#X connect 3 0 6 0;
#X connect 7 0 8 1;
#X connect 8 0 1 0;
#X connect 8 0 9 0;
#X connect 8 0 10 0;
#X connect 9 0 2 0;
#X connect 10 0 3 0;
#X restore 163 601 pd aug;
#X f 7;
#X floatatom 16 71 5 0 0 3 Root\ Note - - 0;
#X obj 16 27 inlet note;
#X obj 289 9 inlet major;
#X obj 380 9 inlet minor;
#X obj 473 9 inlet seventh;
#X floatatom 330 34 5 0 0 0 - - - 0;
#X floatatom 421 34 5 0 0 0 - - - 0;
#X floatatom 514 34 5 0 0 0 - - - 0;
#X obj 280 60 expr if(($i1 == 0 && $i2 == 0 && $i3 == 0) \, 1 \, 0) \; if(($i1 == 1 && $i2 == 0 && $i3 == 0) \, 1 \, 0) \; if(($i1 == 0 && $i2 == 1 && $i3 == 0) \, 1 \, 0) \; if(($i1 == 0 && $i2 == 0 && $i3 == 1) \, 1 \, 0) \; if(($i1 == 1 && $i2 == 1 && $i3 == 0) \, 1 \, 0) \; if(($i1 == 1 && $i2 == 0 && $i3 == 1) \, 1 \, 0) \; if(($i1 == 0 && $i2 == 1 && $i3 == 1) \, 1 \, 0) \; if(($i1 == 1 && $i2 == 1 && $i3 == 1) \, 1 \, 0) \;;
#X obj 620 231 tgl 19 0 empty empty empty 0 -10 0 12 #fcfcfc #000000 #000000 0 1;
#X obj 571 231 tgl 19 0 empty empty empty 0 -10 0 12 #fcfcfc #000000 #000000 0 1;
#X obj 522 232 tgl 19 0 empty empty empty 0 -10 0 12 #fcfcfc #000000 #000000 0 1;
#X obj 474 232 tgl 19 0 empty empty empty 0 -10 0 12 #fcfcfc #000000 #000000 0 1;
#X obj 425 232 tgl 19 0 empty empty empty 0 -10 0 12 #fcfcfc #000000 #000000 0 1;
#X obj 378 233 tgl 19 0 empty empty empty 0 -10 0 12 #fcfcfc #000000 #000000 0 1;
#X obj 328 233 tgl 19 0 empty empty empty 0 -10 0 12 #fcfcfc #000000 #000000 0 1;
#X obj 280 233 tgl 19 0 empty empty empty 0 -10 0 12 #fcfcfc #000000 #000000 0 1;
#X obj 250 53 bng 19 250 50 0 empty empty empty 0 -10 0 12 #fcfcfc #000000 #000000;
#X text 571 307 dom 7th is a major triad with a minor 7th half-dim chords are dim with minor 7th, f 42;
#X text 723 27 0 0 0 - Off 1 0 0 = Major 0 1 0 - Minor 0 0 1 - Dim 7 1 1 0 - Dim 1 0 1 - Maj 7 0 1 1 - Min 7 1 1 1 - Aug, f 15;
#X obj 334 680 pack f f f f;
#X msg 435 613 0;
#X listbox 333 721 20 0 0 0 - - - 0;
#X obj 332 790 outlet;
#X connect 0 0 27 0;
#X connect 0 1 27 1;
#X connect 0 2 27 2;
#X connect 0 2 28 0;
#X connect 1 0 27 0;
#X connect 1 1 27 1;
#X connect 1 2 27 2;
#X connect 1 2 28 0;
#X connect 2 0 27 0;
#X connect 2 1 27 1;
#X connect 2 2 27 2;
#X connect 2 3 27 3;
#X connect 3 0 27 0;
#X connect 3 1 27 1;
#X connect 3 2 27 2;
#X connect 3 3 27 3;
#X connect 4 0 27 0;
#X connect 4 1 27 1;
#X connect 4 2 27 2;
#X connect 4 3 27 3;
#X connect 5 0 27 0;
#X connect 5 1 27 1;
#X connect 5 2 27 2;
#X connect 5 2 28 0;
#X connect 6 0 27 0;
#X connect 6 1 27 1;
#X connect 6 2 27 2;
#X connect 6 2 28 0;
#X connect 7 0 0 0;
#X connect 7 0 1 0;
#X connect 7 0 4 0;
#X connect 7 0 5 0;
#X connect 7 0 2 0;
#X connect 7 0 3 0;
#X connect 7 0 6 0;
#X connect 8 0 7 0;
#X connect 9 0 12 0;
#X connect 10 0 13 0;
#X connect 11 0 14 0;
#X connect 12 0 15 0;
#X connect 12 0 24 0;
#X connect 13 0 15 1;
#X connect 13 0 24 0;
#X connect 14 0 15 2;
#X connect 14 0 24 0;
#X connect 15 0 23 0;
#X connect 15 1 22 0;
#X connect 15 2 21 0;
#X connect 15 3 20 0;
#X connect 15 4 19 0;
#X connect 15 5 18 0;
#X connect 15 6 17 0;
#X connect 15 7 16 0;
#X connect 16 0 6 1;
#X connect 17 0 3 1;
#X connect 18 0 2 1;
#X connect 19 0 5 1;
#X connect 20 0 4 1;
#X connect 21 0 1 1;
#X connect 22 0 0 1;
#X connect 24 0 15 0;
#X connect 27 0 29 0;
#X connect 28 0 27 3;
#X connect 29 0 30 0;
#X restore 716 406 pd triad;
#X listbox 428 476 20 0 0 1 Chord\ Notes - - 0;
#X obj 254 320 bng 19 250 50 0 empty empty empty 0 -10 0 12 #fcfcfc #000000 #000000;
#X obj 339 320 bng 19 250 50 0 empty empty empty 0 -10 0 12 #fcfcfc #000000 #000000;
#X obj 427 320 bng 19 250 50 0 empty empty empty 0 -10 0 12 #fcfcfc #000000 #000000;
#X obj 517 320 bng 19 250 50 0 empty empty empty 0 -10 0 12 #fcfcfc #000000 #000000;
#X obj 603 320 bng 19 250 50 0 empty empty empty 0 -10 0 12 #fcfcfc #000000 #000000;
#X obj 688 320 bng 19 250 50 0 empty empty empty 0 -10 0 12 #fcfcfc #000000 #000000;
#X obj 159 320 bng 19 250 50 0 empty empty empty 0 -10 0 12 #fcfcfc #000000 #000000;
#X obj 129 358 tgl 19 0 empty empty empty 0 -10 0 12 #fcfcfc #000000 #000000 0 1;
#X obj 254 344 tgl 19 0 empty empty empty 0 -10 0 12 #fcfcfc #000000 #000000 0 1;
#X obj 339 344 tgl 19 0 empty empty empty 0 -10 0 12 #fcfcfc #000000 #000000 0 1;
#X obj 427 344 tgl 19 0 empty empty empty 0 -10 0 12 #fcfcfc #000000 #000000 0 1;
#X obj 517 344 tgl 19 0 empty empty empty 0 -10 0 12 #fcfcfc #000000 #000000 0 1;
#X obj 603 344 tgl 19 0 empty empty empty 0 -10 0 12 #fcfcfc #000000 #000000 0 1;
#X obj 688 344 tgl 19 0 empty empty empty 0 -10 0 12 #fcfcfc #000000 #000000 0 1;
#X obj 129 382 sel 0;
#X obj 129 406 bng 19 250 50 0 empty empty empty 0 -10 0 12 #fcfcfc #000000 #000000;
#X obj 254 368 sel 0;
#X obj 254 392 bng 19 250 50 0 empty empty empty 0 -10 0 12 #fcfcfc #000000 #000000;
#X obj 339 368 sel 0;
#X obj 339 392 bng 19 250 50 0 empty empty empty 0 -10 0 12 #fcfcfc #000000 #000000;
#X obj 427 368 sel 0;
#X obj 427 392 bng 19 250 50 0 empty empty empty 0 -10 0 12 #fcfcfc #000000 #000000;
#X obj 517 368 sel 0;
#X obj 517 392 bng 19 250 50 0 empty empty empty 0 -10 0 12 #fcfcfc #000000 #000000;
#X obj 603 368 sel 0;
#X obj 603 392 bng 19 250 50 0 empty empty empty 0 -10 0 12 #fcfcfc #000000 #000000;
#X obj 688 368 sel 0;
#X obj 688 392 bng 19 250 50 0 empty empty empty 0 -10 0 12 #fcfcfc #000000 #000000;
#X obj 428 499 unpack f f f f;
#X obj 348 581 pack f f f;
#X obj 430 581 pack f f f;
#X obj 516 581 pack f f f;
#X obj 601 581 pack f f f;
#X msg 297 506 0;
#X obj 561 506 bng 19 250 50 0 empty empty empty 0 -10 0 12 #fcfcfc #000000 #000000;
#X obj 297 530 bng 19 250 50 0 empty empty empty 0 -10 0 12 #fcfcfc #000000 #000000;
#X obj 529 741 midiout;
#X msg 578 709 1;
#X msg 348 605 \$3 \$1 \$2;
#X msg 430 605 \$3 \$1 \$2;
#X msg 516 605 \$3 \$1 \$2;
#X msg 601 605 \$3 \$1 \$2;
#X obj 786 456 + 143;
#X floatatom 750 506 5 0 0 0 - - - 0;
#X connect 0 0 44 1;
#X connect 0 0 58 0;
#X connect 0 0 59 0;
#X connect 1 0 2 0;
#X connect 2 0 3 0;
#X connect 3 0 5 0;
#X connect 5 0 34 0;
#X connect 5 0 44 0;
#X connect 6 0 1 0;
#X connect 7 0 44 2;
#X connect 7 0 58 0;
#X connect 7 0 59 0;
#X connect 8 0 44 3;
#X connect 8 0 58 0;
#X connect 8 0 59 0;
#X connect 9 0 43 1;
#X connect 9 0 52 0;
#X connect 9 0 60 0;
#X connect 10 0 43 2;
#X connect 10 0 52 0;
#X connect 10 0 60 0;
#X connect 11 0 43 3;
#X connect 11 0 52 0;
#X connect 11 0 60 0;
#X connect 12 0 35 0;
#X connect 12 0 43 0;
#X connect 13 0 46 1;
#X connect 13 0 53 0;
#X connect 13 0 61 0;
#X connect 14 0 46 2;
#X connect 14 0 53 0;
#X connect 14 0 61 0;
#X connect 15 0 46 3;
#X connect 15 0 53 0;
#X connect 15 0 61 0;
#X connect 16 0 21 0;
#X connect 16 0 46 0;
#X connect 17 0 47 1;
#X connect 17 0 54 0;
#X connect 17 0 62 0;
#X connect 18 0 47 2;
#X connect 18 0 54 0;
#X connect 18 0 62 0;
#X connect 19 0 47 3;
#X connect 19 0 54 0;
#X connect 19 0 62 0;
#X connect 20 0 36 0;
#X connect 20 0 47 0;
#X connect 21 0 20 0;
#X connect 22 0 48 1;
#X connect 22 0 55 0;
#X connect 22 0 63 0;
#X connect 23 0 48 2;
#X connect 23 0 55 0;
#X connect 23 0 63 0;
#X connect 24 0 48 3;
#X connect 24 0 55 0;
#X connect 24 0 63 0;
#X connect 25 0 37 0;
#X connect 25 0 48 0;
#X connect 26 0 49 1;
#X connect 26 0 56 0;
#X connect 26 0 64 0;
#X connect 27 0 49 2;
#X connect 27 0 56 0;
#X connect 27 0 64 0;
#X connect 28 0 49 3;
#X connect 28 0 56 0;
#X connect 28 0 64 0;
#X connect 29 0 38 0;
#X connect 29 0 49 0;
#X connect 30 0 50 1;
#X connect 30 0 57 0;
#X connect 30 0 65 0;
#X connect 31 0 50 2;
#X connect 31 0 57 0;
#X connect 31 0 65 0;
#X connect 32 0 50 3;
#X connect 32 0 57 0;
#X connect 32 0 65 0;
#X connect 33 0 50 0;
#X connect 34 0 12 0;
#X connect 35 0 16 0;
#X connect 36 0 25 0;
#X connect 37 0 29 0;
#X connect 38 0 33 0;
#X connect 39 0 45 0;
#X connect 40 0 41 0;
#X connect 40 0 42 0;
#X connect 40 0 89 0;
#X connect 41 0 39 0;
#X connect 42 0 94 0;
#X connect 43 0 51 0;
#X connect 44 0 51 0;
#X connect 45 0 81 1;
#X connect 45 0 82 1;
#X connect 45 0 83 1;
#X connect 45 0 84 1;
#X connect 45 0 33 0;
#X connect 46 0 51 0;
#X connect 47 0 51 0;
#X connect 48 0 51 0;
#X connect 49 0 51 0;
#X connect 50 0 51 0;
#X connect 51 0 80 0;
#X connect 51 0 86 0;
#X connect 52 0 12 0;
#X connect 52 0 51 0;
#X connect 53 0 16 0;
#X connect 53 0 51 0;
#X connect 54 0 20 0;
#X connect 54 0 51 0;
#X connect 55 0 25 0;
#X connect 55 0 51 0;
#X connect 56 0 29 0;
#X connect 56 0 51 0;
#X connect 57 0 33 0;
#X connect 57 0 51 0;
#X connect 58 0 5 0;
#X connect 58 0 51 0;
#X connect 59 0 66 0;
#X connect 60 0 68 0;
#X connect 61 0 70 0;
#X connect 62 0 72 0;
#X connect 63 0 74 0;
#X connect 64 0 76 0;
#X connect 65 0 78 0;
#X connect 66 0 67 0;
#X connect 67 0 85 0;
#X connect 68 0 69 0;
#X connect 69 0 85 0;
#X connect 70 0 71 0;
#X connect 71 0 85 0;
#X connect 72 0 73 0;
#X connect 73 0 85 0;
#X connect 74 0 75 0;
#X connect 75 0 85 0;
#X connect 76 0 77 0;
#X connect 77 0 85 0;
#X connect 78 0 79 0;
#X connect 79 0 85 0;
#X connect 80 0 81 0;
#X connect 80 1 82 0;
#X connect 80 2 83 0;
#X connect 80 3 84 0;
#X connect 81 0 90 0;
#X connect 82 0 91 0;
#X connect 83 0 92 0;
#X connect 84 0 93 0;
#X connect 85 0 81 1;
#X connect 85 0 82 1;
#X connect 85 0 83 1;
#X connect 85 0 84 1;
#X connect 85 0 87 0;
#X connect 86 0 45 0;
#X connect 86 0 95 0;
#X connect 87 0 81 0;
#X connect 87 0 82 0;
#X connect 87 0 83 0;
#X connect 87 0 84 0;
#X connect 89 0 88 1;
#X connect 90 0 88 0;
#X connect 91 0 88 0;
#X connect 92 0 88 0;
#X connect 93 0 88 0;
#X connect 94 0 95 0;
#X connect 95 0 81 2;
#X connect 95 0 82 2;
#X connect 95 0 83 2;
#X connect 95 0 84 2;
#X coords 0 -1 1 1 650 200 2 100 100;
#X restore 23 19 pd keyboard;
