#N canvas 526 460 712 299 12;
#N canvas 368 129 1155 1076 keyboard 0;
#X floatatom 26 211 5 0 0 0 - - - 0;
#X obj 26 234 * 12;
#X floatatom 26 258 5 0 0 0 - - - 0;
#X obj 71 857 cnv 300 800 300 empty empty empty 20 12 0 12 #e0e0e0 #404040 0;
#X obj 723 444 vsl 19 150 0 127 0 0 \$0-midi-velocity empty Vel 0 -9 0 12 #fcfcfc #000000 #000000 0 1;
#X obj 824 390 loadbang;
#X msg 890 422 120;
#X obj 623 546 nbx 5 17 1 16 0 0 \$0-midi-channel empty Midi\ Channel 0 -10 0 12 #fcfcfc #000000 #000000 0 256;
#X floatatom 720 611 5 0 0 0 - - - 0;
#X floatatom 546 291 5 0 0 0 - - - 0;
#X obj 566 316 + 1;
#X floatatom 590 291 5 0 0 0 - - - 0;
#X obj 610 316 + 1;
#X floatatom 632 291 5 0 0 0 - - - 0;
#X obj 652 316 + 1;
#X floatatom 676 291 5 0 0 0 - - - 0;
#X obj 695 316 + 1;
#X floatatom 719 291 5 0 0 0 - - - 0;
#X obj 739 316 + 1;
#X floatatom 763 291 5 0 0 0 - - - 0;
#X obj 783 316 + 1;
#X floatatom 805 291 5 0 0 0 - - - 0;
#X obj 825 316 + 1;
#X floatatom 849 291 5 0 0 0 - - - 0;
#X obj 869 316 + 1;
#X floatatom 26 288 5 0 0 0 - - - 0;
#X obj 46 313 + 1;
#X floatatom 70 288 5 0 0 0 - - - 0;
#X obj 90 313 + 1;
#X floatatom 112 288 5 0 0 0 - - - 0;
#X obj 132 313 + 1;
#X floatatom 156 288 5 0 0 0 - - - 0;
#X obj 176 313 + 1;
#X floatatom 199 288 5 0 0 0 - - - 0;
#X obj 219 313 + 1;
#X floatatom 243 288 5 0 0 0 - - - 0;
#X obj 263 313 + 1;
#X floatatom 285 288 5 0 0 0 - - - 0;
#X obj 305 313 + 1;
#X floatatom 329 288 5 0 0 0 - - - 0;
#X obj 349 313 + 1;
#X floatatom 372 288 5 0 0 0 - - - 0;
#X obj 392 313 + 1;
#X floatatom 416 288 5 0 0 0 - - - 0;
#X obj 436 313 + 1;
#X floatatom 458 288 5 0 0 0 - - - 0;
#X obj 478 313 + 1;
#X floatatom 502 288 5 0 0 0 - - - 0;
#X obj 525 318 + 1;
#X floatatom 893 291 5 0 0 0 - - - 0;
#X obj 913 316 + 1;
#X floatatom 937 291 5 0 0 0 - - - 0;
#X obj 957 316 + 1;
#X floatatom 979 291 5 0 0 0 - - - 0;
#X obj 999 316 + 1;
#X floatatom 1023 291 5 0 0 0 - - - 0;
#X obj 722 675 send \$0-midi-velocity;
#X obj 624 724 send \$0-midi-channel;
#X obj 825 633 send \$0-midi-port;
#X msg 824 592 1;
#X obj 378 88 key;
#X obj 412 88 keyname;
#X listbox 388 148 20 0 0 0 - - - 0;
#X obj 388 124 pack f s;
#X obj 112 459 abs/key 113 q;
#X obj 173 459 abs/key 119 w;
#X obj 980 753 abs/noteout;
#X obj 1054 711 pack f f f;
#X obj 619 455 abs/octave-select;
#N canvas 128 128 450 300 pn 0;
#X obj 113 67 inlet;
#X obj 113 91 pack f t;
#X obj 159 66 inlet;
#X obj 113 115 send \$0-note-message;
#X connect 0 0 1 0;
#X connect 1 0 3 0;
#X connect 2 0 1 1;
#X restore 54 683 pd pn;
#N canvas 128 128 450 300 pn 0;
#X obj 113 67 inlet;
#X obj 113 91 pack f t;
#X obj 159 66 inlet;
#X obj 113 115 send \$0-note-message;
#X connect 0 0 1 0;
#X connect 1 0 3 0;
#X connect 2 0 1 1;
#X restore 107 683 pd pn;
#X obj 233 459 abs/key 101 e;
#N canvas 128 128 450 300 pn 0;
#X obj 113 67 inlet;
#X obj 113 91 pack f t;
#X obj 159 66 inlet;
#X obj 113 115 send \$0-note-message;
#X connect 0 0 1 0;
#X connect 1 0 3 0;
#X connect 2 0 1 1;
#X restore 153 683 pd pn;
#N canvas 128 128 450 300 pn 0;
#X obj 113 67 inlet;
#X obj 113 91 pack f t;
#X obj 159 66 inlet;
#X obj 113 115 send \$0-note-message;
#X connect 0 0 1 0;
#X connect 1 0 3 0;
#X connect 2 0 1 1;
#X restore 206 683 pd pn;
#N canvas 128 128 450 300 pn 0;
#X obj 113 67 inlet;
#X obj 113 91 pack f t;
#X obj 159 66 inlet;
#X obj 113 115 send \$0-note-message;
#X connect 0 0 1 0;
#X connect 1 0 3 0;
#X connect 2 0 1 1;
#X restore 256 683 pd pn;
#N canvas 128 128 450 300 pn 0;
#X obj 113 67 inlet;
#X obj 113 91 pack f t;
#X obj 159 66 inlet;
#X obj 113 115 send \$0-note-message;
#X connect 0 0 1 0;
#X connect 1 0 3 0;
#X connect 2 0 1 1;
#X restore 309 683 pd pn;
#N canvas 128 128 450 300 pn 0;
#X obj 113 67 inlet;
#X obj 113 91 pack f t;
#X obj 159 66 inlet;
#X obj 113 115 send \$0-note-message;
#X connect 0 0 1 0;
#X connect 1 0 3 0;
#X connect 2 0 1 1;
#X restore 363 683 pd pn;
#N canvas 128 128 450 300 pn 0;
#X obj 113 67 inlet;
#X obj 113 91 pack f t;
#X obj 159 66 inlet;
#X obj 113 115 send \$0-note-message;
#X connect 0 0 1 0;
#X connect 1 0 3 0;
#X connect 2 0 1 1;
#X restore 416 683 pd pn;
#N canvas 128 128 450 300 pn 0;
#X obj 113 67 inlet;
#X obj 113 91 pack f t;
#X obj 159 66 inlet;
#X obj 113 115 send \$0-note-message;
#X connect 0 0 1 0;
#X connect 1 0 3 0;
#X connect 2 0 1 1;
#X restore 68 778 pd pn;
#N canvas 128 128 450 300 pn 0;
#X obj 113 67 inlet;
#X obj 113 91 pack f t;
#X obj 159 66 inlet;
#X obj 113 115 send \$0-note-message;
#X connect 0 0 1 0;
#X connect 1 0 3 0;
#X connect 2 0 1 1;
#X restore 121 778 pd pn;
#N canvas 128 128 450 300 pn 0;
#X obj 113 67 inlet;
#X obj 113 91 pack f t;
#X obj 159 66 inlet;
#X obj 113 115 send \$0-note-message;
#X connect 0 0 1 0;
#X connect 1 0 3 0;
#X connect 2 0 1 1;
#X restore 177 778 pd pn;
#N canvas 128 128 450 300 pn 0;
#X obj 113 67 inlet;
#X obj 113 91 pack f t;
#X obj 159 66 inlet;
#X obj 113 115 send \$0-note-message;
#X connect 0 0 1 0;
#X connect 1 0 3 0;
#X connect 2 0 1 1;
#X restore 230 778 pd pn;
#N canvas 128 128 450 300 pn 0;
#X obj 113 67 inlet;
#X obj 113 91 pack f t;
#X obj 159 66 inlet;
#X obj 113 115 send \$0-note-message;
#X connect 0 0 1 0;
#X connect 1 0 3 0;
#X connect 2 0 1 1;
#X restore 285 777 pd pn;
#N canvas 128 128 450 300 pn 0;
#X obj 113 67 inlet;
#X obj 113 91 pack f t;
#X obj 159 66 inlet;
#X obj 113 115 send \$0-note-message;
#X connect 0 0 1 0;
#X connect 1 0 3 0;
#X connect 2 0 1 1;
#X restore 338 777 pd pn;
#X obj 294 459 abs/key 114 r;
#X obj 355 460 abs/key 116 t;
#X obj 152 400 abs/key 50 2;
#X connect 0 0 1 0;
#X connect 1 0 2 0;
#X connect 2 0 25 0;
#X connect 4 0 8 0;
#X connect 5 0 6 0;
#X connect 5 0 7 0;
#X connect 5 0 59 0;
#X connect 6 0 4 0;
#X connect 7 0 57 0;
#X connect 7 0 67 0;
#X connect 8 0 56 0;
#X connect 8 0 67 1;
#X connect 9 0 10 0;
#X connect 10 0 11 0;
#X connect 11 0 12 0;
#X connect 12 0 13 0;
#X connect 13 0 14 0;
#X connect 14 0 15 0;
#X connect 15 0 16 0;
#X connect 16 0 17 0;
#X connect 17 0 18 0;
#X connect 18 0 19 0;
#X connect 19 0 20 0;
#X connect 20 0 21 0;
#X connect 21 0 22 0;
#X connect 22 0 23 0;
#X connect 23 0 24 0;
#X connect 24 0 49 0;
#X connect 25 0 26 0;
#X connect 25 0 69 0;
#X connect 26 0 27 0;
#X connect 27 0 28 0;
#X connect 27 0 78 0;
#X connect 28 0 29 0;
#X connect 29 0 30 0;
#X connect 29 0 70 0;
#X connect 30 0 31 0;
#X connect 31 0 32 0;
#X connect 32 0 33 0;
#X connect 33 0 34 0;
#X connect 33 0 72 0;
#X connect 34 0 35 0;
#X connect 35 0 36 0;
#X connect 35 0 73 0;
#X connect 36 0 37 0;
#X connect 37 0 38 0;
#X connect 38 0 39 0;
#X connect 39 0 40 0;
#X connect 39 0 74 0;
#X connect 40 0 41 0;
#X connect 41 0 42 0;
#X connect 42 0 43 0;
#X connect 43 0 44 0;
#X connect 44 0 45 0;
#X connect 45 0 46 0;
#X connect 46 0 47 0;
#X connect 47 0 48 0;
#X connect 48 0 9 0;
#X connect 49 0 50 0;
#X connect 50 0 51 0;
#X connect 51 0 52 0;
#X connect 52 0 53 0;
#X connect 53 0 54 0;
#X connect 54 0 55 0;
#X connect 59 0 58 0;
#X connect 59 0 67 2;
#X connect 60 0 63 0;
#X connect 61 1 63 1;
#X connect 63 0 62 0;
#X connect 64 0 69 1;
#X connect 65 0 70 1;
#X connect 67 0 66 2;
#X connect 68 0 0 0;
#X connect 71 0 72 1;
#X connect 84 0 73 1;
#X connect 85 0 74 1;
#X connect 86 0 78 1;
#X coords 0 -1 1 1 660 250 2 110 400;
#X restore 23 19 pd keyboard;
