#N canvas 309 432 803 458 12;
#X declare -stdlib ./lib/devstermarts/various/;
#N canvas -251 373 1900 1066 OmniChord 0;
#X obj 630 15 declare -stdlib ./lib/devstermarts/various/;
#X obj 15 15 abs/key 113;
#X obj 75 15 abs/key 119;
#X obj 135 15 abs/key 101;
#X obj 195 15 abs/key 114;
#X obj 255 15 abs/key 116;
#X obj 315 15 abs/key 121;
#X obj 375 15 abs/key 117;
#X obj 43 75 abs/key 97;
#X obj 103 75 abs/key 115;
#X obj 163 75 abs/key 100;
#X obj 223 75 abs/key 102;
#X obj 283 75 abs/key 103;
#X obj 343 75 abs/key 104;
#X obj 403 75 abs/key 106;
#X obj 78 135 abs/key 122;
#X obj 138 135 abs/key 120;
#X obj 198 135 abs/key 99;
#X obj 258 135 abs/key 118;
#X obj 318 135 abs/key 98;
#X obj 378 135 abs/key 110;
#X obj 438 135 abs/key 109;
#X obj 45 449 abs/omni-key-row;
#X floatatom 45 412 5 0 0 0 - - - 0;
#X obj 169 449 abs/omni-key-row;
#X floatatom 169 412 5 0 0 0 - - - 0;
#X obj 294 449 abs/omni-key-row;
#X floatatom 294 412 5 0 0 0 - - - 0;
#X obj 423 449 abs/omni-key-row;
#X floatatom 423 412 5 0 0 0 - - - 0;
#X obj 549 449 abs/omni-key-row;
#X floatatom 549 412 5 0 0 0 - - - 0;
#X obj 675 449 abs/omni-key-row;
#X floatatom 675 412 5 0 0 0 - - - 0;
#X obj 807 449 abs/omni-key-row;
#X floatatom 807 412 5 0 0 0 - - - 0;
#X obj 109 412 + 2;
#X obj 238 412 + 2;
#X obj 358 412 + 1;
#X obj 487 412 + 2;
#X obj 611 412 + 2;
#X obj 747 412 + 2;
#X obj 520 15 abs/octave-select;
#X floatatom 665 272 5 0 0 0 - - - 0;
#X obj 665 295 * 12;
#X obj 522 104 nbx 1 17 0 15 0 0 \$0-midi-channel empty Midi\ Channel 0 -10 0 12 #fcfcfc #000000 #000000 0 256;
#X obj 316 633 abs/midinotesout;
#X obj 551 120 vsl 19 162 0 127 0 0 empty empty Velocity 0 -9 0 12 #fcfcfc #000000 #000000 0 1;
#X msg 739 526 2;
#X obj 589 624 pack f f f;
#X obj 729 568 bng 19 250 50 0 empty empty empty 0 -10 0 12 #fcfcfc #000000 #000000;
#X obj 740 498 loadbang;
#X listbox 211 738 20 0 0 0 - - - 0;
#X connect 1 0 22 1;
#X connect 2 0 24 1;
#X connect 3 0 26 1;
#X connect 4 0 28 1;
#X connect 5 0 30 1;
#X connect 6 0 32 1;
#X connect 7 0 34 1;
#X connect 8 0 22 2;
#X connect 9 0 24 2;
#X connect 10 0 26 2;
#X connect 11 0 28 2;
#X connect 12 0 30 2;
#X connect 13 0 32 2;
#X connect 14 0 34 2;
#X connect 15 0 22 3;
#X connect 16 0 24 3;
#X connect 17 0 26 3;
#X connect 18 0 28 3;
#X connect 19 0 30 3;
#X connect 20 0 32 3;
#X connect 21 0 34 3;
#X connect 22 0 46 0;
#X connect 22 0 52 0;
#X connect 22 1 46 1;
#X connect 23 0 36 0;
#X connect 23 0 22 0;
#X connect 24 0 46 0;
#X connect 24 1 46 1;
#X connect 25 0 37 0;
#X connect 25 0 24 0;
#X connect 26 0 46 0;
#X connect 26 1 46 1;
#X connect 27 0 38 0;
#X connect 27 0 26 0;
#X connect 28 0 46 0;
#X connect 28 1 46 1;
#X connect 29 0 39 0;
#X connect 29 0 28 0;
#X connect 30 0 46 0;
#X connect 30 1 46 1;
#X connect 31 0 40 0;
#X connect 31 0 30 0;
#X connect 32 0 46 0;
#X connect 32 1 46 1;
#X connect 33 0 41 0;
#X connect 33 0 32 0;
#X connect 34 0 46 0;
#X connect 34 1 46 1;
#X connect 35 0 34 0;
#X connect 36 0 25 0;
#X connect 37 0 27 0;
#X connect 38 0 29 0;
#X connect 39 0 31 0;
#X connect 40 0 33 0;
#X connect 41 0 35 0;
#X connect 42 0 43 0;
#X connect 43 0 44 0;
#X connect 44 0 23 0;
#X connect 45 0 49 0;
#X connect 45 0 50 0;
#X connect 47 0 49 1;
#X connect 47 0 50 0;
#X connect 48 0 49 2;
#X connect 48 0 50 0;
#X connect 49 0 46 2;
#X connect 50 0 49 0;
#X connect 51 0 48 0;
#X coords 0 -1 1 1 600 300 2 10 10;
#X restore 82 27 pd OmniChord;
