#N canvas 703 25 1110 1076 12;
#X obj 195 35 loadbang;
#X obj 195 59 bng 19 250 50 0 empty empty empty 0 -10 0 12 #fcfcfc #000000 #000000;
#N canvas 1114 7 810 1086 keyboard 0;
#X obj 60 120 abs/key 113;
#X obj 120 120 abs/key 119;
#X obj 180 120 abs/key 101;
#X obj 240 120 abs/key 114;
#X obj 300 120 abs/key 116;
#X obj 360 120 abs/key 121;
#X obj 420 120 abs/key 117;
#X obj 480 120 abs/key 117;
#X obj 0 0 abs/key 97;
#X obj 60 0 abs/key 115;
#X obj 120 0 abs/key 100;
#X obj 180 0 abs/key 102;
#X obj 240 0 abs/key 103;
#X obj 300 0 abs/key 104;
#X obj 360 0 abs/key 106;
#X obj 420 0 abs/key 106;
#X obj 30 60 abs/key 122;
#X obj 90 60 abs/key 120;
#X obj 150 60 abs/key 99;
#X obj 210 60 abs/key 118;
#X obj 270 60 abs/key 98;
#X obj 330 60 abs/key 110;
#X obj 390 60 abs/key 109;
#X obj 450 60 abs/key 109;
#X coords 0 -1 1 1 600 300 2 0 0;
#X restore 475 35 pd keyboard;
#X msg 253 109 \; pd-keyboard clear;
#X msg 253 147 read omnikeyboard.txt;
#X obj 253 171 text define \$0-omnikeyboard;
#X obj 238 222 text sequence \$0-omnikeyboard;
#X floatatom 220 461 5 0 0 0 rows - - 0;
#X floatatom 352 614 5 0 0 0 key - - 0;
#X floatatom 134 479 5 0 0 0 col - - 0;
#X obj 134 502 * 60;
#X msg 170 784 \; pd-keyboard obj \$1 \$2 abs/key \$3;
#X obj 222 412 f;
#X obj 222 436 + 1;
#X obj 281 753 print keyseq:;
#X obj 277 253 print textseq:;
#X msg 238 198 line 0;
#X msg 242 378 0;
#X obj 302 388 until;
#X obj 300 502 list store;
#X obj 302 412 f;
#X obj 356 410 + 1;
#X msg 359 388 0, f 2;
#X msg 300 478 get \$1 1;
#X obj 262 687 pack f f f;
#X obj 197 283 t b b b l;
#X floatatom 131 615 5 0 0 0 x - - 0;
#X floatatom 231 613 5 0 0 0 y - - 0;
#X obj 139 109 t b b b;
#X obj 190 500 * 30;
#X obj 134 532 + 0;
#X obj 190 524 * 2;
#X connect 0 0 1 0;
#X connect 1 0 3 0;
#X connect 1 0 28 0;
#X connect 4 0 5 0;
#X connect 6 0 15 0;
#X connect 6 0 25 0;
#X connect 7 0 29 0;
#X connect 8 0 24 2;
#X connect 9 0 10 0;
#X connect 10 0 30 0;
#X connect 12 0 13 0;
#X connect 12 0 7 0;
#X connect 13 0 12 1;
#X connect 16 0 6 0;
#X connect 17 0 12 1;
#X connect 18 0 20 0;
#X connect 19 0 8 0;
#X connect 19 1 18 1;
#X connect 20 0 21 0;
#X connect 20 0 9 0;
#X connect 21 0 20 1;
#X connect 22 0 20 1;
#X connect 23 0 19 0;
#X connect 24 0 14 0;
#X connect 24 0 11 0;
#X connect 25 1 18 0;
#X connect 25 1 12 0;
#X connect 25 2 22 0;
#X connect 25 3 19 1;
#X connect 26 0 24 0;
#X connect 27 0 24 1;
#X connect 28 0 6 0;
#X connect 28 1 16 0;
#X connect 28 1 17 0;
#X connect 28 2 4 0;
#X connect 29 0 30 1;
#X connect 29 0 31 0;
#X connect 30 0 26 0;
#X connect 31 0 27 0;
