#N canvas 790 469 797 544 12;
#X obj 127 175 expr~ if($v1 > 1 \, 2-$v1 \, $v1);
#X obj 126 201 expr~ if($v1 < -1 \, -2-$v1 \, $v1);
#X obj 126 227 expr~ if($v1 > 1 \, 2-$v1 \, $v1);
#X obj 126 251 expr~ if($v1 < -1 \, -2-$v1 \, $v1);
#X obj 133 414 outlet~;
#X obj 192 27 osc~ 172;
#X obj 147 114 *~;
#X obj 478 22 hsl 162 19 0 127 0 0 empty empty Input\ Volume -2 -10 0 12 #fcfcfc #000000 #000000 0 1;
#X obj 253 346 *~;
#X floatatom 646 64 5 0 1 0 - - - 0;
#X obj 241 411 dac~;
#X obj 476 64 hsl 162 19 0 1 0 0 empty empty Output\ Volume -2 -10 0 12 #fcfcfc #000000 #000000 0 1;
#X floatatom 647 22 5 0 0 0 - - - 0;
#X obj 85 60 inlet~;
#X obj 413 315 tgl 19 0 empty empty empty 0 -10 0 12 #fcfcfc #000000 #000000 0 1;
#X obj 413 339 metro 100;
#X obj 414 365 tabwrite~ \$0-display;
#X obj 413 287 loadbang;
#N canvas 0 50 450 250 (subpatch) 0;
#X array \$0-display 10 float 5;
#A 0 0 0 0 0 0 0 0 0 0 0;
#X coords 0 1 9 -1 200 140 1;
#X restore 472 102 graph;
#X connect 0 0 1 0;
#X connect 1 0 2 0;
#X connect 2 0 3 0;
#X connect 3 0 8 0;
#X connect 3 0 16 0;
#X connect 5 0 6 0;
#X connect 6 0 0 0;
#X connect 7 0 6 1;
#X connect 7 0 12 0;
#X connect 8 0 10 1;
#X connect 8 0 10 0;
#X connect 8 0 4 0;
#X connect 9 0 8 1;
#X connect 11 0 9 0;
#X connect 13 0 6 0;
#X connect 14 0 15 0;
#X connect 15 0 16 0;
#X connect 17 0 14 0;
